<svg width="1163" height="158" viewBox="0 0 1163 158" fill="none" xmlns="http://www.w3.org/2000/svg">
<path d="M113.734 131.558H156.941V134.707C156.941 146.724 147.266 156.493 135.33 156.493C123.41 156.493 113.719 146.739 113.719 134.707V131.558H113.734Z" fill="#132B43"/>
<path d="M206.897 131.558H250.104V134.707C250.104 146.724 240.429 156.493 228.493 156.493C216.573 156.493 206.882 146.739 206.882 134.707V131.558H206.897Z" fill="#132B43"/>
<path d="M530.276 131.558H573.483V134.707C573.483 146.724 563.807 156.493 551.872 156.493C539.951 156.493 530.26 146.739 530.26 134.707V131.558H530.276Z" fill="#132B43"/>
<path d="M623.438 131.558H666.646V134.707C666.646 146.724 656.97 156.493 645.034 156.493C633.114 156.493 623.423 146.739 623.423 134.707V131.558H623.438Z" fill="#132B43"/>
<path d="M718.967 5.19796H111.369L10.5773 98.0912C-4.89171 112.355 4.93567 138.667 25.743 138.667H722.016C722.016 138.667 721.515 2.6142 718.982 5.19796H718.967Z" fill="url(#paint0_linear_307_306)"/>
<path d="M183.269 24.4004H152.634V55.8184H183.269V24.4004Z" fill="#C5DB5B"/>
<path d="M111.702 24.4004V55.8184H81.0674" fill="#C5DB5B"/>
<path d="M225.293 24.4004H194.658V55.8184H225.293V24.4004Z" fill="#C5DB5B"/>
<path d="M341.25 24.4004H310.615V55.8184H341.25V24.4004Z" fill="#C5DB5B"/>
<path d="M383.274 24.4004H352.64V55.8184H383.274V24.4004Z" fill="#C5DB5B"/>
<path d="M498.883 24.4004H468.248V55.8184H498.883V24.4004Z" fill="#C5DB5B"/>
<path d="M540.907 24.4004H510.272V55.8184H540.907V24.4004Z" fill="#C5DB5B"/>
<path d="M599.431 24.4004H568.796V55.8184H599.431V24.4004Z" fill="#C5DB5B"/>
<path d="M641.455 24.4004H610.821V55.8184H641.455V24.4004Z" fill="#C5DB5B"/>
<path d="M275.552 43.3584H269.714C261.447 43.3584 254.745 50.1143 254.745 58.4482V110.659C254.745 118.992 261.447 125.748 269.714 125.748H275.552C283.819 125.748 290.521 118.992 290.521 110.659V58.4482C290.521 50.1143 283.819 43.3584 275.552 43.3584Z" fill="url(#paint1_linear_307_306)"/>
<path d="M1081.17 3.11886H1426.05L1526.84 96.0121C1542.31 110.276 1532.49 136.588 1511.68 136.588H1078.12C1078.12 136.588 1078.62 0.535095 1081.15 3.11886H1081.17Z" fill="url(#paint2_linear_307_306)"/>
<path d="M1185.43 24.4004H1154.8V55.8184H1185.43V24.4004Z" fill="#C5DB5B"/>
<path d="M857.37 131.558H900.577V134.708C900.577 146.724 890.901 156.494 878.966 156.494C867.045 156.494 857.354 146.74 857.354 134.708V131.558H857.37Z" fill="#132B43"/>
<path d="M950.533 131.558H993.74V134.708C993.74 146.724 984.064 156.494 972.129 156.494C960.208 156.494 950.518 146.74 950.518 134.708V131.558H950.533Z" fill="#132B43"/>
<path d="M1059.56 5.53467H743.612V138.484H1059.56V5.53467Z" fill="url(#paint3_linear_307_306)"/>
<path d="M857.157 24.4004H826.522V55.8184H857.157V24.4004Z" fill="#C5DB5B"/>
<path d="M899.181 24.4004H868.547V55.8184H899.181V24.4004Z" fill="#C5DB5B"/>
<path d="M1030.33 24.4004H999.7V55.8184H1030.33V24.4004Z" fill="#C5DB5B"/>
<path d="M942.388 24.4004H911.754V55.8184H942.388V24.4004Z" fill="#C5DB5B"/>
<path d="M984.413 24.4004H953.778V55.8184H984.413V24.4004Z" fill="#C5DB5B"/>
<path d="M794.038 43.3584H788.199C779.932 43.3584 773.23 50.1143 773.23 58.4482V110.659C773.23 118.992 779.932 125.748 788.199 125.748H794.038C802.304 125.748 809.006 118.992 809.006 110.659V58.4482C809.006 50.1143 802.304 43.3584 794.038 43.3584Z" fill="url(#paint4_linear_307_306)"/>
<path d="M967.746 6.92571H880.664L884.38 0H964.045L967.746 6.92571Z" fill="#132B43"/>
<defs>
<linearGradient id="paint0_linear_307_306" x1="362.513" y1="-8.28654" x2="362.513" y2="147.489" gradientUnits="userSpaceOnUse">
<stop offset="0.09" stop-color="#132B43"/>
<stop offset="0.31" stop-color="#4D2652"/>
<stop offset="0.65" stop-color="#A21F69"/>
<stop offset="0.88" stop-color="#D81B78"/>
<stop offset="1" stop-color="#ED1A7E"/>
</linearGradient>
<linearGradient id="paint1_linear_307_306" x1="256.899" y1="84.561" x2="290.597" y2="84.561" gradientUnits="userSpaceOnUse">
<stop stop-color="#DA5365"/>
<stop offset="1" stop-color="#C5DB5B"/>
</linearGradient>
<linearGradient id="paint2_linear_307_306" x1="1306.27" y1="-4.12791" x2="1306.27" y2="140.624" gradientUnits="userSpaceOnUse">
<stop offset="0.09" stop-color="#132B43"/>
<stop offset="0.31" stop-color="#4D2652"/>
<stop offset="0.65" stop-color="#A21F69"/>
<stop offset="0.88" stop-color="#D81B78"/>
<stop offset="1" stop-color="#ED1A7E"/>
</linearGradient>
<linearGradient id="paint3_linear_307_306" x1="901.593" y1="-1.71211" x2="901.593" y2="136.466" gradientUnits="userSpaceOnUse">
<stop offset="0.09" stop-color="#132B43"/>
<stop offset="0.31" stop-color="#4D2652"/>
<stop offset="0.65" stop-color="#A21F69"/>
<stop offset="0.88" stop-color="#D81B78"/>
<stop offset="1" stop-color="#ED1A7E"/>
</linearGradient>
<linearGradient id="paint4_linear_307_306" x1="775.384" y1="6.76936e-05" x2="809.097" y2="6.76936e-05" gradientUnits="userSpaceOnUse">
<stop stop-color="#DA5365"/>
<stop offset="1" stop-color="#C5DB5B"/>
</linearGradient>
</defs>
</svg>
