<svg width="1440" height="878" viewBox="0 0 1440 878" fill="none" xmlns="http://www.w3.org/2000/svg">
<g style="mix-blend-mode:color-dodge">
<path d="M108.216 213.162C228.841 160.009 364.503 147.309 507.264 180.043C631.522 208.49 743.274 259.144 851.584 308.765C907.546 334.37 958.4 362.533 1026.17 370.54C1098.03 379.209 1171.04 372.494 1242.6 382.513C1368.34 400.247 1450.67 499.964 1586.1 464.273C1609.72 529.462 1621.63 597.212 1633.24 663.165C1652.62 773.636 1666.74 889.253 1632.25 997.087C1575.88 988.142 1509.78 1013.2 1456.13 1020.42C1376.28 1031.09 1293.59 1027.5 1217.85 1001.63C1117.05 967.246 1032.3 913.607 937.256 872.873C851.465 835.992 770.525 817.463 670.953 823.498C632.452 825.775 593.876 829.278 554.839 826.872C512.31 824.25 471.764 812.861 429.608 807.528C373.951 800.404 318.817 801.519 263.566 791.139C158.768 771.549 59.7442 735.22 -36.0842 700.593C-92.5707 680.152 -148.391 658.932 -204.655 638.231C-241.556 624.605 -279.77 608.846 -319.867 600.22C-254.233 445.48 -69.2754 315.601 107.805 213.136L108.216 213.162Z" stroke="#DAEBF0" stroke-opacity="0.1" stroke-width="5" stroke-miterlimit="10"/>
<path d="M-311.979 582.653C-272.003 589.904 -233.781 605.526 -197.496 619.115C-144.887 638.906 -92.9546 659.613 -40.3465 679.405C51.7585 714.213 147.117 749.769 248.628 769.156C310.386 781.032 372.837 778.316 435.061 785.981C476.815 791.153 516.581 801.81 558.863 805.1C598.885 808.251 638.97 807.029 678.997 806.761C719.64 806.531 761.071 806.896 801.319 813.07C852.192 820.856 901.727 840.321 946.176 858.652C1039.31 896.806 1124.18 945.256 1221.56 978.201C1297.32 1003.8 1378.93 1008.14 1459.67 999.716C1516.33 993.909 1579.48 973.183 1638.09 979.258" stroke="#DAEBF0" stroke-opacity="0.1" stroke-width="5" stroke-miterlimit="10"/>
<path d="M-302.849 565.026C-265.855 570.452 -230.261 585.228 -197.846 598.031C-151.54 616.34 -106.337 635.812 -60.467 654.504C23.4282 688.67 111.629 723.237 206.248 740.695C280.471 754.433 357.053 749.99 432.22 758.453C475.848 763.33 517.685 773.841 561.494 779.14C603.667 784.201 645.991 786.81 688.281 789.964C730.983 793.143 773.881 796.471 815.928 803.576C865.321 811.955 913.149 828.99 957.707 845.549C1047.03 878.682 1130.52 919.387 1222.99 948.337C1298.87 972.025 1379.72 978.513 1460.64 973.927C1520.04 970.613 1582.43 955.449 1642.77 960.262" stroke="#DAEBF0" stroke-opacity="0.1" stroke-width="5" stroke-miterlimit="10"/>
<path d="M-292.47 547.202C-219.503 554.572 -148.897 600.228 -89.107 627.3C-16.0759 660.386 62.5277 693.405 147.821 708.236C238.422 723.941 332.619 718.122 424.24 727.325C515.861 736.528 607.514 758.59 697.977 773.192C791.702 788.406 881.595 805.572 969.805 833.302C1054.17 859.838 1135.55 891.387 1221.97 914.63C1298.86 935.235 1378.08 944.904 1459.34 944.853C1521.22 944.837 1584.07 935.582 1646.07 940.224" stroke="#DAEBF0" stroke-opacity="0.1" stroke-width="5" stroke-miterlimit="10"/>
<path d="M-280.644 529.331C-220.797 532.063 -162.895 576.388 -118.141 599.798C-55.9991 632.213 12.8433 662.989 90.0861 674.588C196.139 690.562 305.812 684.603 412.67 694.198C514.4 703.341 611.806 732.458 708.52 756.063C797.305 777.81 886.841 797.416 975.618 819.3C1058.5 839.727 1140.43 862.419 1224.48 880.593C1300.6 897.047 1376.11 910.044 1455.03 914.498C1519.56 918.202 1584.52 914.821 1648.99 919.615" stroke="#DAEBF0" stroke-opacity="0.1" stroke-width="5" stroke-miterlimit="10"/>
<path d="M-267.379 511.548C-218.032 510.624 -176.81 551.186 -144.668 571.767C-93.8764 604.303 -34.4805 631.077 34.4226 640.795C156.689 658.042 282.908 651.325 406.006 661.784C518.232 671.3 616.311 706.203 718.891 738.375C807.307 766.118 893.698 789.906 987.519 806.904C1065.23 820.994 1143.69 832.806 1221.66 846.091C1298.81 859.189 1373.46 876.099 1452.12 884.641C1518.3 891.729 1584.78 893.912 1651.11 898.547" stroke="#DAEBF0" stroke-opacity="0.1" stroke-width="5" stroke-miterlimit="10"/>
<path d="M-252.883 493.842C-208.109 490.174 -183.344 526.712 -159.387 546.242C-117.77 580.4 -62.0093 602.574 1.83287 610.749C133.61 627.625 268.877 621.328 401.262 631.677C461.197 636.328 513.261 644.871 568.255 662.758C622.436 680.458 675.027 700.522 727.866 719.918C819.027 753.3 905.099 782.266 1006.86 794.283C1075.65 802.489 1145.2 804.998 1213.92 814.295C1292.26 824.867 1367.94 845.123 1446.43 856.526C1514.29 866.453 1583.35 873.582 1652.26 876.599" stroke="#DAEBF0" stroke-opacity="0.1" stroke-width="5" stroke-miterlimit="10"/>
<path d="M-237.162 476.347C-191.73 472.036 -179.61 499.589 -159.264 520.811C-123.618 558.157 -65.0431 578.18 -1.57823 585.784C138.039 602.596 280.771 595.666 421.101 607.598C539.688 617.643 633.41 659.663 735.444 700.691C821.788 735.281 906.178 768.109 1005.82 777.67C1072.66 784.115 1139.91 780.464 1206.63 788.817C1355.83 807.45 1498.61 856.46 1652.57 854.735" stroke="#DAEBF0" stroke-opacity="0.1" stroke-width="5" stroke-miterlimit="10"/>
<path d="M-220.832 459.027C-176.411 454.38 -155.385 477.969 -129.176 497.774C-85.8318 530.671 -28.8129 552.512 34.8574 560.13C168.945 576.327 305.973 568.225 440.765 579.679C488.569 583.719 535.384 590.434 579.195 605.717C633.309 624.507 682.021 650.623 731.278 674.585C811.37 713.576 891.546 744.504 989.373 753.406C1067.11 760.386 1145.74 756.069 1223.09 766.034C1364.69 784.062 1505.87 839.128 1651.91 832.128" stroke="#DAEBF0" stroke-opacity="0.1" stroke-width="5" stroke-miterlimit="10"/>
<path d="M-203.485 441.906C-156.916 435.887 -119.575 452.412 -81.642 469.385C-28.4557 493.178 28.3242 515.551 90.6274 525.273C211.15 544.053 339.537 532.272 461.331 540.463C513.706 543.965 568.043 549.092 612.495 570.706C651.14 589.5 680.892 615.405 712.438 638.958C743.376 662.338 776.352 686.116 819.254 699.428C862.156 712.741 910.107 717.748 955.873 721.389C1058.9 729.518 1163.33 725.013 1265.89 737.489C1340.19 746.582 1412.1 767.7 1483.19 785.485C1537.01 798.924 1593.49 812.799 1650.84 809.222" stroke="#DAEBF0" stroke-opacity="0.1" stroke-width="5" stroke-miterlimit="10"/>
<path d="M-185.528 424.96C-130.771 416.573 -76.4514 428.675 -24.5095 442.544C41.4326 460.148 107.739 481.878 177.061 491.485C287.89 506.933 403.203 493.115 514.93 500.686C557.032 503.554 606.719 507.164 637.93 529.466C665.585 549.224 676.669 576.85 690.847 601.111C703.911 623.389 719.545 647.466 750.865 661.295C796.232 681.461 869.295 683.913 920.429 687.475C1052.48 696.571 1186.39 692.243 1317.88 707.049C1389.15 715.135 1455.27 736.58 1519.02 759.657C1560.77 774.813 1601.72 789.782 1649.57 786.304" stroke="#DAEBF0" stroke-opacity="0.1" stroke-width="5" stroke-miterlimit="10"/>
<path d="M-166.981 408.46C-29.5946 384.515 112.3 444.685 246.362 461.292C349.312 474.065 454.429 458.388 558.109 466.01C593.422 468.597 639.436 471.57 662.232 493.216C683.853 513.833 677.188 545.015 678.473 567.661C679.683 591.533 682.515 619.198 717.953 633.144C763.257 650.981 830.215 652.099 880.527 655.61C1035.97 666.56 1192.78 662.138 1347.74 677.571C1418.47 684.528 1483.29 703.568 1540.44 733.35C1574.41 751.035 1602.67 767.685 1647.47 763.608" stroke="#DAEBF0" stroke-opacity="0.1" stroke-width="5" stroke-miterlimit="10"/>
<path d="M-148.451 392.233C-14.4517 363.019 139.725 421.348 271.614 439.735C366.09 452.807 462.741 437.292 557.721 442.189C594.317 444.034 651.673 447.022 674.574 470.317C695.537 491.577 686.293 521.095 685.079 544.134C683.752 565.661 684.014 591.526 713.624 606.344C757.04 628.031 837.035 628.448 886.114 631.884C1040.33 642.757 1195.79 640.031 1349.61 654.025C1420.97 660.612 1486.73 677.795 1542.29 710.077C1574.94 729.049 1599.29 745.457 1644.97 740.613" stroke="#DAEBF0" stroke-opacity="0.1" stroke-width="5" stroke-miterlimit="10"/>
<path d="M-129.329 376.453C-62.1346 360.353 20.0094 376.084 87.6836 389.009C160.658 402.944 232.44 422.823 306.404 434.083C394.469 447.444 483.162 427.199 571.542 432.099C607.308 434.03 650.97 438.363 675.946 458.092C699.148 476.481 699.121 503.696 704.163 525.616C709.721 549.209 718.746 573.426 753.421 586.368C798.587 603.102 864.425 605.656 913.676 609.649C1057.93 621.549 1203.79 620.693 1347.81 636.408C1415.82 643.882 1476.6 661.579 1531.96 690.157C1567.74 708.637 1595.89 723.775 1642.42 718.301" stroke="#DAEBF0" stroke-opacity="0.1" stroke-width="5" stroke-miterlimit="10"/>
<path d="M-110.036 361.23C-37.7048 345.447 52.0742 367.803 122.44 383.902C201.762 401.921 284.144 430.523 366.469 439.974C435.892 447.946 501.112 427.074 569.903 428.579C604.709 429.357 643.313 435.429 671.435 450.976C699.162 466.225 712.011 488.626 727.444 509.271C772.815 569.51 860.147 578.039 951.751 587.514C1078.4 600.654 1206.93 603.243 1333.17 619.64C1398.43 628.176 1458.14 646.491 1514.38 670.883C1555.16 688.577 1589.78 702.473 1638.84 696.061" stroke="#DAEBF0" stroke-opacity="0.1" stroke-width="5" stroke-miterlimit="10"/>
<path d="M-90.7673 346.416C-10.6205 330.978 90.8017 361.848 165.897 381.521C245.856 402.588 330.674 435.169 415.003 445.564C474.359 452.915 521.193 425.85 578.906 426.399C649.596 427.2 703.54 462.118 752.155 493.152C815.651 533.719 889.22 551.383 972.84 563.239C1085.28 579.333 1199.8 585.024 1311.75 602.455C1377.12 612.503 1438.06 631.029 1497.15 652.725C1543.13 669.646 1583.64 681.58 1635.45 674.106" stroke="#DAEBF0" stroke-opacity="0.1" stroke-width="5" stroke-miterlimit="10"/>
<path d="M-71.7382 332.134C10.5051 316.142 116.606 351.403 192.414 372.898C240.452 386.526 287.816 401.071 335.845 414.836C373.531 425.775 416.118 440.846 456.245 445.644C508.033 451.982 530.753 424.661 576.801 420.388C640.267 414.59 721.465 455.701 774.22 476.459C847.118 505.023 922.653 527.595 1003.66 541.751C1103.63 559.265 1206.22 567.914 1305.91 586.641C1369.52 598.631 1429.03 616.933 1488.47 636.188C1535.99 651.563 1580.18 660.715 1631.62 652.671" stroke="#DAEBF0" stroke-opacity="0.1" stroke-width="5" stroke-miterlimit="10"/>
<path d="M-53.1536 318.372C29.8741 299.693 142.399 337.811 219.209 359.778C268.463 373.756 317.034 388.785 366.074 402.886C403.965 413.838 445.542 428.573 486.122 432.715C535.511 437.811 548.298 407.69 590.803 404.018C621.488 401.397 654.272 414.906 681.802 423.304C718.239 434.44 754.239 445.959 790.445 457.491C866.89 482.034 941.913 506.216 1023.05 521.611C1117.01 539.575 1212.84 550.816 1306.81 568.78C1367.34 580.444 1423.55 598.679 1480.83 616.297C1529.21 631.177 1575.88 640.208 1627.55 631.632" stroke="#DAEBF0" stroke-opacity="0.1" stroke-width="5" stroke-miterlimit="10"/>
<path d="M-34.6108 305.292C48.8485 289.647 141.776 311.104 223.103 330.067C269.057 340.695 314.517 352.66 360.207 364.23C396.556 373.445 437.952 387.759 476.544 390.684C522.114 394.177 539.794 368.324 580.613 365.233C611.692 362.908 645.512 376.345 672.589 385.399C713.806 399.291 753.449 415.275 793.332 430.726C865.03 458.669 936.502 483.589 1014.82 501.136C1095.38 519.231 1177.89 532.25 1258.96 548.735C1372.61 571.879 1503.74 632.753 1624.04 611.72" stroke="#DAEBF0" stroke-opacity="0.1" stroke-width="5" stroke-miterlimit="10"/>
<path d="M-16.9322 292.842C131.915 253.601 288.8 314.832 437.416 332.882C485.316 338.707 507.81 315.065 551.233 313.228C584.727 311.874 618.932 325.744 647.125 336.782C695.247 355.75 740.907 377.848 786.823 399.142C857.602 431.952 928 460.909 1006.39 484.067C1064.12 501.029 1123.24 515.478 1182.37 529.927C1313.82 562.1 1480.26 615.577 1619.45 592.427" stroke="#DAEBF0" stroke-opacity="0.1" stroke-width="5" stroke-miterlimit="10"/>
<path d="M0.285815 281.183C133.363 240.15 270.439 264.738 410.233 285.39C460.309 292.716 489.797 269.369 536.75 270.485C569.904 271.298 601.481 284.322 629.015 296.003C682.877 318.881 733.166 346.188 783.744 372.146C888.9 426.085 1007.29 479.473 1129.27 514.755C1203.23 536.136 1282.13 550.983 1359.96 563.03C1443.72 575.988 1532.19 586.091 1615.42 574.262" stroke="#DAEBF0" stroke-opacity="0.1" stroke-width="5" stroke-miterlimit="10"/>
<path d="M16.6308 270.292C79.6788 251.202 146.684 241.518 217.605 241.924C289.767 242.269 353.994 257.579 424.428 265.887C469.879 271.287 501.237 251.063 544.467 252.36C576.79 253.259 607.004 264.968 633.914 276.748C688.547 300.493 739.196 328.643 790.323 355.729C858.239 391.508 927.585 420.811 999.714 451.79C1040.51 469.211 1079.81 487.362 1124.16 500.627C1195.45 521.843 1273.17 535.661 1348.36 547.133C1434.17 560.218 1526.52 570.971 1611.3 557.323" stroke="#DAEBF0" stroke-opacity="0.1" stroke-width="5" stroke-miterlimit="10"/>
<path d="M32.1039 260.168C95.869 239.48 163.78 228.485 236.378 228.447C308.36 228.37 372.151 244.064 442.446 251.269C484.25 255.624 517.435 239.206 558.149 241.168C594.549 242.865 627.496 257.068 657.182 270.66C705.924 292.948 752.007 318.218 798.337 342.82C899.401 396.234 1009.24 447.863 1126.66 483.548C1196.29 504.799 1272.35 518.924 1346.06 530.99C1431.6 545.016 1522.91 555.978 1607.35 541.078" stroke="#DAEBF0" stroke-opacity="0.1" stroke-width="5" stroke-miterlimit="10"/>
<path d="M46.4996 250.798C110.34 228.884 178.541 216.539 252.011 215.734C323.41 215.074 386.669 229.368 456.083 237.476C497.238 242.337 534.51 229.864 575.115 233.598C660.22 241.442 741.686 298.298 806.398 332.512C910.468 387.342 1016.38 432.302 1136.93 467.359C1205.62 487.321 1278.1 502.593 1350.1 515.511C1433.32 530.488 1521.31 541.792 1603.54 526.072" stroke="#DAEBF0" stroke-opacity="0.1" stroke-width="5" stroke-miterlimit="10"/>
<path d="M59.8004 242.454C124.35 219.08 193.456 205.423 268.801 204.323C336.715 203.312 398.712 214.655 464.927 224.481C509.482 231.057 553.719 222.705 598.043 229.677C679.327 242.62 750.818 290.655 815.35 324.448C877.878 357.296 940.636 389.749 1011.78 413.281C1055.84 427.896 1102.23 438.141 1147.68 450.242C1284.04 486.547 1456.58 541.358 1600.46 512.343" stroke="#DAEBF0" stroke-opacity="0.1" stroke-width="5" stroke-miterlimit="10"/>
<path d="M71.8017 235.125C201.257 185.936 331.391 189.307 476.514 213.844C522.85 221.623 570.68 218.554 616.488 228.216C694.062 244.485 760.186 285.899 823.527 318.934C883.87 350.417 944.369 382.73 1015.12 402.682C1063.36 416.324 1114.26 423.701 1163.45 435.349C1298.63 467.342 1454.55 530.839 1597.07 500.508" stroke="#DAEBF0" stroke-opacity="0.1" stroke-width="5" stroke-miterlimit="10"/>
<path d="M82.3057 228.66C207.438 179.342 340.416 176.734 482.716 203.558C530.013 212.491 579.553 215.134 626.099 226.209C702.322 244.311 767.44 281.969 831.218 314.621C890.592 345.087 949.069 376.729 1020.02 393.411C1073.69 406.019 1130.12 410.592 1184.28 421.999C1316.2 449.825 1454.53 520.991 1594.22 489.802" stroke="#DAEBF0" stroke-opacity="0.1" stroke-width="5" stroke-miterlimit="10"/>
<path d="M91.0906 223.321C213.791 173.305 349.914 166.515 491.25 195.605C541.552 205.954 593.487 213.258 642.33 227.21C713.874 247.621 775.973 280.717 837.985 311.893C895.989 341.18 952.487 371.469 1022.79 385.239C1081.27 396.776 1142.21 398.481 1200.94 409.349C1330.63 433.345 1453.79 513.012 1591.67 481.028" stroke="#DAEBF0" stroke-opacity="0.1" stroke-width="5" stroke-miterlimit="10"/>
<path d="M98.3702 218.983C219.247 168.445 357.446 158.089 498.45 189.21C551.759 200.975 605.907 212.519 656.645 229.186C723.559 251.09 783.806 280.79 843.856 310.34C901.105 338.487 955.633 367.286 1025.04 378.813C1088.13 389.266 1153.14 388.487 1216.24 398.667C1343.65 419.513 1453.35 506.694 1589.43 473.915" stroke="#DAEBF0" stroke-opacity="0.1" stroke-width="5" stroke-miterlimit="10"/>
<path d="M103.717 215.893C223.608 164.61 362.557 152.113 503.486 184.46C629.568 213.43 739.677 257.281 848.246 309.38C904.937 336.535 957.675 364.266 1026.57 374.12C1093.62 383.724 1162.29 380.571 1229.12 390.435C1354.81 408.987 1453 502.296 1587.89 468.76" stroke="#DAEBF0" stroke-opacity="0.1" stroke-width="5" stroke-miterlimit="10"/>
<path d="M106.933 213.903C226.669 161.79 365.053 148.437 506.359 181.355C630.994 210.373 742.503 258.276 850.745 308.987C907.076 335.299 958.597 362.682 1026.75 371.259C1096.73 380.086 1168.2 375.054 1238.13 384.835C1363.26 402.396 1452.11 500.053 1586.65 465.401" stroke="#DAEBF0" stroke-opacity="0.1" stroke-width="5" stroke-miterlimit="10"/>
<path d="M1463.57 464.789C1463.58 487.904 1446.22 511.999 1446.75 536.786C1447.13 560.88 1453.99 576.621 1482.65 593.432C1499.37 603.216 1523.47 613.864 1530.17 628.911C1534.52 638.617 1534.48 649.282 1539.02 659.272C1549.38 681.93 1567.04 703.26 1572.39 726.84C1580.3 762.477 1546.12 788.407 1531.58 820.198C1520.16 844.796 1529.68 874.377 1531.6 900.207C1534.11 936.468 1535.17 972.777 1527.2 1008.39" stroke="#DAEBF0" stroke-opacity="0.1" stroke-width="5" stroke-miterlimit="10"/>
<path d="M1427.27 451.337C1409.04 476.199 1390.21 500.477 1385.57 529.049C1384.25 537.037 1382.42 550.053 1386.26 557.949C1393.77 573.319 1418.69 580.6 1438.01 588.355C1460.15 597.242 1488.3 605.542 1499.65 622.243C1505.32 630.525 1504.85 641.574 1510.28 650.525C1523.73 673.101 1549.28 693.685 1553.12 718.403C1558.26 752.091 1515.24 777.477 1492.16 803.954C1465.74 834.33 1479.14 867.979 1482.39 902.234C1486.01 940.479 1488.59 978.932 1481.32 1016.64" stroke="#DAEBF0" stroke-opacity="0.1" stroke-width="5" stroke-miterlimit="10"/>
<path d="M1390.77 434.59C1360.25 458.011 1334.08 487.717 1323.72 518.535C1320.93 526.979 1316.75 538.073 1320.33 546.91C1326.94 563.32 1356.3 568.958 1377.95 575.627C1403.66 583.503 1443.42 590.877 1459.71 607.609C1469.41 617.508 1469.97 628.62 1477.95 639.643C1493.92 661.553 1527.93 681.975 1529.86 707.533C1532.81 743.411 1460.7 775.619 1434.52 802.18C1407.02 830.026 1424.9 871.201 1428.28 903.413C1432.61 943.615 1436.52 983.929 1429.74 1023.58" stroke="#DAEBF0" stroke-opacity="0.1" stroke-width="5" stroke-miterlimit="10"/>
<path d="M1352.69 416.652C1313.5 440.085 1275.91 474.422 1261.22 508.801C1257.86 516.39 1251.09 529.239 1255.36 536.888C1264.1 552.334 1310.03 560.088 1327.88 564.882C1350.2 570.771 1407.73 581.018 1423.91 596.239C1432.3 604.005 1433.47 618.438 1440.36 627.205C1456.42 647.616 1487.49 662.114 1496.38 685.228C1511.68 724.739 1415.75 762.044 1385.98 786.605C1367.51 801.879 1360.58 810.615 1361.81 830.795C1362.9 850.01 1367.46 869.575 1369.79 888.729C1375.42 934.619 1381.42 981.08 1373.87 1026.57" stroke="#DAEBF0" stroke-opacity="0.1" stroke-width="5" stroke-miterlimit="10"/>
<path d="M1311.04 399.724C1267.46 424.254 1223.75 457.529 1202.97 493.449C1198.82 500.579 1190.84 512.943 1193.62 521.32C1199.56 538.782 1234.17 542.694 1256.73 548.187C1288.42 555.885 1356.88 562.84 1377.04 583.776C1386.15 593.228 1385.52 603.447 1394.37 613.703C1411.89 633.93 1450.32 649.565 1454.16 674.283C1456.99 691.963 1434.24 706.289 1417.88 717.453C1390.76 735.886 1359.28 751.452 1332.16 769.884C1312.14 783.422 1297.28 793.584 1298.97 813.109C1300.87 835.792 1305.44 858.641 1308.38 881.251C1314.14 928.244 1320.88 976.254 1312.43 1022.92" stroke="#DAEBF0" stroke-opacity="0.1" stroke-width="5" stroke-miterlimit="10"/>
<path d="M1264.44 386.184C1218.8 410.587 1172.8 444.268 1149.53 480.445C1145.18 487.426 1135.96 499.85 1138.54 508.215C1143.85 525.775 1178.89 529.439 1201.45 534.932C1232.74 542.469 1303.26 549.414 1322.79 570.449C1331.49 579.875 1330.25 589.919 1338.48 600.41C1354.35 620.536 1390.48 636.713 1393.12 660.81C1395.13 678.44 1371.34 692.975 1355.19 704.015C1328.05 722.721 1296.95 738.72 1269.82 757.289C1250.01 770.839 1234.33 780.951 1235.81 800.463C1237.3 823.121 1241.67 845.957 1244.19 868.678C1249.32 915.906 1254.81 964.112 1246.16 1010.76" stroke="#DAEBF0" stroke-opacity="0.1" stroke-width="5" stroke-miterlimit="10"/>
<path d="M1210.22 379.149C1167.01 400.967 1126.86 436.65 1107.25 470.453C1103.1 477.583 1093.21 490.787 1096.67 498.249C1103.56 513.581 1148.66 521.421 1165.5 525.878C1185.79 531.368 1243.28 542.161 1257.22 556.97C1264.18 564.375 1262.83 579.609 1265.82 587.999C1272.85 607.717 1292.29 626.968 1293.3 647.409C1295.23 686.369 1228.62 723.02 1199.95 753.256C1185.18 768.757 1177.72 779.239 1177.6 797.969C1177.3 816.277 1180.27 834.924 1180.99 853.431C1182.61 897.433 1182.77 941.619 1174.73 985.025" stroke="#DAEBF0" stroke-opacity="0.1" stroke-width="5" stroke-miterlimit="10"/>
<path d="M1150.36 376.69C1116.89 397.741 1089.45 428.053 1074.25 457.204C1070.75 463.69 1062 478.469 1064.02 485.842C1068.23 501.282 1100.95 509.044 1118.51 515.323C1140.1 523.082 1175.68 531.429 1183.49 548.596C1186.94 556.194 1179.93 569.439 1178.44 576.869C1173.73 599.829 1171.46 623.213 1166.13 646.135C1158.3 679.57 1141.44 712.039 1130.75 745.024C1120.29 777.614 1121.83 809.439 1118.33 842.731C1114.67 878.748 1107.92 914.576 1098.73 949.978" stroke="#DAEBF0" stroke-opacity="0.1" stroke-width="5" stroke-miterlimit="10"/>
<path d="M1088.59 375.071C1069.47 397.553 1052.37 420.57 1042.56 445.951C1033.5 469.19 1031.85 482.491 1061.49 500.183C1075.41 508.563 1101.5 520.292 1102.68 534.589C1103.48 545.032 1091.18 557.13 1084.67 565.756C1066.28 589.787 1040.99 611.889 1028.46 637.922C1011.19 673.785 1044.78 717.706 1058.49 752.88C1079.69 807.115 1040.3 860.625 1020.07 911.212" stroke="#DAEBF0" stroke-opacity="0.1" stroke-width="5" stroke-miterlimit="10"/>
<path d="M1027.8 370.914C1029.23 391.243 1013.1 415.278 1008.35 435.5C1003.89 454.372 999.453 469.416 1011.72 487.816C1030.02 515.476 1020.21 530.873 992.858 552.984C963.115 577.137 901.626 604.393 891.598 636.598C880.349 671.875 952.306 715.699 981.948 743.375C996.576 756.996 1011.49 769.403 1006.94 786.219C1003.96 797.797 995.012 809.144 986.155 818.992C969.562 837.254 951.031 853.481 939.268 873.681" stroke="#DAEBF0" stroke-opacity="0.1" stroke-width="5" stroke-miterlimit="10"/>
<path d="M971.726 360.482C981.247 376.661 972.741 400.891 969.867 417.399C961.976 461.772 958.664 505.47 910.886 537.811C889.152 552.473 864.454 565.038 841.349 578.521C824.455 588.284 780.363 611.005 775.204 627.783C770.788 642.555 790.184 655.786 803.147 666.295C837.54 693.854 885.654 712.958 920.046 740.516C933.207 751.175 948.473 761.142 944.707 775.408C941.758 786.441 929.27 794.971 917.492 802.041C893.292 816.551 872.712 822.531 858.253 842.975" stroke="#DAEBF0" stroke-opacity="0.1" stroke-width="5" stroke-miterlimit="10"/>
<path d="M922.586 341.315C928.932 358.802 922.117 379.034 917.771 395.998C906.601 440.033 894.521 488.797 844.378 519.351C821.018 533.639 795.695 546.302 771.152 559.697C753.222 569.533 707.52 591.608 701.711 608.892C696.653 624.035 715.466 636.683 728.824 647.491C764.005 675.645 814.395 694.616 848.952 722.868C862.498 733.96 876.959 743.605 871.721 758.326C867.719 769.705 854.213 778.036 841.415 784.906C814.981 798.868 793.852 803.72 778.521 824.931" stroke="#DAEBF0" stroke-opacity="0.1" stroke-width="5" stroke-miterlimit="10"/>
<path d="M875.453 319.673C865.565 332.877 852.037 344.899 843.931 359.307C831.664 380.98 826.962 400.385 827.153 424.057C827.448 456.079 821.366 474.441 788.617 497.177C756.295 519.666 702.954 538.534 683.584 568.386C661.932 601.79 733.364 650.779 758.512 677.768C775.722 696.335 789.856 711.293 779.325 731.569C774.167 741.645 766.577 751.025 758.379 760.23C739.982 780.979 719.057 799.246 705.902 821.959" stroke="#DAEBF0" stroke-opacity="0.1" stroke-width="5" stroke-miterlimit="10"/>
<path d="M828.116 298.018C801.676 292.012 775.888 302.184 760.041 315.021C735.045 335.773 738.691 356.923 746.991 382.873C757.894 416.779 769.619 444.035 738.571 472.62C721.291 488.651 699.649 501.814 687.584 520.218C662.087 559.129 685.933 607.236 688.542 648.564C692.146 707.185 655.096 769.592 636.775 825.905" stroke="#DAEBF0" stroke-opacity="0.1" stroke-width="5" stroke-miterlimit="10"/>
<path d="M780.754 276.772C751.882 263.367 706.51 260.023 678.671 273.352C636.169 293.709 658.9 326.43 672.596 355.174C683.563 378.006 701.931 404.577 697.165 428.354C695.701 435.376 689.306 442.093 687.226 449.077C684.089 459.825 685.274 470.703 681.315 481.4C675.896 495.7 664.348 509.075 656.283 522.802C641.966 547.631 629.473 572.983 616.372 598.162C596.045 636.844 584.142 669.345 579.945 710.663C575.891 749.665 574.517 788.696 567.184 827.359" stroke="#DAEBF0" stroke-opacity="0.1" stroke-width="5" stroke-miterlimit="10"/>
<path d="M733.546 256.356C698.922 242.597 648.61 232.384 612.922 245.912C566.051 263.538 586.829 294.497 602.546 323.913C615.492 348.098 638.459 377.004 635.639 402.679C634.733 410.692 623.892 422.607 627.137 430.192C632.52 443.243 644.55 438.788 638.083 456.716C621.684 501.932 565.418 544.828 534.051 585.292C478.043 657.471 512.561 739.881 491.664 817.917" stroke="#DAEBF0" stroke-opacity="0.1" stroke-width="5" stroke-miterlimit="10"/>
<path d="M686.066 237.018C649.944 224.123 598.857 223.163 566.175 238.107C520.121 259.203 541.394 288.824 558.038 319.939C576.345 354.165 605.844 390.859 578.218 424.168C573.534 429.897 569.147 434.14 565.448 440.614C537.795 487.735 487.841 525.275 446.691 567.188C411.252 603.435 401.631 632.383 409.841 676.518C418.085 720.107 442.174 764.263 428.778 807.613" stroke="#DAEBF0" stroke-opacity="0.1" stroke-width="5" stroke-miterlimit="10"/>
<path d="M638.494 219.178C601.877 214.322 562.81 222.445 535.675 237.732C526.274 243.033 514.47 250.512 509.035 258.383C496.568 276.625 510.877 295.423 520.666 313.943C533.218 337.83 600.282 414.176 539.918 429.876C515.393 436.297 498.517 425.683 480.569 442.493C463.272 458.797 451.416 473.794 430.865 489.35C401 512.127 368.343 533.364 338.676 556.29C319.835 570.857 294.885 587.509 289.508 607.829C283.816 629.908 299.311 652.883 311.671 673.202C337.366 714.722 386.064 757.796 383.67 803.328" stroke="#DAEBF0" stroke-opacity="0.1" stroke-width="5" stroke-miterlimit="10"/>
<path d="M591.018 203.122C560.06 213.523 532.251 223.023 508.672 240.854C498.298 248.557 485.751 258.041 479.993 267.807C466.624 290.644 493.025 320.718 505.711 342.426C522.497 371.224 575.84 432.638 505.836 440.769C468.443 445.165 431.399 427.154 398.163 444.389C390.054 448.813 383.529 454.292 378.803 460.702C361.526 473.314 342.854 485.156 322.793 496.091C286.027 517.075 247.684 536.868 212.1 558.746C192.812 570.55 161.526 586.264 162.749 606.581C164.013 626.216 185.899 645.892 202.447 661.82C247.439 704.802 330.515 748.901 345.824 801.679" stroke="#DAEBF0" stroke-opacity="0.1" stroke-width="5" stroke-miterlimit="10"/>
<path d="M543.416 189.11C526.08 209.377 494.127 225.871 473.743 245.403C464.749 254.148 451.749 264.288 446.386 274.352C436.547 293.44 457.782 320.324 468.066 337.507C483.754 364.049 508.562 393.205 513.398 421.814C517.01 443.509 495.341 447.097 468.488 447.767C423.858 449.119 361.744 426.28 320.702 443.034C297.643 452.417 279.423 470.304 257.686 481.684C205.27 508.952 146.18 530.748 94.3396 558.736C72.7906 570.4 41.5516 582.015 49.4786 603.976C56.5044 623.829 90.0005 645.862 109.987 659.54C148.565 686.125 191.034 709.805 231.339 735.129C261.519 754.085 290.55 771.603 303.986 797.87" stroke="#DAEBF0" stroke-opacity="0.1" stroke-width="5" stroke-miterlimit="10"/>
<path d="M495.671 177.414C473.148 198.182 451.422 219.409 429.696 240.636C420.685 249.654 406.675 259.459 400.687 269.62C389.418 288.484 411.844 316.125 421.939 333.022C438.03 359.726 463.634 389.342 468.453 418.223C472.204 441.021 448.752 443.404 421.301 443.764C372.184 444.292 297.148 416.964 251.878 435.372C228.606 444.879 210.378 462.903 187.424 473.934C131.105 500.961 67.3736 521.104 11.8346 548.863C-10.0833 559.821 -43.205 571.867 -36.7162 593.739C-30.7345 613.802 9.70509 636.947 29.776 649.262C73.6955 676.177 122.156 699.679 168.026 725.072C200.73 743.227 234.348 759.933 246.459 787.622" stroke="#DAEBF0" stroke-opacity="0.1" stroke-width="5" stroke-miterlimit="10"/>
<path d="M447.741 168.715C421.793 188.178 399.392 210.321 376.433 231.472C367.036 240.056 351.991 249.933 346.027 259.687C335.22 277.757 355.814 305.012 365.104 321.587C379.601 347.372 401.805 375.273 406.495 402.915C410.237 425.849 386.819 427.688 359.136 428.444C309.772 429.641 240.023 406.878 194.418 424.035C170.555 433.095 151.316 450.783 128.362 461.814C74.3705 487.891 13.7461 507.815 -39.6712 534.611C-61.8029 545.692 -95.1049 557.316 -88.0165 579.499C-81.7958 599.03 -46.6477 621.027 -26.8158 633.875C12.8311 659.842 57.0025 682.67 98.377 707.376C129.609 725.987 159.495 743.01 172.701 769.673" stroke="#DAEBF0" stroke-opacity="0.1" stroke-width="5" stroke-miterlimit="10"/>
<path d="M399.627 163.014C372.71 181.46 349.735 202.883 326.407 223.328C316.377 232.147 301.784 241.368 294.571 251.318C279.898 271.886 300.706 299.017 311.165 320.04C328.06 353.769 367.755 405.725 292.02 409.81C242.563 412.505 180.655 396.38 136.258 414.022C105.815 426.096 79.9802 447.07 49.8563 460.668C10.1845 478.601 -31.2524 495.057 -69.9556 514.007C-90.1627 523.976 -127.972 538.468 -126.15 559.095C-124.269 578.769 -97.7627 597.088 -79.2728 611.631C-26.7421 652.753 69.2873 690.812 91.1197 744.813" stroke="#DAEBF0" stroke-opacity="0.1" stroke-width="5" stroke-miterlimit="10"/>
<path d="M351.508 160.732C322.931 179.349 298.278 201.216 273.282 221.968C264.371 229.352 251.309 237.163 244.796 245.788C232.455 261.986 237.401 275.421 243.937 293.193C257.326 330.261 296.384 379.169 221.915 389.487C177.607 395.645 117.048 384.391 79.1075 404.345C56.3006 416.342 38.4538 431.517 14.4225 443.302C-20.465 460.573 -57.3062 476.082 -92.005 493.637C-112.862 504.114 -147.95 517.953 -152.07 537.94C-156.479 559.277 -130.173 580.867 -112.417 597.279C-72.4151 634.21 -3.65275 669.631 6.6831 716.085" stroke="#DAEBF0" stroke-opacity="0.1" stroke-width="5" stroke-miterlimit="10"/>
<path d="M303.154 162.265C274.782 180.894 249.153 201.881 223.36 222.174C192.794 246.275 180.856 255.934 186.983 290.366C193.249 325.901 210.148 356.211 151.751 370.118C109.262 380.218 56.9459 375.762 23.1691 398.435C-25.02 430.751 -80.1856 455.798 -131.142 486.165C-179.104 514.801 -178.834 540.53 -148.023 579.356C-120.461 614.016 -76.6217 645.576 -77.0278 685.623" stroke="#DAEBF0" stroke-opacity="0.1" stroke-width="5" stroke-miterlimit="10"/>
<path d="M254.745 168.034C227.015 186.293 200.844 206.015 175.102 225.49C164.941 233.07 152.273 241.179 143.715 249.541C130.317 262.802 129.762 271.795 129.354 288.455C128.534 318.493 124.62 338.494 84.1058 353.366C47.596 366.843 7.39304 369.973 -22.3289 390.434C-60.0139 416.285 -99.2333 440.263 -138.717 465.183C-179.698 490.967 -199.562 515.455 -185.863 554.184C-173.383 589.281 -146.203 620.088 -155.456 656.445" stroke="#DAEBF0" stroke-opacity="0.1" stroke-width="5" stroke-miterlimit="10"/>
<path d="M206.067 178.163C179.415 195.668 153.551 213.768 128.081 232.166C106.502 247.658 83.8164 261.03 74.8876 282.089C64.2519 307.419 52.2457 324.869 20.9098 341.401C-7.64602 356.326 -42.6712 365.793 -66.1118 384.726C-99.1133 411.55 -136.278 435.655 -169.477 462.329C-195.287 482.895 -213.998 505.402 -216.944 533.121C-220.44 566.413 -210.249 598.497 -225.028 630.821" stroke="#DAEBF0" stroke-opacity="0.1" stroke-width="5" stroke-miterlimit="10"/>
<path d="M157.301 193.074C132.179 209.168 107.254 225.411 82.9209 242.101C39.6421 271.711 8.41356 306.576 -34.8484 335.913C-88.4427 372.272 -136.909 409.083 -183.556 449.836C-209.5 472.582 -232.899 497.535 -245.946 525.179C-259.446 553.478 -265.6 583.05 -280.726 610.976" stroke="#DAEBF0" stroke-opacity="0.1" stroke-width="5" stroke-miterlimit="10"/>
</g>
<path style="mix-blend-mode:color-dodge" d="M1061.23 514.95C1066.51 500.218 1017.91 478.191 952.687 465.751C887.462 453.311 830.309 455.169 825.033 469.901C819.756 484.633 868.354 506.66 933.579 519.1C998.805 531.54 1055.96 529.682 1061.23 514.95Z" fill="url(#paint0_radial_388_1394)"/>
<path style="mix-blend-mode:color-dodge" d="M468.893 446.226C477.392 422.495 398.965 386.985 293.72 366.913C188.475 346.841 96.2678 349.806 87.7684 373.537C79.269 397.268 157.696 432.778 262.941 452.85C368.186 472.923 460.393 469.957 468.893 446.226Z" fill="url(#paint1_radial_388_1394)"/>
<path style="mix-blend-mode:color-dodge" d="M778.374 633.836C782.273 622.95 746.18 606.639 697.759 597.404C649.337 588.169 606.924 589.507 603.025 600.393C599.126 611.279 635.219 627.59 683.64 636.825C732.061 646.06 774.475 644.722 778.374 633.836Z" fill="url(#paint2_radial_388_1394)"/>
<defs>
<radialGradient id="paint0_radial_388_1394" cx="0" cy="0" r="1" gradientUnits="userSpaceOnUse" gradientTransform="translate(1083.01 101.273) rotate(10.7978) scale(120.229 27.6613)">
<stop stop-color="#70CDDD"/>
<stop offset="1" stop-color="white" stop-opacity="0"/>
</radialGradient>
<radialGradient id="paint1_radial_388_1394" cx="0" cy="0" r="1" gradientUnits="userSpaceOnUse" gradientTransform="translate(418.777 18.3399) rotate(10.7978) scale(193.997 44.6332)">
<stop stop-color="#70CDDD"/>
<stop offset="1" stop-color="white" stop-opacity="0"/>
</radialGradient>
<radialGradient id="paint2_radial_388_1394" cx="0" cy="0" r="1" gradientUnits="userSpaceOnUse" gradientTransform="translate(831.38 224.323) rotate(10.7978) scale(89.2549 20.535)">
<stop stop-color="#70CDDD"/>
<stop offset="1" stop-color="white" stop-opacity="0"/>
</radialGradient>
</defs>
</svg>
