<svg width="259" height="675" viewBox="0 0 259 675" fill="none" xmlns="http://www.w3.org/2000/svg">
<g opacity="0.25">
<g clip-path="url(#clip0_388_1506)">
<path d="M116.639 617.739L116.088 510.055L475 508.219L475.551 615.904L116.639 617.739Z" fill="#380855" stroke="#EE227D" stroke-width="4" stroke-miterlimit="10"/>
<path style="mix-blend-mode:lighten" d="M176.345 618.692L175.781 508.491L474.994 506.961L475.557 617.162L176.345 618.692Z" fill="url(#paint0_linear_388_1506)"/>
<path d="M130.576 233.36L130.025 125.676L473.035 123.922L473.585 231.606L130.576 233.36Z" fill="#380855" stroke="#EE227D" stroke-width="4" stroke-miterlimit="10"/>
<path style="mix-blend-mode:lighten" d="M187.638 234.327L187.074 124.126L473.028 122.663L473.592 232.864L187.638 234.327Z" fill="url(#paint1_linear_388_1506)"/>
<path d="M23.8426 111.582L23.292 3.89738L472.409 1.60084L472.96 109.285L23.8426 111.582Z" fill="#380855" stroke="#EE227D" stroke-width="4" stroke-miterlimit="10"/>
<path style="mix-blend-mode:lighten" d="M98.5586 112.458L97.9951 2.2572L472.411 0.342642L472.974 110.544L98.5586 112.458Z" fill="url(#paint2_linear_388_1506)"/>
<path d="M3.33873 343.92L2.78809 236.235L473.597 233.828L474.147 341.512L3.33873 343.92Z" fill="#380855" stroke="#26E5D3" stroke-width="4" stroke-miterlimit="10"/>
<path style="mix-blend-mode:lighten" d="M3.33877 343.92L2.7832 235.272L473.592 232.864L474.147 341.512L3.33877 343.92Z" fill="url(#paint3_linear_388_1506)"/>
<path d="M63.3993 481.234L62.8486 373.55L474.3 371.446L474.851 479.13L63.3993 481.234Z" fill="#380855" stroke="#EE227D" stroke-width="4" stroke-miterlimit="10"/>
<path style="mix-blend-mode:lighten" d="M131.848 482.142L131.285 371.941L474.294 370.187L474.857 480.388L131.848 482.142Z" fill="url(#paint4_linear_388_1506)"/>
<path d="M178.304 517.628L177.753 409.943L474.489 408.426L475.04 516.111L178.304 517.628Z" fill="#380855" stroke="#26E5D3" stroke-width="4" stroke-miterlimit="10"/>
<path style="mix-blend-mode:lighten" d="M178.304 517.628L177.749 408.98L474.484 407.463L475.04 516.111L178.304 517.628Z" fill="url(#paint5_linear_388_1506)"/>
<path d="M213.183 179.584L212.632 71.8992L472.762 70.569L473.313 178.254L213.183 179.584Z" fill="#380855" stroke="#26E5D3" stroke-width="4" stroke-miterlimit="10"/>
<path style="mix-blend-mode:lighten" d="M213.183 179.576L212.627 70.9277L472.757 69.5975L473.313 178.246L213.183 179.576Z" fill="url(#paint6_linear_388_1506)"/>
</g>
</g>
<defs>
<linearGradient id="paint0_linear_388_1506" x1="535.468" y1="561.75" x2="16.8414" y2="564.402" gradientUnits="userSpaceOnUse">
<stop offset="0.06" stop-color="#EE227D"/>
<stop offset="0.21" stop-color="#C81C74" stop-opacity="0.8"/>
<stop offset="0.54" stop-color="#6C0F60" stop-opacity="0.29"/>
<stop offset="0.72" stop-color="#380855" stop-opacity="0"/>
</linearGradient>
<linearGradient id="paint1_linear_388_1506" x1="530.835" y1="177.474" x2="35.1897" y2="180.008" gradientUnits="userSpaceOnUse">
<stop offset="0.06" stop-color="#EE227D"/>
<stop offset="0.21" stop-color="#C81C74" stop-opacity="0.8"/>
<stop offset="0.54" stop-color="#6C0F60" stop-opacity="0.29"/>
<stop offset="0.72" stop-color="#380855" stop-opacity="0"/>
</linearGradient>
<linearGradient id="paint2_linear_388_1506" x1="548.007" y1="55.062" x2="-100.959" y2="58.3804" gradientUnits="userSpaceOnUse">
<stop offset="0.06" stop-color="#EE227D"/>
<stop offset="0.21" stop-color="#C81C74" stop-opacity="0.8"/>
<stop offset="0.54" stop-color="#6C0F60" stop-opacity="0.29"/>
<stop offset="0.72" stop-color="#380855" stop-opacity="0"/>
</linearGradient>
<linearGradient id="paint3_linear_388_1506" x1="568.59" y1="286.704" x2="-247.465" y2="290.877" gradientUnits="userSpaceOnUse">
<stop offset="0.06" stop-color="#26E5D3"/>
<stop offset="0.21" stop-color="#29B6B8" stop-opacity="0.79"/>
<stop offset="0.56" stop-color="#334175" stop-opacity="0.26"/>
<stop offset="0.72" stop-color="#380855" stop-opacity="0"/>
</linearGradient>
<linearGradient id="paint4_linear_388_1506" x1="543.584" y1="424.939" x2="-50.9551" y2="427.979" gradientUnits="userSpaceOnUse">
<stop offset="0.06" stop-color="#EE227D"/>
<stop offset="0.21" stop-color="#C81C74" stop-opacity="0.8"/>
<stop offset="0.54" stop-color="#6C0F60" stop-opacity="0.29"/>
<stop offset="0.72" stop-color="#380855" stop-opacity="0"/>
</linearGradient>
<linearGradient id="paint5_linear_388_1506" x1="118.327" y1="463.609" x2="632.662" y2="460.979" gradientUnits="userSpaceOnUse">
<stop offset="0.06" stop-color="#26E5D3"/>
<stop offset="0.21" stop-color="#29B6B8" stop-opacity="0.79"/>
<stop offset="0.56" stop-color="#334175" stop-opacity="0.26"/>
<stop offset="0.72" stop-color="#380855" stop-opacity="0"/>
</linearGradient>
<linearGradient id="paint6_linear_388_1506" x1="160.58" y1="125.519" x2="611.457" y2="123.214" gradientUnits="userSpaceOnUse">
<stop offset="0.06" stop-color="#26E5D3"/>
<stop offset="0.21" stop-color="#29B6B8" stop-opacity="0.79"/>
<stop offset="0.56" stop-color="#334175" stop-opacity="0.26"/>
<stop offset="0.72" stop-color="#380855" stop-opacity="0"/>
</linearGradient>
<clipPath id="clip0_388_1506">
<rect width="671.813" height="474" fill="white" transform="matrix(0.0051134 0.999987 0.999987 -0.0051134 0 2.42383)"/>
</clipPath>
</defs>
</svg>
