<svg width="496" height="1577" viewBox="0 0 496 1577" fill="none" xmlns="http://www.w3.org/2000/svg">
<g style="mix-blend-mode:soft-light" opacity="0.89">
<g style="mix-blend-mode:color-dodge">
<path d="M-643.915 513.818C-542.589 481.603 -438.582 468.204 -339.38 481.189C-255.5 506.611 -185.203 541.542 -118.348 582.432C-84.2053 606.298 -54.0096 628.783 -11.3317 666.225C33.1577 710.546 79.0929 763.519 121.642 817.143C194.51 922.625 234.573 971.139 312.624 1129.07C321.584 1130.57 325.195 1110.61 329.864 1084.1C340.286 1024.26 351.368 933.575 339.201 773.051C307.672 719.56 272.682 618.157 242.924 554.784C197.652 465.064 148.485 396.717 100.825 367.072C36.2575 334.222 -20.2909 338.77 -83.4833 327.537C-141.389 322.29 -196.309 307.517 -264.559 272.006C-291.439 260.76 -318.474 249.844 -346.361 245.638C-376.987 242.692 -406.556 249.099 -437.402 251.704C-478.623 257.633 -519.834 259.568 -561.78 273.891C-642.482 308.428 -720.325 363.406 -796.679 422.866C-842.223 461.016 -887.617 501.618 -933.76 544.32C-964.187 573.509 -995.885 605.717 -1029.5 636.493C-964.344 653.541 -798.41 577.573 -643.897 513.808L-643.915 513.818Z" stroke="#CFE9F0" stroke-width="4" stroke-miterlimit="10"/>
<path d="M-1022.34 640.093C-988.739 610.578 -957.158 579.178 -927.45 551.091C-884.448 511.827 -842.439 474.283 -800.168 438.805C-726.833 381.25 -651.958 328.32 -573.595 293.849C-526.742 277.34 -480.016 276.074 -433.96 270.053C-403.407 268.008 -374.483 262.652 -344.153 265.359C-315.628 269.467 -287.486 278.772 -259.607 288.802C-231.491 300.573 -203.206 313.543 -175.725 322.709C-141.419 336.364 -108.064 341.016 -78.3151 345.903C-16.8186 360.335 39.1821 363.657 101.342 397.514C148.761 428.677 197.297 495.762 243.195 583.299C274.786 648.352 308.479 740.956 340.947 800.869" stroke="#CFE9F0" stroke-width="4" stroke-miterlimit="10"/>
<path d="M-1013.82 642.331C-982.698 616.067 -953.595 587.496 -926.895 562.303C-889.211 527.792 -852.709 494.536 -815.787 462.743C-748.923 408.266 -679.562 356.905 -606.146 322.653C-549.406 301.291 -491.954 298.889 -436.385 292.008C-404.449 290.4 -374.099 285.887 -342.778 287.382C-312.865 290.478 -283.015 297.403 -253.517 305.508C-224.089 315.368 -194.684 326.901 -166.224 336.49C-133.097 349.771 -101.056 356.673 -71.4206 364.051C-12.8441 383.047 41.6211 395.562 100.165 432.125C147.39 467.107 195.434 531.151 241.866 614.464C275.231 679.453 308.92 764.533 342.166 828.139" stroke="#CFE9F0" stroke-width="4" stroke-miterlimit="10"/>
<path d="M-1004 643.245C-943.025 595.211 -886.336 534.822 -838.305 491.307C-780.073 441 -717.972 392.012 -651.084 358.303C-581.273 329.633 -509.965 323.758 -442.013 315.412C-375.425 314.846 -310.049 312.127 -246.755 322.2C-182.492 340.385 -122.102 362.913 -63.6778 382.113C-8.71425 406.118 43.5816 428.318 97.8672 467.913C145.212 508.211 192.576 567.935 239.439 646.184C274.397 709.928 308.828 788.73 342.902 854.702" stroke="#CFE9F0" stroke-width="4" stroke-miterlimit="10"/>
<path d="M-992.938 642.881C-942.696 605.242 -896.953 553.879 -861.03 519.607C-811.567 473.767 -756.839 428.332 -695.893 395.851C-613.521 359.938 -529.905 348.716 -450.413 338.444C-376.39 338.542 -307.237 332.909 -239.721 338.85C-178.993 351.199 -118.807 372.264 -60.3858 397.795C-6.71873 427.646 45.416 460.383 97.7248 504.725C144.209 550.131 189.326 603.546 235.186 674.627C271.929 737.082 307.792 811.413 343.194 880.336" stroke="#CFE9F0" stroke-width="4" stroke-miterlimit="10"/>
<path d="M-980.674 641.298C-939.086 611.908 -907.23 572.679 -881.774 546.626C-841.567 505.894 -794.253 465.525 -739.341 434.119C-643.647 388.968 -546.685 371.909 -454.95 359.455C-373.35 360.424 -304.046 352.757 -232.845 355.459C-172.48 364.327 -114.632 381.638 -53.1093 415.164C-3.13343 448.846 46.2786 490.259 94.5582 535.727C141.482 586.111 186.117 635.497 231.926 702.401C269.724 763.125 306.701 833.152 343.107 904.971" stroke="#CFE9F0" stroke-width="4" stroke-miterlimit="10"/>
<path d="M-967.263 638.545C-929.427 613.3 -911.174 586.292 -892.549 565.574C-859.956 529.121 -815.485 492.519 -764.191 462.44C-660.615 412.339 -556.278 390.936 -457.492 377.494C-413.638 376.801 -376.285 376.298 -337.335 372.773C-299.352 371.554 -262.919 370.483 -226.54 371.927C-164.631 379.09 -107.191 393.543 -40.8561 436.966C3.08553 471.721 46.6821 516.342 89.0441 558.81C136.557 612.569 181.842 660.527 227.601 724.374C266.458 784.167 305.066 851.969 342.731 928.436" stroke="#CFE9F0" stroke-width="4" stroke-miterlimit="10"/>
<path d="M-952.774 634.706C-914.441 609.888 -906.378 594.311 -890.987 575.758C-863.75 542.225 -816.861 505.922 -766.045 476.524C-656.309 424.797 -546.376 403.353 -442.203 391.235C-356.531 395.305 -291.289 387.413 -221.176 388.134C-162.842 394.172 -106.542 405.835 -41.7186 450.574C0.903096 485.741 42.9788 533.806 84.1066 575.647C173.753 684.13 257.251 777.667 342.034 950.646" stroke="#CFE9F0" stroke-width="4" stroke-miterlimit="10"/>
<path d="M-937.735 630.215C-900.439 606.734 -884.788 588.655 -864.606 568.813C-831.27 536.026 -786.282 502.531 -735.592 475.493C-631.085 430.835 -526.057 414.413 -426.615 406.276C-391.982 407.452 -358.535 409.275 -327.947 408.027C-290.373 408.435 -257.231 405.063 -223.733 404.339C-169.794 405.956 -116.381 417.374 -52.4885 460.75C-2.85293 501.515 46.3023 557.686 93.8547 607.333C178.533 712.453 260.777 801.802 341.04 971.453" stroke="#CFE9F0" stroke-width="4" stroke-miterlimit="10"/>
<path d="M-921.867 624.916C-882.776 601.281 -853.334 578.228 -823.607 555.611C-782.307 525.458 -738.281 496.299 -689.559 472.863C-596.889 437.428 -499.081 428.117 -409.632 425.555C-371.92 428.739 -333.314 434.051 -302.875 432.305C-276.569 431.659 -256.816 425.434 -235.8 420.77C-215.077 416.17 -193.074 411.879 -164.202 419.116C-135.649 427.763 -103.965 446.335 -74.0409 466.928C-7.9617 520.408 57.3239 594.454 119.747 664.435C163.903 721.091 206.089 770.827 246.86 826.483C277.383 871.6 308.843 921.545 339.933 991.167" stroke="#CFE9F0" stroke-width="4" stroke-miterlimit="10"/>
<path d="M-905.404 619.009C-859.378 592.426 -816.148 564.353 -775.237 539.173C-723.928 510.454 -673.188 483.853 -619.874 464.226C-536.202 441.946 -449.313 441.929 -368.504 446.355C-338.557 451.059 -303.572 458.616 -282.976 456.547C-264.7 454.793 -258.34 444.632 -249.479 436.003C-241.253 427.414 -231.099 417.934 -209.974 419.36C-179.479 422.488 -130.625 451.031 -96.9965 472.76C-11.964 540.267 71.5234 635.007 150.623 731.073C192.329 789.73 230.391 837.727 266.549 885.155C289.978 917.822 312.703 950.804 338.715 1009.59" stroke="#CFE9F0" stroke-width="4" stroke-miterlimit="10"/>
<path d="M-888.627 612.688C-774.214 553.698 -666.837 493.709 -564.629 462.183C-487.922 449.15 -409.353 455.117 -335.319 464.147C-310.453 469.526 -278.295 478.412 -263.997 476.572C-250.315 474.547 -256.632 459.667 -256.928 449.506C-257.084 437.937 -256.132 423.684 -232.016 425.92C-201.478 430.009 -156.341 454.71 -122.879 474.447C-22.2094 550.281 75.7528 659.857 168.42 778.096C209.494 839.503 246.246 890.788 278.359 929.112C297.309 952.645 312.909 970.844 337.285 1026.44" stroke="#CFE9F0" stroke-width="4" stroke-miterlimit="10"/>
<path d="M-871.708 606.101C-759.698 550.941 -643.442 492.664 -543.647 465.097C-473.851 455.102 -401.533 461.646 -333.644 471.131C-307.913 477.037 -267.883 488.878 -253.634 487.696C-240.642 486.271 -248.781 472.373 -250.988 462.189C-252.91 451.945 -253.835 439.086 -234.037 439.73C-205.045 441.503 -151.066 471.755 -118.49 491.462C-18.7869 567.95 78.1162 676.072 170.012 795.293C211.304 857.953 248.558 912.466 279.471 948.597C297.507 970.328 310.973 985.05 335.72 1041.74" stroke="#CFE9F0" stroke-width="4" stroke-miterlimit="10"/>
<path d="M-854.487 599.186C-797.969 570.595 -733.611 536.545 -681.261 512.917C-625.587 491.957 -572.081 474.455 -517.084 463.265C-452.547 456.355 -386.072 465.816 -323.159 476.088C-298.105 482.318 -267.774 491.103 -251.95 491.861C-237.211 492.512 -239.059 482.794 -236.869 475.619C-234.368 467.036 -229.307 458.338 -206.076 463.165C-176.11 470.719 -132.106 496.616 -99.8349 517.398C-7.22261 591.471 83.4807 693.781 169.107 804.459C208.508 863.504 242.822 912.625 273.595 951.452C293.313 977.303 308.741 997.559 334.13 1055.66" stroke="#CFE9F0" stroke-width="4" stroke-miterlimit="10"/>
<path d="M-837.127 592.061C-776.693 562.258 -707.309 527.088 -653.462 504.458C-593.71 484.053 -533.448 466.182 -472.546 458.698C-422.08 457.238 -372.968 467.654 -323.9 476.784C-299.31 483.121 -272.751 490.084 -254.425 492.87C-236.411 495.944 -229.156 492.25 -219.835 489.413C-192.138 478.419 -133.893 509.24 -74.1055 548.81C6.44097 616.339 85.9693 706.111 161.024 801.47C198.948 856.59 232.772 903.834 264.145 946.164C286.641 978.024 305.669 1006.84 332.443 1068.09" stroke="#CFE9F0" stroke-width="4" stroke-miterlimit="10"/>
<path d="M-819.828 584.867C-753.317 553.04 -676.145 516.304 -619.525 494.801C-560.169 477.035 -498.928 461.327 -437.312 457.174C-394.556 458.155 -358.574 470.227 -317.466 478.833C-267.801 493.693 -233.165 498.439 -202.121 503.426C-161.669 510.851 -113.621 535.071 -59.4861 572.124C11.4598 631.845 82.1697 710.122 148.926 792.309C187.011 845.504 221.598 893.081 254.697 939.7C280.11 977.618 302.349 1014.34 330.717 1079.08" stroke="#CFE9F0" stroke-width="4" stroke-miterlimit="10"/>
<path d="M-802.74 577.739C-734.744 546.352 -654.818 510.663 -598.161 490.926C-562.702 480.831 -528.071 472.449 -493.356 465.966C-466.297 462.156 -436.144 458.469 -407.101 458.881C-370.124 461.592 -351.605 471.724 -318.386 479.939C-273.263 494.5 -220.316 505.87 -185.867 517.111C-138.83 535.739 -90.2852 561.912 -38.5312 599.574C23.9598 654.094 86.8809 723.926 146.015 795.796C182.965 846.21 216.824 892.576 250.219 941.153C276.549 981.866 300.805 1024.63 329.005 1088.8" stroke="#CFE9F0" stroke-width="4" stroke-miterlimit="10"/>
<path d="M-785.991 570.744C-717.099 540.263 -633.114 505.783 -576.059 488.154C-540.027 479.385 -504.866 472.418 -469.551 467.461C-442.532 464.949 -413.371 462.813 -384.154 464.693C-349.089 469.032 -337.388 478.232 -306.83 486.31C-285.006 493.188 -263.213 497.923 -244.863 503.16C-220.697 511.009 -196.944 519.663 -173.371 529.304C-123.978 553.031 -76.331 580.548 -24.8249 619.842C33.4261 672.447 91.9326 737.563 147.456 805.943C182.616 854.201 214.42 897.649 246.55 945.197C273.371 987.38 298.983 1032.93 327.393 1097.36" stroke="#CFE9F0" stroke-width="4" stroke-miterlimit="10"/>
<path d="M-769.601 563.904C-701.02 534.378 -630.564 507.944 -570.111 490.889C-536.251 483.703 -503.265 478.209 -470.439 474.449C-444.446 472.692 -415.435 471.346 -387.706 473.275C-355.182 477.358 -339.99 484.347 -310.713 491.472C-288.611 497.932 -266.179 503.496 -248.307 508.769C-221.181 517.863 -195.426 527.249 -169.691 537.865C-123.866 559.707 -78.7243 585.921 -29.2496 622.815C20.6457 666.178 71.0796 718.874 119.512 774.917C185.749 863.096 258.754 958.81 325.764 1104.63" stroke="#CFE9F0" stroke-width="4" stroke-miterlimit="10"/>
<path d="M-753.839 557.372C-631.109 510.774 -518.422 483.892 -410.161 479.092C-375.992 481.857 -357.175 486.305 -325.85 492.319C-301.909 498.173 -279.376 504.057 -260.829 509.54C-229.413 520.128 -200.324 530.889 -171.108 543.075C-126.55 564.205 -82.4381 589.299 -33.2955 624.425C2.33101 653.385 38.5152 687.013 74.1819 723.502C151.806 815.259 246.166 945.004 324.07 1110.47" stroke="#CFE9F0" stroke-width="4" stroke-miterlimit="10"/>
<path d="M-738.64 551.102C-628.111 509.75 -526.178 486.934 -424.567 480.921C-388.93 483.061 -364.527 485.926 -331.071 491.609C-307.581 496.887 -286.906 502.697 -268.973 508.3C-234.099 520.65 -202.605 533.061 -170.825 547.005C-105.529 580.014 -32.6692 626.366 42.1622 691.388C86.4671 736.518 133.404 793.37 178.784 856.003C226.591 929.473 276.185 1016.03 322.481 1115.38" stroke="#CFE9F0" stroke-width="4" stroke-miterlimit="10"/>
<path d="M-724.096 545.155C-671.574 524.453 -617.89 506.733 -563.367 493.182C-508.583 484.251 -462.541 481.017 -411.705 481.44C-379.317 484.126 -353.993 486.789 -323.176 492.483C-300.327 497.894 -280.554 504.009 -263.136 509.986C-227.992 523.515 -196.506 537.072 -164.639 552.123C-122.71 573.993 -79.6386 600.459 -35.3377 631.195C-10.5138 650.042 13.007 668.604 39.9218 693.573C82.5697 736.885 128.842 792.969 172.832 853.259C221.93 928.219 273.667 1017.96 321.058 1119.44" stroke="#CFE9F0" stroke-width="4" stroke-miterlimit="10"/>
<path d="M-710.456 539.638C-657.305 519.294 -602.795 502.134 -547.095 489.489C-492.574 481.86 -447.14 480.155 -396.454 481.969C-366.712 485.211 -340.516 488.263 -311.836 494.255C-286.339 500.94 -265.06 508.456 -246.085 515.804C-215.075 529.013 -186.604 542.381 -157.888 556.944C-95.9365 592.165 -28.9218 637.932 42.5535 701.601C84.1558 744.537 129.279 799.53 172.31 858.473C221.169 932.891 272.314 1021.51 319.632 1122.5" stroke="#CFE9F0" stroke-width="4" stroke-miterlimit="10"/>
<path d="M-697.769 534.566C-644.558 514.722 -589.785 498.146 -533.468 486.352C-479.582 479.792 -434.585 479.233 -384.698 482.19C-355.503 486.047 -327.056 490.005 -298.658 496.813C-239.969 516.066 -191.152 540.244 -151.13 561.411C-87.6474 599.499 -23.0286 646.639 50.1852 714.535C90.9873 758.356 133.818 811.12 175.569 868.747C222.915 941.148 272.104 1026.5 318.33 1124.84" stroke="#CFE9F0" stroke-width="4" stroke-miterlimit="10"/>
<path d="M-686.163 529.972C-632.263 510.342 -576.663 494.178 -519.148 483.2C-468.014 477.896 -423.627 478.132 -376.598 481.972C-345.275 486.8 -312.523 492.391 -282.139 500.933C-227.105 521.229 -184.14 543.649 -144.552 565.621C-106.478 588.819 -68.4853 614.116 -24.6586 648.503C2.10678 671.662 30.4421 699.115 57.748 727.189C138.004 821.629 235.397 958.897 317.14 1126.57" stroke="#CFE9F0" stroke-width="4" stroke-miterlimit="10"/>
<path d="M-675.731 525.895C-567.838 490.291 -469.768 476.367 -366.716 482.004C-334.475 487.761 -299.883 494.915 -268.949 504.716C-217.243 525.475 -177.242 547.071 -138.396 569.524C-101.668 592.741 -65.2861 617.597 -21.5811 653.019C7.84311 679.492 39.1827 711.387 68.6854 743.141C148.015 840.973 234.836 961.825 316.069 1127.8" stroke="#CFE9F0" stroke-width="4" stroke-miterlimit="10"/>
<path d="M-666.581 522.368C-562.203 488.287 -461.222 474.141 -360.686 481.565C-327.953 487.979 -293.092 496.245 -261.902 506.771C-211.398 527.992 -171.823 549.79 -132.785 573.08C-96.7576 596.575 -61.6372 621.203 -17.6048 657.955C15.2839 688.628 50.1113 725.626 82.5046 762.164C159.694 861.857 235.335 966.038 315.147 1128.6" stroke="#CFE9F0" stroke-width="4" stroke-miterlimit="10"/>
<path d="M-658.837 519.411C-556.309 486.258 -452.532 472.122 -353.303 481.488C-318.771 489.001 -282.854 498.801 -250.682 510.698C-203.959 531.626 -165.807 552.998 -127.88 576.216C-92.6245 599.79 -58.8501 624.008 -15.0203 661.341C20.952 695.748 58.7366 737.077 93.8088 778.104C169.505 879.577 235.381 968.68 314.324 1129.06" stroke="#CFE9F0" stroke-width="4" stroke-miterlimit="10"/>
<path d="M-652.588 517.049C-551.428 484.582 -445.656 470.436 -347.35 481.418C-310.904 490.013 -274.21 501.225 -241.019 514.415C-197.747 534.798 -160.544 555.912 -123.826 578.851C-89.0783 602.534 -56.5251 626.321 -12.9478 663.991C25.9423 701.902 66.4621 747.204 104.13 792.605C178.365 895.187 235.586 971.002 313.667 1129.29" stroke="#CFE9F0" stroke-width="4" stroke-miterlimit="10"/>
<path d="M-647.941 515.315C-547.52 483.249 -440.86 469.178 -342.96 481.344C-257.737 506.545 -187.652 540.175 -120.774 580.828C-86.3424 604.62 -54.8273 627.959 -11.5294 665.742C29.91 706.65 72.7956 755.374 112.708 804.612C185.82 908.022 235.702 972.489 313.157 1129.31" stroke="#CFE9F0" stroke-width="4" stroke-miterlimit="10"/>
<path d="M-645.024 514.221C-544.606 482.258 -438.421 468.402 -340.268 481.262C-256.178 506.652 -185.602 541.278 -118.906 582.059C-84.6512 605.922 -53.9413 628.826 -10.9537 666.535C32.4152 709.671 77.1628 761.031 118.781 813.146C191.379 917.47 235.424 972.669 312.793 1129.22" stroke="#CFE9F0" stroke-width="4" stroke-miterlimit="10"/>
<path d="M287.284 1076.11C294.852 1087.91 290.947 1070.49 292.403 1067.8C294.453 1063.56 296.503 1058.29 302.129 1059.7C307.867 1060.51 308.05 1049.3 310.513 1041.06C313.491 1030.68 317.282 1020.87 319.408 1005.89C321.991 987.908 320.656 961.365 320.648 934.701C321.305 875.956 328.638 825.257 322.895 740.048" stroke="#CFE9F0" stroke-width="4" stroke-miterlimit="10"/>
<path d="M264.76 1032.99C270.542 1040.62 262.077 1014.51 262.669 1009.88C263.662 1002.32 266.611 999.593 278.081 1011.92C290.026 1024.46 289.611 1013.99 293.692 1007.59C297.95 1000.27 304.537 997.172 306.84 983.146C309.914 964.465 302.49 927.296 299.126 893.097C296.135 859.37 301.517 837.666 303.071 808.948C305.03 776.016 306.241 740.009 303.871 695.31" stroke="#CFE9F0" stroke-width="4" stroke-miterlimit="10"/>
<path d="M244.113 996.89C242.565 988.664 231.256 961.721 230.17 951.478C229.272 940.537 232.46 939.402 248.169 959.826C257.234 971.769 270.39 991.163 273.807 989.648C276.038 988.496 275.721 981.623 278.065 980.13C283.503 976.206 293.166 980.782 296.02 969.155C300.62 949.897 282.101 890.463 274.662 846.589C269.055 811.627 275.48 792.98 277.6 768.642C280.889 732.57 283.843 693.047 281.883 642.255" stroke="#CFE9F0" stroke-width="4" stroke-miterlimit="10"/>
<path d="M224.4 965.013C212.202 938.978 199.712 911.831 195.486 895.748C194.346 891.026 192.55 883.168 194.429 882.982C198.093 882.387 212.159 902.523 222.952 917.341C235.232 934.576 250.926 958.816 256.795 960.993C259.754 961.956 259.265 954.756 262.055 954.733C269.219 954.218 283.282 967.734 285.236 953.902C288.17 933.453 264.495 866.178 252.029 819.277C237.838 764.763 246.609 746.192 249.945 714.739C254.041 677.474 258.027 636.797 256.689 584.289" stroke="#CFE9F0" stroke-width="4" stroke-miterlimit="10"/>
<path d="M204.663 934.809C185.129 899.108 167.755 865.085 159.874 843.818C157.748 837.716 154.662 829.125 156.342 828.217C159.495 826.242 176.509 849.81 188.869 866.426C203.464 886.623 225.976 921.412 234.759 928.632C239.963 932.809 240.041 926.858 244.28 928.322C252.859 930.859 271.648 953.12 272.598 937.275C274.235 913.18 233.969 812.102 219.469 763.356C204.332 711.724 216.045 689.639 219.519 660.339C224.221 621.603 229.007 579.465 228.083 525.123" stroke="#CFE9F0" stroke-width="4" stroke-miterlimit="10"/>
<path d="M183.868 904.077C158.875 862.491 134.152 819.442 123.104 794.26C120.712 788.512 115.846 777.377 118.045 777.519C122.529 777.578 149.498 812.699 159.854 826.087C172.743 843.192 205.755 891.621 214.514 899.182C219.013 903.007 219.306 896.027 223.009 897.672C231.729 901.208 249.104 923.682 253.818 917.393C262.193 904.793 207.878 778.778 191.014 730.135C180.52 699.78 176.626 685.681 177.858 668.59C179.138 651.611 182.445 636.83 184.649 619.782C190.308 576.767 196.718 530.047 195.711 468.504" stroke="#CFE9F0" stroke-width="4" stroke-miterlimit="10"/>
<path d="M160.91 871.082C132.854 827.775 104.026 782.66 88.8953 753.908C85.9465 748.047 80.263 736.946 81.5289 735.659C84.2388 732.605 105.064 757.92 118.407 773.634C136.992 796.387 177.152 853.438 188.058 861.406C193.002 864.895 192.291 858.692 197.145 861.28C206.709 866.077 228.434 894.195 230.222 881.875C231.601 872.471 218.528 839.664 209.123 815.629C193.457 775.768 175.222 734.547 159.397 695.2C147.712 666.319 139.059 644.938 140.491 629.257C142.28 610.303 145.733 592.643 148.294 572.751C154.047 528.885 160.94 481.108 159.338 418.262" stroke="#CFE9F0" stroke-width="4" stroke-miterlimit="10"/>
<path d="M134.403 834.328C104.706 791.918 73.9336 747.724 57.0185 718.996C53.8186 713.324 47.4286 702.233 48.4849 700.762C50.7612 697.293 72.2036 721.311 85.6816 735.971C104.326 757.076 146.189 812.339 156.77 819.088C161.531 821.995 160.432 815.612 164.868 817.256C173.534 820.131 194.163 843.955 195.219 831.296C196.084 821.473 182.134 789.253 172.656 766.713C156.618 728.743 138.259 689.713 122.106 652.255C110.369 625.186 101.036 604.187 102.179 588.624C103.629 569.712 106.94 552.105 109.211 532.242C114.388 488.226 120.527 440.111 118.547 378.459" stroke="#CFE9F0" stroke-width="4" stroke-miterlimit="10"/>
<path d="M102.283 791.973C73.9309 754.675 46.1428 716.753 31.3243 692.696C28.2501 687.477 21.2197 676.137 22.8769 675.592C26.2974 674.233 53.8595 702.364 63.9718 712.625C76.1389 725.331 110.528 765.339 118.131 769.609C121.954 771.677 120.539 762.975 122.025 761.096C125.597 756.245 136.592 761.442 136.673 749.828C137.157 725.798 96.9557 645.026 79.5732 599.628C70.6873 576.065 66.2461 561.892 66.4224 545.844C66.683 529.547 68.9882 514.774 69.9949 498.006C72.774 455.681 75.1607 409.112 72.9434 354.094" stroke="#CFE9F0" stroke-width="4" stroke-miterlimit="10"/>
<path d="M65.933 747.573C43.196 719.592 23.5398 693.708 11.6501 675.195C9.01093 670.888 2.46159 660.311 3.22128 658.985C4.86643 655.927 25.0176 674.42 35.4988 683.708C48.4074 695.503 69.9066 717.739 73.9042 715.952C75.7141 715.011 70.7503 703.238 69.499 698.348C65.7346 682.735 63.563 667.786 59.7158 650.126C54.3409 622.884 43.6023 588.092 36.9957 555.826C30.7645 522.47 32.2538 496.205 30.9599 463.663C29.8941 426.379 27.3199 385.392 23.4873 341.112" stroke="#CFE9F0" stroke-width="4" stroke-miterlimit="10"/>
<path d="M27.5983 704.963C13.4986 687.94 0.692202 671.593 -7.57329 658.507C-15.0009 645.703 -17.0509 640.047 0.582701 651.91C8.89602 657.614 24.5506 670.033 24.5206 664.715C24.5254 660.644 16.1565 646.674 11.6788 638.273C-0.85761 614.258 -17.7476 586.308 -26.4547 563.6C-38.2366 530.69 -17.2417 520.274 -8.41919 502.06C5.76045 470.427 -17.7421 396.586 -28.6094 333.871" stroke="#CFE9F0" stroke-width="4" stroke-miterlimit="10"/>
<path d="M-10.3507 667.144C-11.3799 664.115 -23.7159 649.091 -28.4927 640.938C-32.8308 632.802 -36.705 625.462 -30.2051 626.132C-20.2791 626.355 -27.3551 614.111 -45.9675 588.299C-66.189 560.181 -107.398 514.428 -115.046 491.242C-123.159 463.973 -76.4314 469.214 -57.3188 464.433C-47.8524 461.915 -38.1569 460.519 -40.7905 444.006C-42.5561 432.448 -48.0652 417.47 -53.5818 403.853C-63.8672 378.167 -75.3356 353.24 -82.3574 327.679" stroke="#CFE9F0" stroke-width="4" stroke-miterlimit="10"/>
<path d="M-45.3733 636.239C-40.7607 638.862 -48.5256 629.197 -51.8466 623.723C-60.445 606.891 -65.5637 589.606 -98.5317 551.675C-113.513 534.653 -130.458 517.399 -146.534 500.615C-158.162 488.654 -188.808 459.366 -192.734 448.041C-196.143 437.699 -183.331 436.641 -174.72 434.945C-152.091 430.382 -120.197 438.164 -97.6603 434.157C-88.9573 432.572 -78.9698 432.525 -81.3473 418.86C-83.1349 408.184 -91.1609 394.565 -98.7022 382.747C-114.316 358.51 -127.873 343.745 -136.874 318.717" stroke="#CFE9F0" stroke-width="4" stroke-miterlimit="10"/>
</g>
</g>
</svg>
