<svg width="96" height="96" viewBox="0 0 96 96" fill="none" xmlns="http://www.w3.org/2000/svg">
<path d="M26.068 8.00005C24.29 8.0003 22.5381 8.42782 20.9598 9.24659C19.3816 10.0654 18.0232 11.2514 16.9991 12.7049C15.975 14.1583 15.3151 15.8366 15.0751 17.5983C14.8351 19.36 15.022 21.1536 15.62 22.8281L28.896 60.0001H67.104L80.384 22.8281C81.2093 20.5168 81.2451 17.9972 80.4858 15.6635C79.7265 13.3297 78.2149 11.3136 76.1876 9.93047C74.1603 8.54739 71.7317 7.87543 69.2818 8.01974C66.8319 8.16406 64.4989 9.11651 62.648 10.7281C60.6041 8.96066 57.9901 7.99178 55.288 8.00005C52.508 8.00005 49.968 9.00005 48 10.6681C45.9684 8.94033 43.3869 7.99427 40.72 8.00005C37.88 8.00005 35.32 9.04005 33.36 10.7281C31.3394 8.96656 28.7486 7.99735 26.068 8.00005ZM64.248 68.0001H31.752L32 68.6921V72.0001C32 76.2435 33.6857 80.3132 36.6863 83.3138C39.6869 86.3143 43.7565 88.0001 48 88.0001C52.2435 88.0001 56.3131 86.3143 59.3137 83.3138C62.3143 80.3132 64 76.2435 64 72.0001V68.6921L64.248 68.0001Z" fill="#F0F0F0"/>
</svg>
