<svg width="96" height="96" viewBox="0 0 96 96" fill="none" xmlns="http://www.w3.org/2000/svg">
<path d="M9.36 58.5201C11.76 57.6401 14.24 57.2001 16.88 57.2001C22.24 57.2001 26.92 58.8801 30.92 62.2401L18.36 74.8001C14.1919 70.1065 11.1179 64.546 9.36 58.5201ZM62.24 39.2001C70.12 45.0801 78.64 46.5201 87.76 43.5201C87.88 44.3601 88 45.8801 88 48.0001C88 52.1201 87 56.7201 85.12 61.8001C83.24 66.8401 80.92 70.9201 78.2 74.0001L52.88 48.7601L62.24 39.2001ZM35.08 66.5601C39.32 72.6801 40.2 79.3601 37.68 86.6401C32 85.0001 26.92 82.4401 22.68 78.9201L35.08 66.5601ZM48.76 52.8801L74 78.2001C65.32 85.8001 55.12 89.0001 43.52 87.7601C44.36 85.1201 44.8 82.2401 44.8 79.1201C44.8 76.6401 44.24 73.7201 43.12 70.4001C42 67.0801 40.68 64.3601 39.2 62.2401L48.76 52.8801ZM35.24 58.0001C31.5942 54.741 27.1263 52.5416 22.32 51.6401C17.44 50.7201 12.76 51.0001 8.24 52.5201C8.12 51.6401 8 50.1201 8 48.0001C8 43.8801 9 39.2801 10.88 34.2001C12.76 29.1601 15.08 25.0801 17.8 22.0001L44.44 48.7601L35.24 58.0001ZM62.24 30.9201C56.88 24.3201 55.64 17.1201 58.52 9.36006C61 10.0001 63.84 11.2001 67.04 13.0401C70.2 14.8401 72.8 16.6401 74.8 18.3601L62.24 30.9201ZM86.64 37.5201C84.24 38.3601 81.76 38.8001 79.12 38.8001C74.76 38.8001 70.56 37.5201 66.56 34.8801L78.92 22.6801C82.44 27.0801 85 32.0001 86.64 37.5201ZM48.76 44.4401L22 17.8001C30.68 10.2001 40.88 7.00006 52.52 8.24006C51.64 10.8801 51.2 13.7601 51.2 16.8801C51.2 19.7601 51.84 23.0001 53.16 26.6401C54.48 30.2401 56 33.1201 58 35.2401L48.76 44.4401Z" fill="#F0F0F0"/>
</svg>
