<svg width="96" height="96" viewBox="0 0 96 96" fill="none" xmlns="http://www.w3.org/2000/svg">
<path d="M44 52H52V60H44M44 36H52V44H44M44 68H52C54.1217 68 56.1566 67.1571 57.6569 65.6569C59.1571 64.1566 60 62.1217 60 60V54C60 52.4087 59.3679 50.8826 58.2426 49.7574C57.1174 48.6321 55.5913 48 54 48C55.5913 48 57.1174 47.3679 58.2426 46.2426C59.3679 45.1174 60 43.5913 60 42V36C60 33.8783 59.1571 31.8434 57.6569 30.3431C56.1566 28.8429 54.1217 28 52 28H44C41.8783 28 39.8434 28.8429 38.3431 30.3431C36.8429 31.8434 36 33.8783 36 36V42C36 43.5913 36.6321 45.1174 37.7574 46.2426C38.8826 47.3679 40.4087 48 42 48C40.4087 48 38.8826 48.6321 37.7574 49.7574C36.6321 50.8826 36 52.4087 36 54V60C36 62.1217 36.8429 64.1566 38.3431 65.6569C39.8434 67.1571 41.8783 68 44 68ZM48 4C23.68 4 4 23.68 4 48C4 72.32 23.68 92 48 92C72.32 92 92 72.32 92 48C92 23.68 72.32 4 48 4ZM48 76C40.5739 76 33.452 73.05 28.201 67.799C22.95 62.548 20 55.4261 20 48C20 40.5739 22.95 33.452 28.201 28.201C33.452 22.95 40.5739 20 48 20C55.4261 20 62.548 22.95 67.799 28.201C73.05 33.452 76 40.5739 76 48C76 55.4261 73.05 62.548 67.799 67.799C62.548 73.05 55.4261 76 48 76Z" fill="#F0F0F0"/>
</svg>
