<svg width="72" height="96" viewBox="0 0 72 96" fill="none" xmlns="http://www.w3.org/2000/svg">
<g clip-path="url(#clip0_511_290)">
<path d="M3.56251 51.0881L11.1806 54.4744C11.9129 54.7999 12.703 54.9753 13.5042 54.9905C14.3054 55.0056 15.1016 54.8601 15.8456 54.5625L18.2419 53.6025C19.0794 53.2674 19.8306 52.7478 20.4396 52.0824C21.0486 51.4169 21.4997 50.6227 21.7594 49.7588L23.4881 44.0119C23.6455 43.382 23.9372 42.7936 24.3434 42.287C24.7496 41.7805 25.2606 41.3679 25.8413 41.0775L29.9888 39V48.4369C29.9891 50.1084 29.5239 51.7471 28.6453 53.1691C27.7667 54.5912 26.5094 55.7404 25.0144 56.4881L14.2856 61.86C11.795 63.1067 9.70074 65.0223 8.23734 67.3921C6.77394 69.7619 5.99924 72.4923 6.00001 75.2775V78H65.9738V42C65.9738 22.125 49.8638 6 29.9888 6H2.25001C1.65328 6 1.08098 6.23705 0.659023 6.65901C0.237066 7.08097 1.35313e-05 7.65326 1.35313e-05 8.25C-0.000291744 8.74342 0.114635 9.23009 0.335639 9.67125L3.00001 15L1.31251 16.6875C0.894989 17.1065 0.56416 17.6037 0.338949 18.1506C0.113737 18.6975 -0.00143694 19.2835 1.35313e-05 19.875V45.6019C-0.00069817 46.763 0.335509 47.8994 0.967858 48.8732C1.60021 49.847 2.50153 50.6164 3.56251 51.0881ZM9.75001 24C10.4917 24 11.2167 24.2199 11.8334 24.632C12.4501 25.044 12.9307 25.6297 13.2146 26.3149C13.4984 27.0002 13.5727 27.7542 13.428 28.4816C13.2833 29.209 12.9261 29.8772 12.4017 30.4016C11.8772 30.9261 11.209 31.2833 10.4816 31.4279C9.75417 31.5726 9.00017 31.4984 8.31495 31.2145C7.62973 30.9307 7.04406 30.4501 6.632 29.8334C6.21995 29.2167 6.00001 28.4917 6.00001 27.75C6.00001 26.7554 6.3951 25.8016 7.09836 25.0984C7.80163 24.3951 8.75545 24 9.75001 24ZM69 84H3.00001C2.20436 84 1.4413 84.3161 0.878693 84.8787C0.316084 85.4413 1.35313e-05 86.2044 1.35313e-05 87V93C1.35313e-05 93.7956 0.316084 94.5587 0.878693 95.1213C1.4413 95.6839 2.20436 96 3.00001 96H69C69.7957 96 70.5587 95.6839 71.1213 95.1213C71.684 94.5587 72 93.7956 72 93V87C72 86.2044 71.684 85.4413 71.1213 84.8787C70.5587 84.3161 69.7957 84 69 84Z" fill="#F0F0F0"/>
</g>
<defs>
<clipPath id="clip0_511_290">
<rect width="72" height="96" fill="white"/>
</clipPath>
</defs>
</svg>
