<svg width="96" height="96" viewBox="0 0 96 96" fill="none" xmlns="http://www.w3.org/2000/svg">
<path d="M72.104 15.6081C71.8036 15.0876 71.3898 14.6414 70.8932 14.3028C70.3967 13.9641 69.8303 13.7417 69.236 13.6521C67.596 13.6521 65.824 14.9481 63.928 16.3441C63.4587 16.6908 62.9827 17.0348 62.5 17.3761C60.332 18.8841 57.844 20.2561 55.716 20.6881C52.396 21.3681 48.584 20.4121 45.528 19.0481C42.048 17.4441 40.036 21.1361 38.48 23.9921C38.188 24.5241 37.912 25.0321 37.648 25.4681C36.488 27.3601 35.028 29.6161 33.368 31.8921C32.7056 31.8311 32.0384 31.9363 31.4269 32.1982C30.8154 32.46 30.2789 32.8702 29.8659 33.3917C29.4528 33.9131 29.1764 34.5293 29.0615 35.1845C28.9466 35.8397 28.997 36.5133 29.208 37.1441C27.976 38.6561 26.8067 40.1054 25.7 41.4921C24.9325 41.2755 24.1178 41.2932 23.3605 41.543C22.6031 41.7928 21.9377 42.2633 21.4497 42.894C20.9617 43.5247 20.6734 44.2869 20.6218 45.0827C20.5702 45.8785 20.7576 46.6716 21.16 47.3601C16.872 53.0921 13.92 57.7521 12.216 61.9001C10.776 65.4201 10.16 68.7121 10.428 72.0681C10.696 75.3761 11.796 78.4561 13.336 81.5721C15.424 85.7921 20.544 86.9481 24.292 84.7841L83.18 50.7841C85.0174 49.7232 86.3581 47.9759 86.9072 45.9265C87.4563 43.8771 87.1688 41.6935 86.108 39.8561L84.108 36.3921L59.86 50.3921C58.9418 50.9142 57.8543 51.0518 56.8349 50.7751C55.8156 50.4983 54.947 49.8296 54.4189 48.9149C53.8908 48.0001 53.7459 46.9136 54.0159 45.8924C54.2858 44.8712 54.9488 43.9983 55.86 43.4641L80.108 29.4641L72.104 15.6081Z" fill="#F0F0F0"/>
</svg>
