<svg width="96" height="96" viewBox="0 0 96 96" fill="none" xmlns="http://www.w3.org/2000/svg">
<path d="M48 32H16C13.8783 32 11.8434 32.8429 10.3431 34.3431C8.84285 35.8434 8 37.8783 8 40V56C8 58.1217 8.84285 60.1566 10.3431 61.6569C11.8434 63.1571 13.8783 64 16 64H20V80C20 81.0609 20.4214 82.0783 21.1716 82.8284C21.9217 83.5786 22.9391 84 24 84H32C33.0609 84 34.0783 83.5786 34.8284 82.8284C35.5786 82.0783 36 81.0609 36 80V64H48L68 80V16L48 32ZM86 48C86 54.84 82.16 61.04 76 64V32C82.12 35 86 41.2 86 48Z" fill="#F0F0F0"/>
</svg>
