<svg width="96" height="96" viewBox="0 0 96 96" fill="none" xmlns="http://www.w3.org/2000/svg">
<path d="M47.8182 6.34003C47.4744 6.33778 47.1306 6.33966 46.7869 6.34566C45.525 6.37191 44.2628 6.4591 43.0078 6.59766C43.0703 6.62878 43.1098 6.65766 43.096 6.67978L38.3963 14.0744L52.2538 23.3438L52.2304 23.3791L65.4726 23.4316L69.5625 14.8655L64.2833 9.7501C61.3076 8.47442 58.1954 7.54458 55.0077 6.97885C52.6358 6.55885 50.227 6.34885 47.8183 6.34003H47.8182ZM35.7951 16.547L21.9846 23.4432L19.3947 41.8945L29.0217 48.2052L46.7113 40.0606L49.5004 25.7168L35.7953 16.547H35.7951ZM72.6096 16.6115L68.6252 24.9552L75.5158 38.5902L87.1527 45.8849L89.2737 41.8945C89.3158 41.9213 89.358 41.9701 89.3967 42.0352C89.2523 41.1063 89.076 40.1802 88.8698 39.2635C87.6612 33.9029 85.3842 28.7707 82.2135 24.2692C80.5129 21.8557 78.5524 19.6233 76.3832 17.6129L72.6098 16.6113L72.6096 16.6115ZM15.8616 20.924C14.5667 22.4324 13.3759 24.029 12.3107 25.7052C9.37147 30.3297 7.35322 35.5478 6.41628 40.9512C5.95994 43.5879 5.75776 46.2623 5.81253 48.9376L9.60941 49.8927L15.8025 42.299L18.5157 22.9745L15.8616 20.924ZM74.4964 42.0822L64.0315 50.4728L63.3808 69.4278L70.8107 73.3889L85.2835 64.09L86.1096 49.3244L86.092 49.3538L74.4962 42.082L74.4964 42.0822ZM48.0882 43.2833L30.457 51.4044L30.2286 65.7715L46.9452 76.5295L59.871 69.6976L60.5155 50.6195L48.088 43.2833H48.0882ZM6.0469 52.6115C6.21753 54.1932 6.47628 55.7645 6.82615 57.3166C8.03459 62.6772 10.3174 67.8091 13.4884 72.3106C14.2146 73.3419 14.9922 74.3365 15.8085 75.299L14.0509 66.2697L14.0742 66.2637L9.00603 53.3555L6.0469 52.6115ZM28.0197 68.5197L18.3574 70.049L20.2558 79.8166C21.8635 81.2217 23.5756 82.5027 25.3772 83.6485C28.1231 85.3915 31.0604 86.8129 34.131 87.8849L45.8734 85.318L45.0589 79.4823L28.0198 68.5192L28.0197 68.5197ZM84.7266 68.6135L72.6853 76.3478L64.8103 85.2307L65.6368 86.3849C67.8919 85.3452 70.0562 84.1079 72.088 82.6874C76.5823 79.5449 80.4512 75.5054 83.3905 70.8805C83.8611 70.1405 84.3036 69.3824 84.7264 68.6133L84.7266 68.6135ZM61.7053 86.924L46.7166 88.7287L41.8476 89.789C46.9088 90.539 52.107 90.3597 57.0938 89.2615C58.8585 88.873 60.597 88.3634 62.2969 87.7499L61.7052 86.9238L61.7053 86.924Z" fill="#F0F0F0"/>
</svg>
