<svg width="96" height="96" viewBox="0 0 96 96" fill="none" xmlns="http://www.w3.org/2000/svg">
<path d="M48.584 66.384C48.966 66.753 49.2708 67.1944 49.4804 67.6824C49.69 68.1704 49.8004 68.6953 49.805 69.2264C49.8096 69.7576 49.7084 70.2843 49.5073 70.7759C49.3062 71.2674 49.0092 71.7141 48.6336 72.0896C48.258 72.4652 47.8114 72.7622 47.3198 72.9633C46.8282 73.1645 46.3015 73.2657 45.7704 73.261C45.2393 73.2564 44.7144 73.1461 44.2264 72.9364C43.7384 72.7268 43.297 72.4221 42.928 72.04L37.272 66.384L25.96 77.7C26.71 78.4506 27.1312 79.4684 27.1308 80.5295C27.1304 81.5905 26.7086 82.608 25.958 83.358C25.2074 84.1081 24.1897 84.5292 23.1286 84.5289C22.0675 84.5285 21.05 84.1066 20.3 83.356L14.644 77.7C13.8934 76.95 13.4716 75.9325 13.4712 74.8715C13.4708 73.8104 13.892 72.7926 14.642 72.042C15.392 71.2915 16.4095 70.8696 17.4706 70.8692C18.5317 70.8689 19.5494 71.29 20.3 72.04L31.616 60.728L25.96 55.072C25.2314 54.3176 24.8282 53.3072 24.8373 52.2584C24.8464 51.2097 25.2671 50.2064 26.0087 49.4648C26.7504 48.7231 27.7536 48.3025 28.8024 48.2933C29.8512 48.2842 30.8616 48.6874 31.616 49.416L48.584 66.384ZM51.416 63.556L34.44 46.584L68.384 12.644L82.528 15.472L85.356 29.616L51.416 63.556Z" fill="#F0F0F0"/>
</svg>
