<svg width="96" height="96" viewBox="0 0 96 96" fill="none" xmlns="http://www.w3.org/2000/svg">
<path d="M14.8571 21.7065L9.51151 34.4309H85.6646L85.6134 21.7067H36.1453V32.1327H33.3328V21.7067H30.2053V32.1327H27.3938V21.7067H24.1249V32.1327H21.3124V21.7067L14.8571 21.7065ZM87.576 24.699V32.3228H91.08V24.699H87.576ZM10.644 37.2432L14.5001 43.246L5.41763 76.2188L24.4826 77.5639L28.5214 59.1897H50.2226L52.9721 44.1424L85.7003 43.4162L85.6759 37.2434H10.6438L10.644 37.2432ZM49.395 44.2219L47.3006 55.686H29.2913L31.725 44.6142L34.0744 44.562L33.6574 51.2183L36.3315 53.7638L36.5196 47.4544L41.1489 44.4049L49.3952 44.2219H49.395Z" fill="#F0F0F0"/>
</svg>
