<svg width="1440" height="136" viewBox="0 0 1440 136" fill="none" xmlns="http://www.w3.org/2000/svg">
<path d="M716.366 10.6794H-16.3389V16.0166H716.366V10.6794Z" fill="url(#paint0_linear_869_260)"/>
<path d="M721 0H-26V10.6795H721V0Z" fill="#F37669"/>
<path d="M10.7143 16.2217H-10.5391V129.646H10.7143V16.2217Z" fill="url(#paint1_linear_869_260)"/>
<path d="M30.5345 129.41C30.628 123.447 30.7276 117.48 30.8211 111.517C31.0765 99.9248 31.3256 88.3276 31.581 76.7355C31.3879 68.8605 31.1948 60.9855 31.0017 53.1105C31.3692 50.2752 32.7832 42.9796 39.66 36.2017C45.4405 30.5056 52.1865 28.0396 55.4256 27.0603C60.7514 28.1934 68.2573 30.5518 74.2123 35.9607C84.2534 45.0867 83.6118 57.3812 83.4872 70.2602C83.2755 92.1934 83.0886 110.568 82.7896 129.646C97.5336 129.564 112.278 129.477 127.022 129.395C127.252 95.1209 127.483 60.8471 127.719 26.5732H10.7139C11.3056 60.8624 11.9036 95.1516 12.4954 129.441C18.5063 129.431 24.5173 129.42 30.5345 129.41Z" fill="url(#paint2_linear_869_260)"/>
<path d="M26.2299 129.431C27.6626 129.425 29.1015 129.415 30.5341 129.41C30.9702 99.4685 31.5868 75.6076 31.5121 59.0424C31.4934 54.5306 31.4 45.6302 38.2581 37.7039C43.4718 31.6746 50.6102 28.6292 55.4252 27.0654C40.0209 26.9373 24.6166 26.8091 9.20605 26.6809C9.61717 60.9701 10.0283 95.2593 10.4394 129.549C15.6842 129.497 20.9477 129.456 26.2299 129.431Z" fill="#132B43"/>
<path d="M145.279 129.41C145.372 123.447 145.472 117.48 145.565 111.517C145.821 99.9248 146.07 88.3276 146.325 76.7355C146.132 68.8605 145.939 60.9855 145.746 53.1105C146.113 50.2752 147.527 42.9796 154.404 36.2017C160.185 30.5056 166.931 28.0396 170.17 27.0603C175.496 28.1934 183.001 30.5518 188.956 35.9607C198.998 45.0867 198.356 57.3812 198.231 70.2602C198.02 92.1934 197.833 110.568 197.534 129.646C212.278 129.564 227.022 129.477 241.766 129.395C241.996 95.1209 242.227 60.8471 242.463 26.5732H125.458C126.05 60.8624 126.648 95.1516 127.24 129.441C133.25 129.431 139.261 129.42 145.279 129.41Z" fill="url(#paint3_linear_869_260)"/>
<path d="M140.974 129.431C142.407 129.425 143.846 129.415 145.278 129.41C145.714 99.4685 146.331 75.6076 146.256 59.0424C146.238 54.5306 146.144 45.6302 153.002 37.7039C158.216 31.6746 165.354 28.6292 170.169 27.0654C154.765 26.9373 139.361 26.8091 123.95 26.6809C124.361 60.9701 124.772 95.2593 125.184 129.549C130.428 129.497 135.692 129.456 140.974 129.431Z" fill="#132B43"/>
<path d="M261.262 129.61C261.356 123.647 261.455 117.679 261.549 111.717C261.804 100.125 262.053 88.5273 262.309 76.9353C262.115 69.0602 261.922 61.1852 261.729 53.3102C262.097 50.4749 263.511 43.1793 270.388 36.4014C276.168 30.7053 282.914 28.2393 286.153 27.26C291.479 28.3931 298.985 30.7515 304.94 36.1604C314.981 45.2864 314.339 57.5809 314.215 70.4599C314.003 92.3931 313.816 110.768 313.517 129.846C328.261 129.764 343.005 129.676 357.749 129.594C357.98 95.3206 358.21 61.0468 358.447 26.7729H241.441C242.033 61.0621 242.631 95.3513 243.223 129.641C249.234 129.63 255.245 129.62 261.262 129.61Z" fill="url(#paint4_linear_869_260)"/>
<path d="M256.958 129.63C258.391 129.625 259.83 129.615 261.263 129.61C261.699 99.6683 262.315 75.8073 262.241 59.2421C262.222 54.7303 262.128 45.8299 268.987 37.9036C274.2 31.8743 281.339 28.8289 286.154 27.2651C270.749 27.137 255.345 27.0088 239.935 26.8806C240.346 61.1698 240.757 95.459 241.168 129.748C246.413 129.697 251.676 129.656 256.958 129.63Z" fill="#132B43"/>
<path d="M378.666 129.41C378.76 123.447 378.859 117.48 378.953 111.517C379.208 99.9248 379.457 88.3276 379.713 76.7355C379.52 68.8605 379.327 60.9855 379.134 53.1105C379.501 50.2752 380.915 42.9796 387.792 36.2017C393.572 30.5056 400.318 28.0396 403.557 27.0603C408.883 28.1934 416.389 30.5518 422.344 35.9607C432.385 45.0867 431.744 57.3812 431.619 70.2602C431.407 92.1934 431.22 110.568 430.921 129.646C445.665 129.564 460.409 129.477 475.154 129.395C475.384 95.1209 475.614 60.8471 475.851 26.5732H358.846C359.437 60.8624 360.035 95.1516 360.627 129.441C366.638 129.431 372.649 129.42 378.666 129.41Z" fill="url(#paint5_linear_869_260)"/>
<path d="M374.363 129.431C375.795 129.425 377.234 129.415 378.667 129.41C379.103 99.4685 379.72 75.6076 379.645 59.0424C379.626 54.5306 379.533 45.6302 386.391 37.7039C391.605 31.6746 398.743 28.6292 403.558 27.0654C388.154 26.9373 372.749 26.8091 357.339 26.6809C357.75 60.9701 358.161 95.2593 358.572 129.549C363.817 129.497 369.081 129.456 374.363 129.431Z" fill="#132B43"/>
<path d="M495.448 129.41C495.541 123.447 495.641 117.48 495.734 111.517C495.99 99.9248 496.239 88.3276 496.494 76.7355C496.301 68.8605 496.108 60.9855 495.915 53.1105C496.282 50.2752 497.696 42.9796 504.573 36.2017C510.354 30.5056 517.1 28.0396 520.339 27.0603C525.665 28.1934 533.17 30.5518 539.125 35.9607C549.166 45.0867 548.525 57.3812 548.4 70.2602C548.189 92.1934 548.002 110.568 547.703 129.646C562.447 129.564 577.191 129.477 591.935 129.395C592.165 95.1209 592.396 60.8471 592.632 26.5732H475.627C476.219 60.8624 476.817 95.1516 477.408 129.441C483.419 129.431 489.43 129.42 495.448 129.41Z" fill="url(#paint6_linear_869_260)"/>
<path d="M491.15 129.431C492.582 129.425 494.021 129.415 495.454 129.41C495.89 99.4685 496.507 75.6076 496.432 59.0424C496.413 54.5306 496.32 45.6302 503.178 37.7039C508.392 31.6746 515.53 28.6292 520.345 27.0654C504.941 26.9373 489.537 26.8091 474.126 26.6809C474.537 60.9701 474.948 95.2593 475.359 129.549C480.604 129.497 485.868 129.456 491.15 129.431Z" fill="#132B43"/>
<path d="M609.706 128.036C609.8 122.073 609.9 116.105 609.993 110.143C610.248 98.5506 610.497 86.9534 610.753 75.3613C610.56 67.4863 610.367 59.6112 610.174 51.7362C610.541 48.901 611.955 41.6053 618.832 34.8274C624.612 29.1314 631.358 26.6653 634.598 25.686C639.923 26.8191 647.429 29.1775 653.384 34.5865C663.425 43.7125 662.784 56.007 662.659 68.8859C662.447 90.8191 662.26 109.194 661.961 128.272C676.705 128.19 691.45 128.102 706.194 128.02C706.424 93.7466 706.655 59.4728 706.891 25.199H589.886C590.477 59.4882 591.075 93.7774 591.667 128.067C597.678 128.056 603.689 128.046 609.706 128.036Z" fill="url(#paint7_linear_869_260)"/>
<path d="M605.409 128.051C606.841 128.046 608.28 128.036 609.713 128.031C610.149 98.0894 610.766 74.2285 610.691 57.6632C610.672 53.1515 610.579 44.2511 617.437 36.3248C622.65 30.2954 629.789 27.25 634.604 25.6863C619.2 25.5581 603.795 25.4299 588.385 25.3018C588.796 59.591 589.207 93.8802 589.618 128.169C594.863 128.118 600.126 128.077 605.409 128.051Z" fill="#132B43"/>
<path d="M706.898 16.0166H-10.5391V27.4651H706.898V16.0166Z" fill="url(#paint8_linear_869_260)"/>
<path d="M693.15 10.6794H1507.27V16.0166H693.15V10.6794Z" fill="url(#paint9_linear_869_260)"/>
<path d="M688 0H1518V10.6795H688V0Z" fill="#F37669"/>
<path d="M1455.18 129.41C1455.08 123.447 1454.97 117.48 1454.87 111.517C1454.58 99.9248 1454.31 88.3276 1454.02 76.7355C1454.24 68.8605 1454.45 60.9855 1454.66 53.1105C1454.26 50.2752 1452.69 42.9796 1445.04 36.2017C1438.62 30.5056 1431.13 28.0396 1427.53 27.0603C1421.61 28.1934 1413.27 30.5518 1406.65 35.9607C1395.5 45.0867 1396.21 57.3812 1396.35 70.2602C1396.58 92.1934 1396.79 110.568 1397.12 129.646C1380.74 129.564 1364.36 129.477 1347.98 129.395C1347.72 95.1209 1347.46 60.8471 1347.2 26.5732H1477.21C1476.55 60.8624 1475.89 95.1516 1475.23 129.441C1468.55 129.431 1461.87 129.42 1455.18 129.41Z" fill="url(#paint10_linear_869_260)"/>
<path d="M1459.97 129.431C1458.37 129.425 1456.78 129.415 1455.18 129.41C1454.7 99.4685 1454.01 75.6076 1454.1 59.0424C1454.12 54.5306 1454.22 45.6302 1446.6 37.7039C1440.81 31.6746 1432.88 28.6292 1427.53 27.0654C1444.64 26.9373 1461.76 26.8091 1478.88 26.6809C1478.43 60.9701 1477.97 95.2593 1477.51 129.549C1471.68 129.497 1465.84 129.456 1459.97 129.431Z" fill="#132B43"/>
<path d="M1327.69 129.41C1327.59 123.447 1327.48 117.48 1327.37 111.517C1327.09 99.9248 1326.81 88.3276 1326.53 76.7355C1326.74 68.8605 1326.96 60.9855 1327.17 53.1105C1326.76 50.2752 1325.19 42.9796 1317.55 36.2017C1311.13 30.5056 1303.63 28.0396 1300.03 27.0603C1294.12 28.1934 1285.78 30.5518 1279.16 35.9607C1268 45.0867 1268.72 57.3812 1268.85 70.2602C1269.09 92.1934 1269.3 110.568 1269.63 129.646C1253.25 129.564 1236.86 129.477 1220.48 129.395C1220.23 95.1209 1219.97 60.8471 1219.71 26.5732H1349.71C1349.06 60.8624 1348.39 95.1516 1347.73 129.441C1341.05 129.431 1334.38 129.42 1327.69 129.41Z" fill="url(#paint11_linear_869_260)"/>
<path d="M1332.47 129.431C1330.88 129.425 1329.28 129.415 1327.69 129.41C1327.21 99.4685 1326.52 75.6076 1326.6 59.0424C1326.62 54.5306 1326.73 45.6302 1319.11 37.7039C1313.32 31.6746 1305.38 28.6292 1300.03 27.0654C1317.15 26.9373 1334.27 26.8091 1351.39 26.6809C1350.93 60.9701 1350.48 95.2593 1350.02 129.549C1344.19 129.497 1338.34 129.456 1332.47 129.431Z" fill="#132B43"/>
<path d="M1198.82 129.61C1198.72 123.647 1198.61 117.679 1198.5 111.717C1198.22 100.125 1197.94 88.5273 1197.66 76.9353C1197.87 69.0602 1198.09 61.1852 1198.3 53.3102C1197.89 50.4749 1196.32 43.1793 1188.68 36.4014C1182.26 30.7053 1174.76 28.2393 1171.16 27.26C1165.25 28.3931 1156.91 30.7515 1150.29 36.1604C1139.13 45.2864 1139.85 57.5809 1139.98 70.4599C1140.22 92.3931 1140.43 110.768 1140.76 129.846C1124.38 129.764 1107.99 129.676 1091.61 129.594C1091.36 95.3206 1091.1 61.0468 1090.84 26.7729H1220.84C1220.19 61.0621 1219.52 95.3513 1218.86 129.641C1212.18 129.63 1205.51 129.62 1198.82 129.61Z" fill="url(#paint12_linear_869_260)"/>
<path d="M1203.6 129.63C1202.01 129.625 1200.41 129.615 1198.82 129.61C1198.34 99.6683 1197.65 75.8073 1197.73 59.2421C1197.75 54.7303 1197.86 45.8299 1190.24 37.9036C1184.44 31.8743 1176.51 28.8289 1171.16 27.2651C1188.28 27.137 1205.39 27.0088 1222.52 26.8806C1222.06 61.1698 1221.6 95.459 1221.15 129.748C1215.32 129.697 1209.47 129.656 1203.6 129.63Z" fill="#132B43"/>
<path d="M1068.37 129.41C1068.27 123.447 1068.16 117.48 1068.05 111.517C1067.77 99.9248 1067.49 88.3276 1067.21 76.7355C1067.42 68.8605 1067.64 60.9855 1067.85 53.1105C1067.44 50.2752 1065.87 42.9796 1058.23 36.2017C1051.81 30.5056 1044.31 28.0396 1040.71 27.0603C1034.8 28.1934 1026.46 30.5518 1019.84 35.9607C1008.68 45.0867 1009.4 57.3812 1009.53 70.2602C1009.77 92.1934 1009.98 110.568 1010.31 129.646C993.927 129.564 977.545 129.477 961.163 129.395C960.907 95.1209 960.65 60.8471 960.387 26.5732H1090.39C1089.74 60.8624 1089.07 95.1516 1088.41 129.441C1081.74 129.431 1075.06 129.42 1068.37 129.41Z" fill="url(#paint13_linear_869_260)"/>
<path d="M1073.15 129.431C1071.56 129.425 1069.96 129.415 1068.37 129.41C1067.89 99.4685 1067.2 75.6076 1067.28 59.0424C1067.3 54.5306 1067.41 45.6302 1059.79 37.7039C1054 31.6746 1046.06 28.6292 1040.71 27.0654C1057.83 26.9373 1074.95 26.8091 1092.07 26.6809C1091.61 60.9701 1091.15 95.2593 1090.7 129.549C1084.87 129.497 1079.02 129.456 1073.15 129.431Z" fill="#132B43"/>
<path d="M938.614 129.41C938.51 123.447 938.399 117.48 938.295 111.517C938.012 99.9248 937.735 88.3276 937.451 76.7355C937.666 68.8605 937.88 60.9855 938.095 53.1105C937.686 50.2752 936.115 42.9796 928.474 36.2017C922.052 30.5056 914.556 28.0396 910.957 27.0603C905.039 28.1934 896.7 30.5518 890.083 35.9607C878.926 45.0867 879.639 57.3812 879.777 70.2602C880.013 92.1934 880.22 110.568 880.553 129.646C864.17 129.564 847.788 129.477 831.406 129.395C831.15 95.1209 830.894 60.8471 830.631 26.5732H960.637C959.979 60.8624 959.315 95.1516 958.657 129.441C951.978 129.431 945.3 129.42 938.614 129.41Z" fill="url(#paint14_linear_869_260)"/>
<path d="M943.389 129.431C941.797 129.425 940.199 129.415 938.607 129.41C938.122 99.4685 937.437 75.6076 937.52 59.0424C937.541 54.5306 937.645 45.6302 930.025 37.7039C924.232 31.6746 916.3 28.6292 910.95 27.0654C928.066 26.9373 945.182 26.8091 962.305 26.6809C961.848 60.9701 961.391 95.2593 960.934 129.549C955.107 129.497 949.258 129.456 943.389 129.431Z" fill="#132B43"/>
<path d="M811.66 128.036C811.556 122.073 811.445 116.105 811.341 110.143C811.057 98.5506 810.781 86.9534 810.497 75.3613C810.711 67.4863 810.926 59.6112 811.141 51.7362C810.732 48.901 809.161 41.6053 801.52 34.8274C795.097 29.1314 787.602 26.6653 784.003 25.686C778.085 26.8191 769.745 29.1775 763.129 34.5865C751.972 43.7125 752.685 56.007 752.823 68.8859C753.059 90.8191 753.266 109.194 753.598 128.272C737.216 128.19 720.834 128.102 704.452 128.02C704.196 93.7466 703.94 59.4728 703.677 25.199H833.683C833.025 59.4882 832.361 93.7774 831.703 128.067C825.024 128.056 818.345 128.046 811.66 128.036Z" fill="url(#paint15_linear_869_260)"/>
<path d="M816.435 128.051C814.843 128.046 813.245 128.036 811.653 128.031C811.168 98.0894 810.483 74.2285 810.566 57.6632C810.587 53.1515 810.691 44.2511 803.071 36.3248C797.278 30.2954 789.346 27.25 783.996 25.6863C801.112 25.5581 818.228 25.4299 835.351 25.3018C834.894 59.591 834.437 93.8802 833.98 128.169C828.153 128.118 822.304 128.077 816.435 128.051Z" fill="#132B43"/>
<path d="M703.669 16.0166H1500.82V27.4651H703.669V16.0166Z" fill="url(#paint16_linear_869_260)"/>
<path d="M-2 2H1443V136H-2V2Z" fill="url(#paint17_linear_869_260)"/>
<defs>
<linearGradient id="paint0_linear_869_260" x1="-16.3389" y1="13.3506" x2="716.366" y2="13.3506" gradientUnits="userSpaceOnUse">
<stop stop-color="#132B43"/>
<stop offset="1" stop-color="#DA5365"/>
</linearGradient>
<linearGradient id="paint1_linear_869_260" x1="0.529864" y1="115.49" x2="-0.0440581" y2="33.8258" gradientUnits="userSpaceOnUse">
<stop stop-color="#3B1D55"/>
<stop offset="0.92" stop-color="#49829B"/>
</linearGradient>
<linearGradient id="paint2_linear_869_260" x1="68.5003" y1="123.529" x2="69.032" y2="26.0284" gradientUnits="userSpaceOnUse">
<stop stop-color="#3B1D55"/>
<stop offset="0.92" stop-color="#49829B"/>
</linearGradient>
<linearGradient id="paint3_linear_869_260" x1="183.244" y1="123.529" x2="183.776" y2="26.0284" gradientUnits="userSpaceOnUse">
<stop stop-color="#3B1D55"/>
<stop offset="0.92" stop-color="#49829B"/>
</linearGradient>
<linearGradient id="paint4_linear_869_260" x1="299.228" y1="123.729" x2="299.76" y2="26.2332" gradientUnits="userSpaceOnUse">
<stop stop-color="#3B1D55"/>
<stop offset="0.92" stop-color="#49829B"/>
</linearGradient>
<linearGradient id="paint5_linear_869_260" x1="416.632" y1="123.529" x2="417.164" y2="26.0284" gradientUnits="userSpaceOnUse">
<stop stop-color="#3B1D55"/>
<stop offset="0.92" stop-color="#49829B"/>
</linearGradient>
<linearGradient id="paint6_linear_869_260" x1="533.42" y1="123.529" x2="533.951" y2="26.0284" gradientUnits="userSpaceOnUse">
<stop stop-color="#3B1D55"/>
<stop offset="0.92" stop-color="#49829B"/>
</linearGradient>
<linearGradient id="paint7_linear_869_260" x1="647.678" y1="122.155" x2="648.21" y2="24.6541" gradientUnits="userSpaceOnUse">
<stop stop-color="#3B1D55"/>
<stop offset="0.92" stop-color="#49829B"/>
</linearGradient>
<linearGradient id="paint8_linear_869_260" x1="348.176" y1="27.4651" x2="348.176" y2="16.0166" gradientUnits="userSpaceOnUse">
<stop stop-color="#132B43"/>
<stop offset="1" stop-color="#DA5365"/>
</linearGradient>
<linearGradient id="paint9_linear_869_260" x1="1507.27" y1="13.3506" x2="693.15" y2="13.3506" gradientUnits="userSpaceOnUse">
<stop stop-color="#132B43"/>
<stop offset="1" stop-color="#DA5365"/>
</linearGradient>
<linearGradient id="paint10_linear_869_260" x1="1413" y1="123.529" x2="1412.52" y2="26.0279" gradientUnits="userSpaceOnUse">
<stop stop-color="#3B1D55"/>
<stop offset="0.92" stop-color="#49829B"/>
</linearGradient>
<linearGradient id="paint11_linear_869_260" x1="1285.51" y1="123.529" x2="1285.03" y2="26.0279" gradientUnits="userSpaceOnUse">
<stop stop-color="#3B1D55"/>
<stop offset="0.92" stop-color="#49829B"/>
</linearGradient>
<linearGradient id="paint12_linear_869_260" x1="1156.64" y1="123.729" x2="1156.16" y2="26.2327" gradientUnits="userSpaceOnUse">
<stop stop-color="#3B1D55"/>
<stop offset="0.92" stop-color="#49829B"/>
</linearGradient>
<linearGradient id="paint13_linear_869_260" x1="1026.19" y1="123.529" x2="1025.71" y2="26.0279" gradientUnits="userSpaceOnUse">
<stop stop-color="#3B1D55"/>
<stop offset="0.92" stop-color="#49829B"/>
</linearGradient>
<linearGradient id="paint14_linear_869_260" x1="896.423" y1="123.529" x2="895.944" y2="26.0279" gradientUnits="userSpaceOnUse">
<stop stop-color="#3B1D55"/>
<stop offset="0.92" stop-color="#49829B"/>
</linearGradient>
<linearGradient id="paint15_linear_869_260" x1="769.469" y1="122.155" x2="768.99" y2="24.6536" gradientUnits="userSpaceOnUse">
<stop stop-color="#3B1D55"/>
<stop offset="0.92" stop-color="#49829B"/>
</linearGradient>
<linearGradient id="paint16_linear_869_260" x1="1102.25" y1="27.4651" x2="1102.25" y2="16.0166" gradientUnits="userSpaceOnUse">
<stop stop-color="#132B43"/>
<stop offset="1" stop-color="#DA5365"/>
</linearGradient>
<linearGradient id="paint17_linear_869_260" x1="720.5" y1="2" x2="720.5" y2="136" gradientUnits="userSpaceOnUse">
<stop stop-color="#5A284D" stop-opacity="0"/>
<stop offset="0.231" stop-color="#2F1A35" stop-opacity="0.485842"/>
<stop offset="0.671" stop-color="#010B1C"/>
</linearGradient>
</defs>
</svg>
