<svg width="1428" height="254" viewBox="0 0 1428 254" fill="none" xmlns="http://www.w3.org/2000/svg">
<path d="M1447.96 20.8301H18.8438V31.2401H1447.96V20.8301Z" fill="url(#paint0_linear_388_191)"/>
<path d="M1457 0H0V20.83H1457V0Z" fill="#F37669"/>
<path d="M71.6087 31.6399H30.1548V252.87H71.6087V31.6399Z" fill="url(#paint1_linear_388_191)"/>
<path d="M110.268 252.41C110.451 240.78 110.645 229.14 110.827 217.51C111.325 194.9 111.811 172.28 112.31 149.67C111.933 134.31 111.556 118.95 111.18 103.59C111.897 98.0601 114.654 83.8301 128.067 70.6101C139.342 59.5001 152.5 54.6901 158.818 52.7801C169.206 54.9901 183.846 59.5901 195.461 70.1401C215.045 87.9401 213.794 111.92 213.551 137.04C213.138 179.82 212.773 215.66 212.19 252.87C240.948 252.71 269.706 252.54 298.464 252.38C298.913 185.53 299.363 118.68 299.824 51.8301H71.6089C72.7631 118.71 73.9294 185.59 75.0836 252.47C86.8079 252.45 98.5321 252.43 110.268 252.41Z" fill="url(#paint2_linear_388_191)"/>
<path d="M101.873 252.45C104.668 252.44 107.474 252.42 110.269 252.41C111.119 194.01 112.322 147.47 112.176 115.16C112.14 106.36 111.957 89 125.334 73.54C135.503 61.78 149.426 55.84 158.818 52.79C128.772 52.54 98.7267 52.29 68.6689 52.04C69.4708 118.92 70.2727 185.8 71.0745 252.68C81.3044 252.58 91.5707 252.5 101.873 252.45Z" fill="#132B43"/>
<path d="M334.074 252.41C334.256 240.78 334.45 229.14 334.633 217.51C335.131 194.9 335.617 172.28 336.115 149.67C335.738 134.31 335.362 118.95 334.985 103.59C335.702 98.0601 338.46 83.8301 351.873 70.6101C363.147 59.5001 376.305 54.6901 382.623 52.7801C393.011 54.9901 407.651 59.5901 419.266 70.1401C438.851 87.9401 437.599 111.92 437.356 137.04C436.943 179.82 436.579 215.66 435.995 252.87C464.753 252.71 493.511 252.54 522.269 252.38C522.718 185.53 523.168 118.68 523.63 51.8301H295.414C296.568 118.71 297.735 185.59 298.889 252.47C310.613 252.45 322.337 252.43 334.074 252.41Z" fill="url(#paint3_linear_388_191)"/>
<path d="M325.679 252.45C328.473 252.44 331.28 252.42 334.074 252.41C334.924 194.01 336.127 147.47 335.981 115.16C335.945 106.36 335.763 89 349.139 73.54C359.308 61.78 373.232 55.84 382.623 52.79C352.578 52.54 322.532 52.29 292.474 52.04C293.276 118.92 294.078 185.8 294.88 252.68C305.11 252.58 315.376 252.5 325.679 252.45Z" fill="#132B43"/>
<path d="M560.297 252.8C560.479 241.17 560.673 229.53 560.856 217.9C561.354 195.29 561.84 172.67 562.338 150.06C561.961 134.7 561.585 119.34 561.208 103.98C561.925 98.45 564.683 84.22 578.096 71C589.37 59.89 602.528 55.08 608.846 53.17C619.234 55.38 633.874 59.98 645.489 70.53C665.074 88.33 663.822 112.31 663.579 137.43C663.166 180.21 662.802 216.05 662.219 253.26C690.976 253.1 719.734 252.93 748.492 252.77C748.942 185.92 749.391 119.07 749.853 52.22H521.637C522.791 119.1 523.958 185.98 525.112 252.86C536.836 252.84 548.56 252.82 560.297 252.8Z" fill="url(#paint4_linear_388_191)"/>
<path d="M551.902 252.84C554.696 252.83 557.503 252.81 560.297 252.8C561.148 194.4 562.35 147.86 562.204 115.55C562.168 106.75 561.986 89.3899 575.362 73.9299C585.531 62.1699 599.455 56.2299 608.846 53.1799C578.801 52.9299 548.755 52.6799 518.697 52.4299C519.499 119.31 520.301 186.19 521.103 253.07C531.333 252.97 541.599 252.89 551.902 252.84Z" fill="#132B43"/>
<path d="M789.29 252.41C789.472 240.78 789.667 229.14 789.849 217.51C790.347 194.9 790.833 172.28 791.331 149.67C790.954 134.31 790.578 118.95 790.201 103.59C790.918 98.0601 793.676 83.8301 807.089 70.6101C818.364 59.5001 831.521 54.6901 837.839 52.7801C848.227 54.9901 862.867 59.5901 874.482 70.1401C894.067 87.9401 892.815 111.92 892.572 137.04C892.159 179.82 891.795 215.66 891.212 252.87C919.97 252.71 948.727 252.54 977.485 252.38C977.935 185.53 978.384 118.68 978.846 51.8301H750.63C751.785 118.71 752.951 185.59 754.105 252.47C765.829 252.45 777.554 252.43 789.29 252.41Z" fill="url(#paint5_linear_388_191)"/>
<path d="M780.894 252.45C783.689 252.44 786.495 252.42 789.29 252.41C790.14 194.01 791.343 147.47 791.197 115.16C791.161 106.36 790.978 89 804.355 73.54C814.524 61.78 828.447 55.84 837.839 52.79C807.793 52.54 777.748 52.29 747.69 52.04C748.492 118.92 749.294 185.8 750.096 252.68C760.325 252.58 770.592 252.5 780.894 252.45Z" fill="#132B43"/>
<path d="M1017.07 252.41C1017.25 240.78 1017.44 229.14 1017.63 217.51C1018.12 194.9 1018.61 172.28 1019.11 149.67C1018.73 134.31 1018.36 118.95 1017.98 103.59C1018.7 98.0601 1021.45 83.8301 1034.87 70.6101C1046.14 59.5001 1059.3 54.6901 1065.62 52.7801C1076 54.9901 1090.64 59.5901 1102.26 70.1401C1121.84 87.9401 1120.59 111.92 1120.35 137.04C1119.94 179.82 1119.57 215.66 1118.99 252.87C1147.75 252.71 1176.51 252.54 1205.26 252.38C1205.71 185.53 1206.16 118.68 1206.62 51.8301H978.408C979.562 118.71 980.729 185.59 981.883 252.47C993.607 252.45 1005.33 252.43 1017.07 252.41Z" fill="url(#paint6_linear_388_191)"/>
<path d="M1008.68 252.45C1011.48 252.44 1014.29 252.42 1017.08 252.41C1017.93 194.01 1019.13 147.47 1018.99 115.16C1018.95 106.36 1018.77 89 1032.15 73.54C1042.31 61.78 1056.24 55.84 1065.63 52.79C1035.58 52.54 1005.54 52.29 975.48 52.04C976.282 118.92 977.084 185.8 977.886 252.68C988.116 252.58 998.382 252.5 1008.68 252.45Z" fill="#132B43"/>
<path d="M1239.93 249.73C1240.11 238.1 1240.3 226.46 1240.48 214.83C1240.98 192.22 1241.47 169.6 1241.97 146.99C1241.59 131.63 1241.21 116.27 1240.84 100.91C1241.55 95.3799 1244.31 81.1499 1257.72 67.9299C1269 56.8199 1282.16 52.0099 1288.47 50.0999C1298.86 52.3099 1313.5 56.9099 1325.12 67.4599C1344.7 85.2599 1343.45 109.24 1343.21 134.36C1342.8 177.14 1342.43 212.98 1341.85 250.19C1370.61 250.03 1399.36 249.86 1428.12 249.7C1428.57 182.85 1429.02 116 1429.48 49.1499H1201.27C1202.42 116.03 1203.59 182.91 1204.74 249.79C1216.47 249.77 1228.19 249.75 1239.93 249.73Z" fill="url(#paint7_linear_388_191)"/>
<path d="M1231.54 249.76C1234.34 249.75 1237.14 249.73 1239.94 249.72C1240.79 191.32 1241.99 144.78 1241.85 112.47C1241.81 103.67 1241.63 86.3101 1255 70.8501C1265.17 59.0901 1279.1 53.1501 1288.49 50.1001C1258.44 49.8501 1228.4 49.6001 1198.34 49.3501C1199.14 116.23 1199.94 183.11 1200.74 249.99C1210.97 249.89 1221.24 249.81 1231.54 249.76Z" fill="#132B43"/>
<path d="M1429.49 31.24H30.1548V53.57H1429.49V31.24Z" fill="url(#paint8_linear_388_191)"/>
<defs>
<linearGradient id="paint0_linear_388_191" x1="18.8438" y1="26.0401" x2="1447.96" y2="26.0401" gradientUnits="userSpaceOnUse">
<stop stop-color="#132B43"/>
<stop offset="1" stop-color="#DA5365"/>
</linearGradient>
<linearGradient id="paint1_linear_388_191" x1="51.7444" y1="225.26" x2="50.625" y2="65.9761" gradientUnits="userSpaceOnUse">
<stop stop-color="#3B1D55"/>
<stop offset="0.92" stop-color="#49829B"/>
</linearGradient>
<linearGradient id="paint2_linear_388_191" x1="184.319" y1="240.94" x2="185.357" y2="50.7674" gradientUnits="userSpaceOnUse">
<stop stop-color="#3B1D55"/>
<stop offset="0.92" stop-color="#49829B"/>
</linearGradient>
<linearGradient id="paint3_linear_388_191" x1="408.125" y1="240.94" x2="409.162" y2="50.7674" gradientUnits="userSpaceOnUse">
<stop stop-color="#3B1D55"/>
<stop offset="0.92" stop-color="#49829B"/>
</linearGradient>
<linearGradient id="paint4_linear_388_191" x1="634.348" y1="241.33" x2="635.385" y2="51.1673" gradientUnits="userSpaceOnUse">
<stop stop-color="#3B1D55"/>
<stop offset="0.92" stop-color="#49829B"/>
</linearGradient>
<linearGradient id="paint5_linear_388_191" x1="863.341" y1="240.94" x2="864.378" y2="50.7674" gradientUnits="userSpaceOnUse">
<stop stop-color="#3B1D55"/>
<stop offset="0.92" stop-color="#49829B"/>
</linearGradient>
<linearGradient id="paint6_linear_388_191" x1="1091.13" y1="240.94" x2="1092.17" y2="50.7674" gradientUnits="userSpaceOnUse">
<stop stop-color="#3B1D55"/>
<stop offset="0.92" stop-color="#49829B"/>
</linearGradient>
<linearGradient id="paint7_linear_388_191" x1="1313.99" y1="238.26" x2="1315.03" y2="48.0872" gradientUnits="userSpaceOnUse">
<stop stop-color="#3B1D55"/>
<stop offset="0.92" stop-color="#49829B"/>
</linearGradient>
<linearGradient id="paint8_linear_388_191" x1="729.818" y1="53.57" x2="729.818" y2="31.24" gradientUnits="userSpaceOnUse">
<stop stop-color="#132B43"/>
<stop offset="1" stop-color="#DA5365"/>
</linearGradient>
</defs>
</svg>
