<svg width="605" height="870" viewBox="0 0 605 870" fill="none" xmlns="http://www.w3.org/2000/svg">
<path d="M251.061 26.2268L237.832 7.87312H62.255L3.71777 89.1608V378.951L27.3229 411.721V614.975L4.6689 646.433V858.855H572.489L603.893 815.246V67.4841L558.464 4.39667H369.294V29.9759L251.061 26.2268Z" fill="url(#paint0_linear_426_2)"/>
<path d="M564.465 861.479L601.282 810.338V62.9341L558.792 3.93658" stroke="url(#paint1_linear_426_2)" stroke-width="4.31" stroke-miterlimit="10"/>
<path d="M493.667 858.855H4.6689V646.433L27.3229 614.975V411.721L3.71777 378.951V89.1609L62.255 7.87317H237.832L251.061 26.2268" stroke="url(#paint2_linear_426_2)" stroke-width="4.31" stroke-miterlimit="10"/>
<path d="M171.755 27.539H467.225" stroke="url(#paint3_linear_426_2)" stroke-width="4.31" stroke-miterlimit="10"/>
<path d="M369.52 11.1451H538.041L586.877 79.0041V419.595L562.926 452.859V750.028" stroke="url(#paint4_linear_426_2)" stroke-width="4.31" stroke-miterlimit="10"/>
<path d="M582.709 638.134V797.233L554.4 836.565H77.3516" stroke="url(#paint5_linear_426_2)" stroke-width="4.31" stroke-miterlimit="10"/>
<path d="M171.992 21.4815C176.288 21.4815 179.771 24.1864 179.771 27.5232C179.771 30.8599 176.288 33.5648 171.992 33.5648C167.696 33.5648 164.214 30.8599 164.214 27.5232C164.214 24.1864 167.696 21.4815 171.992 21.4815Z" fill="url(#paint6_linear_426_2)"/>
<path d="M468 34.0519C472.296 34.0519 475.779 31.347 475.779 28.0102C475.779 24.6735 472.296 21.9686 468 21.9686C463.704 21.9686 460.222 24.6735 460.222 28.0102C460.222 31.347 463.704 34.0519 468 34.0519Z" fill="url(#paint7_linear_426_2)"/>
<path d="M371.09 17.4537C375.386 17.4537 378.869 14.7487 378.869 11.412C378.869 8.07531 375.386 5.37036 371.09 5.37036C366.794 5.37036 363.312 8.07531 363.312 11.412C363.312 14.7487 366.794 17.4537 371.09 17.4537Z" fill="url(#paint8_linear_426_2)"/>
<path d="M561.937 13.4259C566.233 13.4259 569.716 10.721 569.716 7.38426C569.716 4.04754 566.233 1.34259 561.937 1.34259C557.641 1.34259 554.159 4.04754 554.159 7.38426C554.159 10.721 557.641 13.4259 561.937 13.4259Z" fill="url(#paint9_linear_426_2)"/>
<path d="M563.113 752.209C567.409 752.209 570.891 749.504 570.891 746.167C570.891 742.831 567.409 740.126 563.113 740.126C558.817 740.126 555.334 742.831 555.334 746.167C555.334 749.504 558.817 752.209 563.113 752.209Z" fill="url(#paint10_linear_426_2)"/>
<path d="M582.619 638.881C586.915 638.881 590.398 636.176 590.398 632.84C590.398 629.503 586.915 626.798 582.619 626.798C578.323 626.798 574.841 629.503 574.841 632.84C574.841 636.176 578.323 638.881 582.619 638.881Z" fill="url(#paint11_linear_426_2)"/>
<path d="M565.153 865.133C569.449 865.133 572.932 862.428 572.932 859.091C572.932 855.755 569.449 853.05 565.153 853.05C560.857 853.05 557.375 855.755 557.375 859.091C557.375 862.428 560.857 865.133 565.153 865.133Z" fill="url(#paint12_linear_426_2)"/>
<path d="M492.937 863.821C497.233 863.821 500.715 861.116 500.715 857.779C500.715 854.442 497.233 851.737 492.937 851.737C488.641 851.737 485.158 854.442 485.158 857.779C485.158 861.116 488.641 863.821 492.937 863.821Z" fill="url(#paint13_linear_426_2)"/>
<path d="M66.9431 836.017C67.4415 832.698 71.304 830.332 75.576 830.725C79.848 831.117 82.8918 834.122 82.3934 837.431C81.895 840.749 78.0324 843.115 73.7604 842.723C69.4885 842.33 66.4447 839.326 66.9431 836.017Z" fill="url(#paint14_linear_426_2)"/>
<defs>
<linearGradient id="paint0_linear_426_2" x1="309.72" y1="880.14" x2="298.485" y2="-7.3832" gradientUnits="userSpaceOnUse">
<stop stop-color="#0C1C28" stop-opacity="0.7"/>
<stop offset="0.512" stop-color="#1C354C" stop-opacity="0.7"/>
<stop offset="1" stop-color="#0C1C28" stop-opacity="0.7"/>
</linearGradient>
<linearGradient id="paint1_linear_426_2" x1="555.766" y1="432.699" x2="605" y2="432.699" gradientUnits="userSpaceOnUse">
<stop stop-color="#5FC4BF"/>
<stop offset="1" stop-color="#B03B69"/>
</linearGradient>
<linearGradient id="paint2_linear_426_2" x1="-0.000248584" y1="433.364" x2="493.667" y2="433.364" gradientUnits="userSpaceOnUse">
<stop stop-color="#5FC4BF"/>
<stop offset="1" stop-color="#B03B69"/>
</linearGradient>
<linearGradient id="paint3_linear_426_2" x1="-nan" y1="-nan" x2="-nan" y2="-nan" gradientUnits="userSpaceOnUse">
<stop stop-color="#5FC4BF"/>
<stop offset="0.51" stop-color="#C3D95B"/>
<stop offset="1" stop-color="#C3D95B"/>
</linearGradient>
<linearGradient id="paint4_linear_426_2" x1="369.52" y1="378.746" x2="590.612" y2="378.746" gradientUnits="userSpaceOnUse">
<stop stop-color="#5FC4BF"/>
<stop offset="1" stop-color="#B03B69"/>
</linearGradient>
<linearGradient id="paint5_linear_426_2" x1="77.3516" y1="739.19" x2="586.444" y2="739.19" gradientUnits="userSpaceOnUse">
<stop stop-color="#5FC4BF"/>
<stop offset="1" stop-color="#B03B69"/>
</linearGradient>
<linearGradient id="paint6_linear_426_2" x1="164.232" y1="27.5232" x2="179.771" y2="27.5232" gradientUnits="userSpaceOnUse">
<stop stop-color="#5FC4BF"/>
</linearGradient>
<linearGradient id="paint7_linear_426_2" x1="460.222" y1="28.0102" x2="475.779" y2="28.0102" gradientUnits="userSpaceOnUse">
<stop stop-color="#5FC4BF"/>
</linearGradient>
<linearGradient id="paint8_linear_426_2" x1="363.312" y1="11.412" x2="378.851" y2="11.412" gradientUnits="userSpaceOnUse">
<stop stop-color="#5FC4BF"/>
</linearGradient>
<linearGradient id="paint9_linear_426_2" x1="554.159" y1="7.38426" x2="569.716" y2="7.38426" gradientUnits="userSpaceOnUse">
<stop stop-color="#5FC4BF"/>
</linearGradient>
<linearGradient id="paint10_linear_426_2" x1="555.334" y1="746.167" x2="570.891" y2="746.167" gradientUnits="userSpaceOnUse">
<stop offset="1" stop-color="#B03B69"/>
</linearGradient>
<linearGradient id="paint11_linear_426_2" x1="574.841" y1="632.84" x2="590.398" y2="632.84" gradientUnits="userSpaceOnUse">
<stop offset="1" stop-color="#B03B69"/>
</linearGradient>
<linearGradient id="paint12_linear_426_2" x1="557.392" y1="859.091" x2="572.932" y2="859.091" gradientUnits="userSpaceOnUse">
<stop stop-color="#5FC4BF"/>
</linearGradient>
<linearGradient id="paint13_linear_426_2" x1="485.176" y1="857.779" x2="500.715" y2="857.779" gradientUnits="userSpaceOnUse">
<stop offset="1" stop-color="#B03B69"/>
</linearGradient>
<linearGradient id="paint14_linear_426_2" x1="82.4713" y1="837.256" x2="67.3856" y2="834.038" gradientUnits="userSpaceOnUse">
<stop stop-color="#5FC4BF"/>
</linearGradient>
</defs>
</svg>
