<?xml version="1.0" standalone="no"?>
<!DOCTYPE svg PUBLIC "-//W3C//DTD SVG 20010904//EN"
 "http://www.w3.org/TR/2001/REC-SVG-20010904/DTD/svg10.dtd">
<svg version="1.0" xmlns="http://www.w3.org/2000/svg"
 width="2310.000000pt" height="1258.000000pt" viewBox="0 0 2310.000000 1258.000000"
 preserveAspectRatio="xMidYMid meet">

<g transform="translate(0.000000,1258.000000) scale(0.100000,-0.100000)"
fill="#000000" stroke="none">
<path d="M10645 11694 c-296 -55 -825 -203 -825 -229 0 -3 17 -40 39 -83 21
-42 55 -116 76 -165 21 -48 41 -89 45 -92 5 -3 62 16 155 54 59 24 81 32 191
64 156 47 341 92 432 107 l72 12 0 179 0 179 -27 -1 c-16 0 -86 -12 -158 -25z
m-285 -300 c-86 -24 -108 -28 -98 -19 8 8 140 43 163 43 11 0 -18 -10 -65 -24z
m-175 -44 c-3 -5 -12 -10 -18 -10 -7 0 -6 4 3 10 19 12 23 12 15 0z"/>
<path d="M12572 11578 l3 -110 150 -39 c83 -21 153 -38 158 -39 4 0 7 -4 7
-10 0 -15 -26 -12 -150 19 -63 15 -127 31 -142 35 -28 6 -28 6 -28 -41 l0 -48
141 -34 c118 -27 436 -122 489 -145 10 -4 22 6 39 35 43 76 139 166 185 173 8
1 21 8 30 15 14 12 18 9 32 -25 24 -56 29 -187 12 -254 l-15 -55 126 -60 c131
-62 384 -196 379 -201 -2 -1 -75 34 -163 78 -202 101 -335 160 -348 155 -6 -2
41 -31 104 -64 292 -155 406 -223 599 -359 206 -144 453 -348 580 -478 24 -25
50 -46 57 -46 8 0 18 -11 24 -24 6 -13 22 -30 35 -37 21 -11 27 -10 47 9 13
12 29 22 35 22 7 0 12 3 12 8 0 4 16 20 35 35 51 41 43 20 -18 -43 -72 -75
-74 -82 -28 -123 51 -46 216 -252 333 -416 159 -222 359 -570 458 -793 24 -54
47 -98 52 -98 5 0 24 7 43 14 19 8 35 12 35 8 0 -4 4 -2 8 3 8 12 133 57 139
51 3 -2 -12 -12 -32 -22 -31 -15 -36 -21 -31 -43 5 -24 5 -25 -5 -5 l-11 22
-58 -20 c-32 -11 -64 -25 -70 -32 -8 -10 -1 -37 23 -102 221 -578 329 -1257
298 -1854 -27 -506 -111 -914 -297 -1438 -69 -193 -98 -269 -135 -350 -16 -34
-29 -65 -29 -69 0 -4 -29 -67 -65 -140 -36 -73 -65 -137 -65 -142 0 -5 -3 -11
-7 -13 -5 -1 -19 -23 -31 -48 -55 -104 -102 -190 -150 -272 -28 -49 -48 -88
-44 -88 3 0 -3 -7 -14 -16 -10 -8 -12 -12 -4 -8 12 6 13 5 3 -7 -13 -16 -7
-31 21 -46 16 -9 8 -23 -85 -138 -57 -70 -109 -134 -115 -141 -10 -12 -28 -7
-115 33 -57 25 -116 54 -131 63 l-27 16 30 28 c16 15 29 32 29 36 0 5 9 11 19
15 10 3 21 15 24 26 3 11 10 18 15 17 27 -8 292 312 292 351 0 5 6 14 13 18
12 8 27 31 57 90 9 17 31 51 49 75 26 35 178 335 236 463 7 17 23 51 34 76 32
69 60 153 55 161 -3 5 0 8 6 8 7 0 10 7 6 15 -3 8 -1 15 4 15 5 0 7 7 4 15 -4
8 -2 15 3 15 10 0 43 107 43 140 0 11 5 20 11 20 6 0 9 7 6 15 -4 8 -2 17 3
20 5 3 7 12 3 20 -3 8 0 15 7 15 6 0 9 4 6 9 -3 5 7 52 24 106 16 53 32 121
35 152 3 31 10 62 16 69 6 8 9 19 6 26 -2 7 -1 20 3 28 7 14 20 90 26 155 1
17 3 30 4 30 1 0 3 16 5 35 2 19 13 103 24 185 26 193 38 570 23 703 -7 53
-17 142 -22 197 -38 350 -136 748 -266 1082 -67 171 -102 235 -125 228 -54
-15 -63 -15 -32 1 18 10 34 23 37 29 8 21 -232 475 -286 540 -5 6 -47 66 -94
135 -169 246 -387 490 -437 490 -20 0 -25 4 -22 19 5 26 -19 45 -47 37 -13 -3
-40 -21 -61 -40 -33 -29 -36 -35 -20 -39 12 -3 9 -5 -9 -6 -16 0 -28 1 -28 3
0 2 20 26 45 53 48 52 59 91 26 100 -11 3 -21 13 -24 22 -12 46 -430 373 -667
522 -88 55 -404 220 -430 224 -3 1 -21 8 -41 17 -57 25 -79 30 -79 19 0 -6 19
-20 43 -32 23 -12 44 -25 47 -29 3 -4 15 -10 28 -14 12 -4 22 -12 22 -17 0 -5
5 -9 11 -9 21 0 268 -166 369 -249 122 -100 267 -238 258 -246 -3 -3 -52 33
-109 80 -361 299 -815 552 -1236 691 -77 25 -241 74 -249 74 -2 0 -4 -51 -4
-114 l0 -113 68 -18 c325 -88 664 -235 982 -427 440 -266 866 -661 1161 -1078
239 -337 417 -693 542 -1085 46 -144 80 -266 75 -271 -3 -2 -28 75 -56 172
-47 159 -102 319 -137 399 -74 170 -105 235 -153 325 -251 474 -551 846 -951
1179 -130 108 -180 145 -186 139 -3 -3 30 -32 73 -66 44 -34 87 -71 98 -83 10
-12 -33 20 -96 70 -63 51 -176 133 -250 183 -74 49 -135 94 -135 98 0 5 -4 12
-9 17 -5 5 -6 3 -2 -4 9 -16 1 -16 -25 -2 -11 5 -17 14 -14 19 3 5 0 12 -6 16
-8 4 -9 3 -5 -4 11 -18 4 -15 -78 29 -45 24 -73 45 -69 51 3 7 1 8 -5 4 -6 -4
-39 7 -73 24 -120 61 -285 130 -454 190 -69 25 -281 90 -291 90 -2 0 -4 -34
-4 -76 0 -74 -1 -76 -22 -70 -83 22 -361 70 -508 88 -135 16 -236 21 -440 21
-291 1 -425 -10 -727 -59 l-43 -7 0 82 c0 71 -2 81 -17 81 -28 0 -268 -57
-361 -86 -46 -14 -86 -23 -89 -21 -2 3 4 8 14 11 81 24 283 79 339 91 38 8 79
18 92 20 21 5 22 9 22 130 0 69 -3 125 -7 125 -22 0 -323 -72 -415 -99 -149
-44 -147 -43 -109 -26 48 23 244 82 396 120 l130 32 3 162 c1 98 -1 161 -7
161 -29 0 -305 -56 -421 -85 -125 -31 -318 -89 -381 -113 l-27 -11 33 -88 c71
-189 148 -478 161 -609 6 -58 5 -59 -22 -71 -66 -26 -70 -26 -101 14 -95 121
-232 354 -317 537 -25 53 -49 96 -55 96 -5 0 -69 -28 -143 -63 -73 -35 -139
-62 -147 -59 -8 3 -11 0 -7 -6 4 -7 -13 -22 -43 -37 -28 -13 -52 -21 -55 -16
-8 13 4 20 22 14 10 -4 13 -2 8 5 -5 8 -1 10 10 5 12 -4 15 -3 10 5 -5 8 -1
10 10 5 12 -4 15 -3 10 5 -5 8 -1 10 10 5 11 -4 15 -3 10 5 -8 13 43 41 63 34
8 -3 11 0 7 7 -5 7 -1 9 10 4 12 -4 15 -3 10 5 -5 8 -1 10 10 5 12 -4 15 -3
10 5 -5 8 -1 10 10 5 12 -4 15 -3 10 5 -5 8 -1 10 10 5 12 -4 15 -3 10 5 -5 8
-1 10 10 5 12 -4 15 -3 10 5 -5 8 15 23 59 44 79 36 79 16 0 223 -31 83 -58
156 -60 163 -3 6 -10 12 -17 12 -7 0 -112 -49 -233 -109 -569 -281 -987 -581
-1425 -1028 -377 -383 -651 -757 -903 -1233 -99 -189 -97 -174 -26 -206 74
-34 71 -42 -7 -14 -32 11 -60 20 -62 20 -7 0 -87 -183 -137 -315 -202 -537
-308 -1034 -336 -1580 -62 -1196 288 -2356 1004 -3328 l79 -107 81 -1 82 -1
-105 -50 c-58 -27 -172 -80 -255 -118 -82 -37 -184 -84 -225 -103 -41 -19
-763 -351 -1605 -737 -841 -386 -1532 -704 -1534 -706 -2 -2 3469 -4 7715 -4
l7719 0 -530 245 c-291 135 -1126 521 -1854 858 -728 336 -1316 613 -1308 615
24 5 180 218 316 431 158 248 327 580 427 839 24 63 43 116 42 117 -2 2 -35
14 -75 28 -70 24 -72 24 -89 6 -25 -28 -37 -23 -32 12 5 30 2 33 -59 61 -34
17 -63 31 -63 33 0 2 25 -5 55 -16 87 -30 89 -29 125 58 17 43 40 96 50 118
10 22 41 114 69 205 29 90 54 166 57 169 9 10 -11 -69 -47 -185 -22 -67 -39
-127 -39 -133 0 -7 -21 -66 -46 -131 -26 -66 -44 -126 -41 -135 4 -8 18 -20
32 -25 13 -5 44 -19 67 -30 23 -11 43 -19 44 -17 10 10 72 196 114 344 233
824 258 1735 71 2558 -136 600 -399 1205 -751 1730 -173 259 -351 476 -579
709 -448 455 -878 767 -1436 1041 -401 197 -772 326 -1203 419 l-113 24 3
-110z m-2327 -788 c-27 -12 -43 -12 -25 0 8 5 22 9 30 9 10 0 8 -3 -5 -9z
m-980 -29 c3 -6 -3 -15 -14 -21 -14 -7 -22 -7 -26 0 -4 6 -3 10 2 9 20 -3 34
2 28 11 -3 6 -4 10 -1 10 3 0 7 -4 11 -9z m5236 -198 c13 -16 12 -17 -3 -4
-17 13 -22 21 -14 21 2 0 10 -8 17 -17z m50 -40 c13 -16 12 -17 -3 -4 -17 13
-22 21 -14 21 2 0 10 -8 17 -17z m49 -38 c13 -14 21 -25 18 -25 -2 0 -15 11
-28 25 -13 14 -21 25 -18 25 2 0 15 -11 28 -25z m-5081 -19 c-13 -12 -142 -86
-133 -76 15 16 116 78 128 79 5 1 7 -1 5 -3z m5151 -41 c13 -14 21 -25 18 -25
-2 0 -15 11 -28 25 -13 14 -21 25 -18 25 2 0 15 -11 28 -25z m75 -65 c21 -22
37 -40 34 -40 -3 0 -23 18 -44 40 -21 22 -37 40 -34 40 3 0 23 -18 44 -40z
m-5391 6 c-10 -8 -21 -12 -24 -10 -5 6 21 24 34 24 6 0 1 -6 -10 -14z m-34
-20 c0 -3 -4 -8 -10 -11 -5 -3 -10 -1 -10 4 0 6 5 11 10 11 6 0 10 -2 10 -4z
m-39 -29 c-10 -9 -11 -8 -5 6 3 10 9 15 12 12 3 -3 0 -11 -7 -18z m-30 -20
c-10 -9 -11 -8 -5 6 3 10 9 15 12 12 3 -3 0 -11 -7 -18z m-30 -20 c-10 -9 -11
-8 -5 6 3 10 9 15 12 12 3 -3 0 -11 -7 -18z m5689 -72 c47 -47 82 -85 80 -85
-3 0 -43 38 -90 85 -47 47 -82 85 -80 85 3 0 43 -38 90 -85z m-5280 31 c0 -2
-7 -7 -16 -10 -8 -3 -12 -2 -9 4 6 10 25 14 25 6z m-520 -20 c0 -2 -8 -10 -17
-17 -16 -13 -17 -12 -4 4 13 16 21 21 21 13z m-160 -119 c0 -2 -10 -12 -22
-23 l-23 -19 19 23 c18 21 26 27 26 19z m-76 -65 c-16 -15 -83 -73 -147 -130
-158 -140 -368 -360 -493 -517 -622 -778 -965 -1676 -1013 -2651 -23 -456 31
-958 144 -1349 15 -49 30 -94 34 -100 5 -5 11 -27 15 -48 4 -21 14 -41 22 -44
8 -3 43 4 77 15 34 11 64 18 67 15 3 -3 -1 -8 -9 -11 -7 -2 -37 -17 -65 -31
-40 -21 -52 -33 -54 -54 -2 -15 2 -27 8 -27 6 0 8 -5 5 -11 -4 -5 1 -19 10
-29 9 -10 14 -23 11 -28 -5 -9 60 -188 86 -235 7 -12 13 -27 14 -33 4 -27 157
-285 231 -391 149 -216 434 -553 466 -553 8 0 116 88 142 116 11 12 108 91
140 114 31 23 -37 -55 -146 -166 -55 -55 -99 -105 -99 -111 0 -9 -131 -75
-204 -102 -21 -9 -26 -8 -26 6 0 9 -26 53 -58 97 -32 45 -76 109 -98 144 -21
34 -54 86 -73 115 -130 199 -371 702 -441 920 -6 20 -16 37 -21 37 -5 0 -9 11
-9 25 0 36 -26 95 -42 95 -7 0 -67 -20 -132 -45 -123 -46 -166 -55 -75 -16 47
21 50 25 45 49 -6 24 -5 25 5 7 7 -11 13 -21 14 -23 1 -1 32 11 69 27 70 32
79 48 55 93 -10 18 -16 62 -22 150 -1 14 -5 24 -9 21 -5 -2 -8 8 -8 24 0 15
-14 98 -30 183 -30 155 -60 347 -59 385 0 11 -5 58 -11 105 -19 139 -16 658 4
835 74 642 241 1201 510 1704 277 519 628 963 1055 1334 74 64 137 117 140
117 4 0 -8 -13 -25 -28z m3282 -163 c27 -17 66 -50 87 -73 48 -53 127 -213
127 -258 0 -34 1 -35 61 -52 75 -21 260 -88 255 -93 -2 -3 -29 3 -61 12 -31 9
-89 25 -129 34 l-73 18 16 -29 c9 -15 24 -31 34 -34 9 -3 17 -14 17 -25 0 -11
7 -22 15 -25 8 -4 15 -12 15 -19 0 -7 11 -16 25 -19 22 -6 25 -12 25 -49 1
-50 22 -79 70 -95 29 -11 35 -10 44 5 31 55 127 133 164 133 20 0 35 -110 24
-170 -6 -35 -6 -56 0 -59 65 -24 406 -207 433 -233 6 -5 -56 25 -136 67 -401
207 -849 343 -1323 400 -76 9 -225 17 -365 18 l-236 2 4 -131 3 -131 -57 -8
c-206 -25 -494 -103 -727 -195 -165 -65 -162 -64 -153 -50 3 6 15 10 26 10 10
0 19 7 19 15 0 8 7 15 16 15 18 0 17 4 -24 97 -23 52 -30 61 -47 57 -81 -23
-431 -227 -573 -334 -24 -18 -40 -25 -36 -16 3 8 14 18 25 21 10 4 19 11 19
16 0 5 6 9 14 9 8 0 16 7 20 15 3 8 12 15 21 15 8 0 15 5 15 10 0 6 6 10 14
10 8 0 17 7 20 16 4 9 9 14 12 11 3 -2 17 6 31 19 14 13 29 21 34 18 5 -3 9 0
9 5 0 6 7 11 15 11 8 0 15 5 15 11 0 5 5 7 10 4 6 -3 10 -1 10 4 0 6 5 11 10
11 6 0 20 9 32 20 12 10 25 17 30 14 4 -3 8 0 8 6 0 6 5 8 10 5 6 -3 10 -1 10
5 0 6 5 8 10 5 6 -3 10 -1 10 5 0 6 5 8 10 5 6 -3 10 -1 10 4 0 6 42 32 93 57
50 25 94 48 95 49 2 2 -10 41 -28 87 -51 131 -60 166 -45 172 8 3 24 -20 43
-62 23 -49 33 -62 38 -49 3 10 -3 43 -14 73 -19 52 -19 55 -2 64 30 16 47 12
68 -17 26 -35 39 -24 19 16 -13 25 -13 31 -1 35 10 4 25 -17 49 -64 19 -39 39
-70 43 -70 25 1 34 23 38 94 3 42 4 76 2 76 -2 0 -17 -4 -34 -9 l-31 -9 26 52
c14 28 29 53 34 54 4 2 7 10 7 18 0 8 5 14 10 14 6 0 10 6 10 13 0 6 10 24 23
39 12 14 29 36 37 49 38 57 130 144 186 175 88 49 199 75 298 70 89 -5 254
-53 318 -92 20 -13 48 -26 62 -30 14 -3 26 -9 26 -13 0 -3 15 -13 33 -21 17
-7 37 -18 42 -22 75 -62 108 -75 194 -79 l74 -4 17 65 c31 119 77 191 145 228
40 22 108 14 161 -19z m1985 -86 c13 -16 12 -17 -3 -4 -10 7 -18 15 -18 17 0
8 8 3 21 -13z m-2876 -1017 c4 -124 5 -229 1 -234 -3 -5 -34 -13 -68 -16 -87
-10 -346 -77 -457 -119 -50 -19 -93 -32 -95 -28 -2 3 -29 67 -59 141 -73 179
-78 190 -92 190 -19 0 -175 -74 -278 -132 -235 -132 -432 -281 -633 -482 -248
-247 -401 -459 -556 -764 -48 -96 -88 -181 -88 -188 0 -8 7 -14 16 -14 13 0
15 -6 9 -27 -5 -16 -22 -84 -40 -153 -20 -82 -34 -118 -38 -106 -12 30 -8 119
8 179 8 32 15 72 14 90 l-1 32 -13 -30 c-8 -16 -15 -23 -15 -15 -1 13 -2 13
-7 0 -3 -8 -14 -33 -24 -55 -9 -23 -21 -54 -25 -70 -4 -17 -22 -68 -40 -115
-43 -111 -58 -178 -94 -426 -49 -333 -40 -657 25 -980 25 -122 70 -282 85
-297 4 -5 24 -1 45 7 54 23 68 19 18 -4 -23 -11 -45 -25 -48 -30 -11 -18 33
-140 99 -275 35 -71 74 -151 86 -177 27 -59 138 -225 197 -295 41 -49 54 -71
33 -58 -6 4 -7 -1 -3 -11 4 -12 8 -14 11 -5 5 14 52 -25 52 -43 0 -6 -9 0 -20
14 -11 14 -20 21 -20 17 0 -17 38 -58 42 -45 4 12 28 3 28 -11 0 -4 -18 -16
-41 -26 -30 -14 -45 -16 -57 -9 -59 37 -361 594 -368 679 -1 17 -23 84 -47
150 -128 341 -193 783 -168 1153 17 263 47 436 122 716 38 142 69 260 69 262
0 2 7 4 15 4 8 0 15 5 15 11 0 19 115 253 175 356 397 677 1042 1171 1807
1384 118 33 333 77 384 78 l32 1 7 -224z m-975 20 c0 -2 -7 -7 -16 -10 -8 -3
-12 -2 -9 4 6 10 25 14 25 6z m4190 -28 c72 -37 140 -130 179 -246 31 -92 33
-113 35 -338 1 -163 4 -215 15 -228 15 -18 27 -40 89 -164 24 -48 48 -95 53
-105 16 -30 57 -197 69 -282 6 -44 10 -127 8 -185 l-3 -105 -44 120 c-129 357
-278 637 -488 917 -110 148 -266 331 -371 434 -65 65 -70 71 -28 40 27 -20 59
-36 72 -36 16 0 45 20 82 58 82 80 152 123 217 134 34 6 89 -1 115 -14z
m-4335 -49 c-418 -232 -807 -596 -1085 -1014 -69 -105 -68 -104 -59 -43 15
101 74 280 97 298 10 7 39 59 53 93 6 15 15 27 20 27 5 0 9 5 9 11 0 12 41 58
121 138 62 62 87 81 104 81 8 0 15 5 15 10 0 6 5 10 10 10 6 0 34 16 63 35 28
19 57 35 64 35 7 0 13 5 13 10 0 6 7 10 15 10 9 0 18 7 21 15 4 8 13 15 20 15
8 0 17 7 20 15 4 8 13 15 20 15 8 0 17 6 20 14 3 8 18 16 34 20 16 3 48 17 71
32 67 42 152 84 170 84 9 0 19 7 23 15 3 8 14 15 25 15 11 0 23 4 26 10 3 5
25 19 48 30 23 11 65 33 92 49 28 16 57 29 65 30 8 0 -34 -27 -95 -60z m3408
18 c-3 -5 -1 -7 4 -4 13 8 65 -31 58 -43 -3 -4 1 -7 9 -6 7 0 68 -47 134 -106
71 -65 129 -108 141 -108 16 0 21 -6 21 -26 0 -14 -4 -23 -10 -19 -6 4 -7 11
-4 17 4 7 2 8 -4 4 -11 -7 -148 96 -278 209 -38 33 -82 70 -97 82 -35 27 -27
50 8 27 14 -9 22 -21 18 -27z m-1603 4 c0 -6 -4 -13 -10 -16 -5 -3 -10 1 -10
9 0 9 5 16 10 16 6 0 10 -4 10 -9z m-2300 -122 c-247 -217 -407 -390 -561
-604 -98 -138 -102 -143 -78 -100 40 70 161 236 249 339 43 52 283 290 323
321 21 17 49 40 64 53 14 12 29 22 32 22 3 0 -10 -14 -29 -31z m1630 -189 l0
-50 168 -2 167 -3 3 -47 3 -48 157 0 c207 0 269 -10 305 -50 15 -17 27 -37 27
-45 0 -11 54 -35 82 -35 4 0 10 25 13 55 7 52 8 54 34 50 14 -3 85 -12 156
-20 72 -9 177 -23 233 -32 l104 -16 -7 -36 c-13 -73 0 -69 -158 -45 -180 28
-249 33 -254 17 -2 -6 19 -19 49 -29 29 -9 81 -30 116 -45 34 -16 80 -33 100
-39 21 -5 54 -21 73 -35 19 -15 84 -58 144 -97 130 -83 216 -149 306 -235 l65
-63 54 55 c30 30 58 55 64 55 5 0 28 -18 52 -40 l43 -39 58 62 c33 34 121 130
198 212 76 83 146 158 155 169 17 17 19 16 61 -29 180 -194 377 -493 486 -735
24 -52 47 -95 53 -94 68 7 68 10 4 140 -118 241 -259 464 -406 638 -46 55 -93
112 -106 127 l-23 28 64 67 63 67 52 -50 c29 -28 52 -56 52 -62 0 -11 7 -22
38 -56 6 -7 12 -17 12 -22 1 -4 39 -60 85 -123 130 -176 245 -351 245 -371 0
-11 6 -19 13 -19 8 0 19 -12 26 -26 9 -21 17 -25 36 -21 29 5 32 -1 8 -18 -16
-12 -16 -14 1 -39 12 -20 14 -31 7 -40 -8 -9 -3 -37 19 -101 40 -119 37 -131
-5 -22 -54 142 -61 133 -15 -19 31 -103 39 -148 14 -79 -48 133 -67 175 -79
175 -8 0 -17 -4 -20 -10 -3 -5 21 -117 54 -248 88 -348 103 -459 108 -797 4
-268 5 -280 23 -283 24 -4 24 -4 10 -202 -25 -346 -109 -694 -239 -990 l-46
-105 -3 63 c-3 54 3 78 36 165 73 189 120 365 157 584 31 181 31 235 0 87 -35
-166 -109 -406 -184 -591 -12 -29 -30 -76 -41 -103 -34 -87 -159 -330 -226
-441 -35 -59 -64 -110 -64 -113 0 -9 -80 -125 -91 -131 -5 -3 -17 -1 -28 5
-19 10 -16 15 39 93 54 75 60 87 60 134 0 30 7 64 18 83 16 29 16 31 0 41 -15
8 -18 24 -18 84 l0 74 56 -19 55 -19 34 71 c19 40 33 73 31 75 -2 2 -41 19
-87 37 l-84 34 -3 46 c-2 25 -2 46 0 46 2 0 54 -20 117 -45 63 -25 115 -44
116 -43 26 44 78 192 115 323 17 61 39 139 50 175 11 36 34 162 51 280 38 266
43 520 15 715 -10 66 -22 125 -26 130 -4 6 -13 46 -20 90 -27 176 -112 475
-134 475 -7 0 -111 -35 -232 -79 -120 -43 -264 -93 -319 -111 -55 -18 -103
-36 -108 -39 -4 -4 2 -34 13 -67 l20 -59 -28 32 c-36 43 -69 54 -185 60 -90 6
-100 8 -109 29 -12 26 -75 55 -171 80 -37 9 -67 19 -67 23 0 4 16 15 35 25 19
11 35 24 35 30 0 15 -148 206 -160 206 -5 0 -19 -8 -30 -17 -36 -31 -26 -75
36 -164 50 -71 54 -79 33 -75 -13 3 -57 10 -98 17 l-74 11 6 143 6 143 -77 35
c-184 83 -465 139 -867 172 -220 18 -650 19 -845 2 l-135 -12 -3 -197 c-2
-195 -3 -198 -25 -202 -12 -3 -104 -7 -205 -11 -351 -11 -769 -66 -947 -124
-74 -24 -82 -29 -103 -68 -20 -37 -28 -43 -68 -49 -25 -3 -47 -4 -49 -2 -3 2
24 63 59 134 209 421 552 767 971 980 67 34 127 63 134 65 19 7 -8 59 -29 59
-10 0 -93 -14 -185 -30 -93 -17 -172 -27 -176 -23 -11 12 -21 90 -12 96 4 3
82 18 173 33 91 15 166 28 168 29 1 2 -6 25 -17 54 l-21 51 35 14 c125 53 455
139 553 145 20 1 22 -3 22 -49z m-816 -75 c-4 -8 -8 -15 -10 -15 -2 0 -4 7 -4
15 0 8 4 15 10 15 5 0 7 -7 4 -15z m2146 -285 c0 -5 -5 -10 -11 -10 -5 0 -7 5
-4 10 3 6 8 10 11 10 2 0 4 -4 4 -10z m-3632 -220 c-7 -10 -14 -17 -17 -15 -4
4 18 35 25 35 2 0 -1 -9 -8 -20z m6429 -112 c-3 -8 -6 -5 -6 6 -1 11 2 17 5
13 3 -3 4 -12 1 -19z m-7680 -140 c-3 -8 -6 -5 -6 6 -1 11 2 17 5 13 3 -3 4
-12 1 -19z m800 -54 c-2 -2 -89 18 -96 22 -1 2 0 7 3 13 4 7 23 3 51 -11 25
-12 43 -23 42 -24z m-810 -6 c-3 -8 -6 -5 -6 6 -1 11 2 17 5 13 3 -3 4 -12 1
-19z m-10 -60 c-3 -8 -6 -5 -6 6 -1 11 2 17 5 13 3 -3 4 -12 1 -19z m1223 2
c-6 -11 -13 -20 -16 -20 -2 0 0 9 6 20 6 11 13 20 16 20 2 0 0 -9 -6 -20z
m-71 -130 c-28 -56 -53 -99 -56 -96 -2 2 0 12 6 23 5 10 28 53 51 96 23 42 44
77 46 77 3 0 -18 -45 -47 -100z m-2362 -32 c-3 -8 -6 -5 -6 6 -1 11 2 17 5 13
3 -3 4 -12 1 -19z m8142 -198 c0 -9 -4 -8 -9 5 -5 11 -9 27 -9 35 0 9 4 8 9
-5 5 -11 9 -27 9 -35z m-32 -22 c-3 -8 -6 -5 -6 6 -1 11 2 17 5 13 3 -3 4 -12
1 -19z m-5449 -50 c85 -34 101 -44 97 -59 -4 -12 1 -20 17 -25 13 -4 24 -2 26
5 6 17 18 14 153 -41 121 -50 141 -67 79 -68 -53 -1 -118 -85 -156 -204 -23
-69 -28 -104 -32 -233 -4 -136 -3 -153 12 -153 9 0 16 -3 16 -7 0 -29 42 -346
50 -378 13 -53 13 -55 -5 -55 -21 0 -13 -46 31 -170 19 -52 35 -99 37 -104 2
-10 -3 -12 -203 -65 -221 -59 -206 -58 -219 -19 -45 138 -53 275 -22 400 11
46 22 106 24 134 2 28 7 56 11 62 6 10 -53 87 -81 105 -7 4 -13 12 -13 17 0 5
-10 20 -23 34 -22 23 -22 28 -15 133 4 59 14 154 23 211 9 56 13 112 10 125
-5 17 -4 19 4 7 8 -11 11 -3 10 35 0 60 5 94 25 160 20 63 20 122 1 159 -31
59 -20 58 143 -6z m5489 30 c-3 -8 -6 -5 -6 6 -1 11 2 17 5 13 3 -3 4 -12 1
-19z m10 -40 c-3 -8 -6 -5 -6 6 -1 11 2 17 5 13 3 -3 4 -12 1 -19z m-1802 -19
c184 -23 428 -70 471 -90 24 -12 34 -28 56 -94 44 -134 59 -222 65 -383 6
-164 -4 -258 -39 -370 -27 -88 -32 -74 -6 18 29 106 36 350 14 478 -23 134
-82 309 -108 323 -67 36 -365 91 -653 120 -66 6 -124 16 -130 22 -13 12 113 3
330 -24z m-3066 -60 c-20 -8 -36 -31 -67 -97 -102 -220 -139 -427 -112 -632
13 -98 49 -238 76 -293 14 -29 14 -30 -1 -13 -23 30 -72 163 -86 236 -18 92
-15 288 5 392 31 163 126 401 163 411 33 9 48 6 22 -4z m581 -272 c22 -30 40
-58 40 -63 0 -6 -14 -29 -31 -52 -17 -23 -27 -42 -22 -42 4 0 1 -5 -7 -11 -13
-9 -13 -10 1 -6 25 8 59 -34 59 -71 l0 -32 -55 0 c-51 0 -55 2 -55 24 0 13 -6
29 -14 35 -17 14 -27 59 -14 67 5 3 4 12 -3 20 -9 11 -9 17 1 29 10 12 9 20
-4 39 -14 22 -24 25 -93 28 -43 2 -93 2 -110 0 l-33 -3 0 -58 c0 -58 0 -58
-30 -59 -27 -1 -30 3 -31 31 -1 27 -3 25 -11 -15 -13 -59 -28 -62 -29 -5 l-2
42 -7 -35 c-5 -24 -8 -2 -9 72 l-1 108 178 3 c97 1 191 4 209 5 28 2 37 -5 73
-51z m1083 -2 c-32 -30 -63 -55 -69 -55 -6 0 -22 -9 -36 -19 -22 -18 -24 -18
-24 -1 0 10 5 16 11 14 6 -3 26 12 45 33 l35 37 -41 -32 c-23 -17 -44 -29 -47
-26 -3 3 -21 -6 -40 -20 -19 -14 -40 -26 -48 -27 -8 -1 -3 -4 11 -9 14 -4 35
-5 48 -3 41 9 24 -22 -47 -86 -87 -77 -101 -78 -101 -8 0 51 1 54 77 136 102
110 120 121 211 121 l72 0 -57 -55z m571 43 c-3 -7 -26 -30 -50 -50 -39 -33
-52 -38 -95 -38 l-49 0 -2 -132 c-1 -96 -3 -119 -8 -83 l-7 50 -1 -47 c-2 -35
-6 -48 -17 -48 -10 0 -15 11 -16 38 -1 20 -5 48 -9 62 -6 19 -8 9 -9 -37 -1
-35 -5 -63 -11 -63 -5 0 -11 28 -12 63 l-2 62 -3 -62 c-6 -104 -23 -72 -23 42
0 63 -4 105 -10 105 -5 0 -10 11 -10 25 0 24 -3 25 -53 25 -49 0 -56 3 -92 40
l-39 40 61 0 c34 0 65 5 68 10 10 16 396 13 389 -2z m428 -31 c25 -29 28 -40
30 -127 l2 -95 5 90 c5 79 8 87 19 68 7 -13 12 -57 12 -107 l0 -86 -30 0 c-26
0 -30 4 -31 28 l-1 27 -8 -30 -8 -30 -2 35 -3 35 -4 -32 c-7 -52 -23 -38 -23
18 0 58 -18 141 -34 152 -12 8 -221 6 -235 -2 -5 -4 -11 -15 -14 -26 -3 -13
-5 -9 -6 12 -1 36 6 40 94 47 28 2 -1 2 -62 0 -62 -2 -113 -2 -113 1 0 3 12
19 28 36 l27 31 165 -7 165 -6 27 -32z m589 -4 c54 -75 54 -71 20 -118 l-31
-44 30 -34 c46 -52 41 -67 -22 -66 -46 0 -56 4 -76 30 -23 29 -21 33 18 30 10
0 11 1 2 5 -6 3 -10 9 -7 14 3 4 -4 6 -15 3 -23 -6 -26 6 -7 26 10 11 10 13 0
7 -15 -9 -17 22 -3 44 6 10 3 21 -11 36 -17 19 -32 22 -108 23 -118 2 -121 1
-121 -65 0 -33 -4 -54 -11 -54 -6 0 -9 7 -5 15 3 8 1 15 -4 15 -6 0 -10 -7
-10 -15 0 -8 -7 -15 -15 -15 -10 0 -15 10 -15 32 0 46 -16 21 -19 -29 -1 -7
-5 -13 -11 -13 -5 0 -11 19 -12 43 l-1 42 -7 -45 c-5 -34 -7 -19 -8 62 l-2
108 178 3 c97 1 191 4 208 5 26 2 36 -5 65 -45z m-2152 -2 c-31 -36 -39 -39
-84 -40 -27 -1 -87 -4 -132 -8 -79 -6 -83 -7 -83 -29 0 -28 -30 -34 -31 -6 0
14 -2 14 -8 -3 -8 -19 -9 -18 -13 5 -5 25 -5 25 -13 3 -4 -13 -14 -23 -21 -23
-8 0 -14 10 -15 23 0 21 -1 21 -9 2 -6 -14 -9 1 -9 48 l-1 67 226 0 226 0 -33
-39z m243 29 c2 -5 2 -46 0 -90 -3 -61 -7 -80 -18 -80 -9 0 -14 -11 -14 -29 0
-16 -7 -34 -15 -41 -13 -11 -15 -5 -15 48 0 59 -1 61 -27 64 -26 3 -28 6 -31
57 -2 29 -1 60 2 67 6 16 112 20 118 4z m978 -92 c0 -33 -20 -38 -21 -5 -1 20
-1 21 -7 2 -5 -13 -17 -21 -34 -22 -23 -2 -28 2 -28 21 0 31 7 36 52 34 35 -1
38 -4 38 -30z m-790 -13 c0 -2 -10 -10 -22 -16 -21 -11 -22 -11 -9 4 13 16 31
23 31 12z m-487 -65 c-30 -29 -51 -40 -73 -40 -16 0 -30 2 -30 5 0 2 14 20 31
40 26 30 37 35 73 35 l41 -1 -42 -39z m107 -109 c0 -5 -19 -26 -42 -45 -35
-31 -49 -36 -90 -36 -30 0 -47 4 -43 10 4 6 -19 10 -61 10 -37 0 -84 5 -104
11 l-38 12 26 23 c26 22 34 23 190 24 92 0 162 -4 162 -9z m-202 -78 c-10 -2
-26 -2 -35 0 -10 3 -2 5 17 5 19 0 27 -2 18 -5z m732 -260 c0 -82 -4 -133 -10
-133 -5 0 -10 14 -10 30 0 40 -18 38 -23 -2 -2 -18 -4 -1 -5 37 -1 39 3 89 7
113 5 23 5 42 1 42 -10 0 -20 -79 -20 -156 0 -80 -20 -86 -21 -6 -1 31 -5 84
-9 117 -5 40 -6 22 -3 -57 4 -78 2 -118 -5 -118 -6 0 -13 38 -16 88 -3 48 -9
115 -12 149 -8 89 4 99 73 59 l53 -30 0 -133z m335 58 c-4 -14 -9 -20 -13 -14
-4 5 -14 10 -22 11 -8 0 -30 2 -47 3 -30 2 -33 5 -33 33 0 28 6 34 58 61 l57
30 3 -49 c2 -28 0 -61 -3 -75z m575 109 c0 -5 16 -33 36 -60 45 -63 40 -80
-24 -80 -42 0 -51 4 -62 25 -13 24 -16 25 -122 25 l-108 0 0 -35 c0 -32 -2
-35 -30 -35 -21 0 -30 5 -31 18 -1 15 -2 15 -6 1 -5 -22 -43 -33 -43 -13 0 8
-4 14 -10 14 -15 0 -13 137 3 143 24 10 397 7 397 -3z m1400 -7 c-2 -76 -25
-266 -40 -331 -23 -97 -26 -103 -44 -96 -11 4 -11 14 -4 47 16 71 48 300 48
345 0 35 3 42 20 42 11 0 20 -3 20 -7z m-2578 -54 l-43 -41 -123 5 -124 5 -6
-30 c-3 -17 -6 -43 -6 -59 0 -16 -4 -29 -10 -29 -5 0 -10 5 -10 11 0 6 -6 16
-13 23 -15 15 -39 3 -50 -24 -4 -11 -6 -10 -6 5 -1 17 -3 17 -11 5 -7 -11 -10
-1 -10 34 0 41 5 56 36 92 l35 44 192 0 192 0 -43 -41z m5065 19 c-3 -8 -6 -5
-6 6 -1 11 2 17 5 13 3 -3 4 -12 1 -19z m-20 -130 c-3 -8 -6 -5 -6 6 -1 11 2
17 5 13 3 -3 4 -12 1 -19z m-3826 -6 c-17 -33 -35 -40 -106 -46 -38 -3 -92 -8
-118 -12 -61 -8 -74 3 -56 45 l14 31 138 0 c130 0 137 -1 128 -18z m-611 -61
c0 -65 -2 -71 -31 -95 -18 -15 -43 -26 -60 -26 l-29 0 0 75 c0 66 2 75 18 75
11 0 27 9 37 20 10 11 29 20 42 20 22 0 23 -3 23 -69z m-950 44 c0 -8 -4 -15
-10 -15 -5 0 -10 7 -10 15 0 8 5 15 10 15 6 0 10 -7 10 -15z m5377 -37 c-3 -8
-6 -5 -6 6 -1 11 2 17 5 13 3 -3 4 -12 1 -19z m-4237 -94 c0 -59 -3 -74 -15
-74 -12 0 -15 16 -15 86 0 76 2 85 15 74 11 -9 15 -33 15 -86z m1371 39 c-12
-20 -14 -14 -5 12 4 9 9 14 11 11 3 -2 0 -13 -6 -23z m2856 5 c-3 -8 -6 -5 -6
6 -1 11 2 17 5 13 3 -3 4 -12 1 -19z m-4982 -38 c-3 -5 -21 -10 -38 -11 -28
-1 -29 -2 -9 -8 24 -6 24 -6 4 -24 -17 -16 -30 -17 -96 -11 -54 5 -76 3 -76
-5 0 -7 -21 -11 -55 -11 -61 0 -74 14 -22 24 23 4 38 15 45 31 11 25 13 25
132 25 78 0 119 -4 115 -10z m4972 -12 c-3 -8 -6 -5 -6 6 -1 11 2 17 5 13 3
-3 4 -12 1 -19z m-2974 -30 c-10 -18 -50 -65 -88 -104 -124 -126 -276 -185
-585 -225 -351 -46 -659 -19 -1008 87 l-82 25 -103 -35 c-371 -126 -697 -146
-1090 -65 -185 37 -312 103 -423 220 -98 103 -91 113 9 14 100 -99 178 -146
302 -184 90 -28 331 -67 465 -76 198 -13 469 27 714 105 l128 41 127 -36 c276
-78 441 -100 696 -92 189 6 408 34 535 68 162 43 308 138 385 248 33 49 43 53
18 9z m2964 -20 c-3 -8 -6 -5 -6 6 -1 11 2 17 5 13 3 -3 4 -12 1 -19z m-5109
-5 c-10 -2 -26 -2 -35 0 -10 3 -2 5 17 5 19 0 27 -2 18 -5z m5089 -85 c-3 -8
-6 -5 -6 6 -1 11 2 17 5 13 3 -3 4 -12 1 -19z m-10 -40 c-3 -8 -6 -5 -6 6 -1
11 2 17 5 13 3 -3 4 -12 1 -19z m-10 -40 c-3 -8 -6 -5 -6 6 -1 11 2 17 5 13 3
-3 4 -12 1 -19z m-10 -40 c-3 -8 -6 -5 -6 6 -1 11 2 17 5 13 3 -3 4 -12 1 -19z
m-2378 -153 c47 -8 86 -17 89 -19 18 -18 -277 -376 -309 -376 -11 0 -25 -14
-35 -32 -19 -38 -51 -76 -77 -89 -12 -7 -2 20 32 88 61 121 101 221 136 338
14 50 28 96 30 103 3 7 14 10 27 7 13 -2 61 -11 107 -20z m-3626 -43 c29 -44
45 -98 25 -86 -8 5 -8 1 2 -11 9 -11 10 -16 3 -11 -9 5 -13 0 -13 -17 0 -30
-27 -55 -68 -63 l-31 -6 21 -42 c11 -22 49 -84 84 -136 247 -372 678 -654
1122 -734 l32 -5 0 84 c0 49 -4 86 -10 86 -5 1 -13 2 -17 3 -97 25 -113 39
-113 93 0 24 -7 33 -35 46 -20 9 -39 25 -42 34 -21 57 -113 172 -237 296 -186
185 -263 271 -353 389 -40 53 -73 99 -73 101 0 9 126 -7 132 -17 12 -18 9 -23
-14 -30 -18 -4 -20 -8 -11 -17 9 -9 16 -9 28 1 18 15 14 18 89 -75 l55 -70
-26 -21 c-20 -16 -23 -23 -13 -29 9 -5 20 0 32 15 l19 24 27 -35 c15 -18 62
-71 105 -117 50 -52 77 -88 73 -97 -3 -10 1 -15 12 -15 9 0 59 -39 110 -87
l93 -86 133 2 133 2 13 -48 c8 -26 20 -58 27 -70 13 -19 12 -22 -6 -28 -15 -4
-23 -22 -34 -68 l-14 -62 26 -6 c14 -4 69 -7 121 -8 l95 -2 -88 -34 c-49 -18
-96 -40 -105 -48 -10 -8 -25 -17 -34 -20 -14 -5 -18 -18 -18 -60 0 -30 -3 -69
-6 -86 -6 -27 -10 -31 -40 -31 -30 0 -34 3 -34 25 0 17 -6 26 -22 29 -305 64
-648 170 -648 201 0 7 -19 25 -42 40 -24 16 -68 48 -99 72 -30 23 -60 43 -66
43 -6 0 -18 -11 -27 -25 l-16 -24 -67 39 c-38 21 -106 65 -153 97 -75 51 -94
71 -162 168 -43 61 -114 182 -159 270 -69 136 -78 160 -62 162 10 1 58 5 107
8 83 7 91 9 127 42 21 19 44 50 50 68 15 40 28 37 62 -13z m2511 40 c3 -5 -6
-21 -18 -37 l-23 -29 -42 18 c-44 20 -48 25 -29 44 13 13 104 17 112 4z
m-1664 -199 l0 -197 -41 39 c-44 43 -195 215 -247 281 l-32 41 103 7 c84 6
204 20 215 25 1 0 2 -88 2 -196z m1567 129 l32 -27 -23 -28 -23 -29 -37 24
c-19 12 -36 26 -36 29 0 10 41 59 48 59 4 0 21 -13 39 -28z m922 -89 c-34 -93
-133 -296 -184 -375 -100 -155 -146 -209 -219 -256 -91 -58 -267 -151 -376
-197 l-84 -36 -18 23 c-17 23 -17 23 -50 4 -134 -77 -220 -119 -269 -131 -117
-30 -287 -57 -396 -62 -111 -5 -113 -6 -113 -29 0 -21 -5 -24 -34 -24 -32 0
-34 2 -40 43 -3 23 -6 76 -6 117 -2 133 -10 120 73 119 48 -1 62 -4 42 -8 -26
-5 -31 -11 -37 -51 -9 -62 -10 -138 0 -143 4 -3 50 1 102 9 561 82 1054 437
1316 947 l39 77 100 1 c82 0 135 9 172 28 2 0 -7 -25 -18 -56z m-963 -15 c4
-5 -5 -21 -19 -35 l-25 -26 -31 22 c-37 26 -38 37 -10 68 l22 22 28 -20 c16
-11 31 -25 35 -31z m-91 -58 l29 -30 -24 -25 c-28 -30 -28 -30 -64 -1 l-28 24
23 31 c12 17 26 31 29 31 3 0 19 -13 35 -30z m-5631 -195 c35 -94 96 -237 135
-319 39 -82 69 -151 66 -154 -8 -9 -11 -3 -85 162 -59 131 -190 465 -190 484
0 16 15 -20 74 -173z m816 151 c0 -2 -7 -6 -15 -10 -8 -3 -15 -1 -15 4 0 6 7
10 15 10 8 0 15 -2 15 -4z m4743 -36 l25 -30 -26 -30 -27 -30 -29 29 -29 29
24 31 c13 16 27 30 31 30 3 1 18 -12 31 -29z m-5189 -50 c5 -17 4 -20 -2 -10
-5 8 -13 26 -16 40 -5 17 -4 20 2 10 5 -8 13 -26 16 -40z m7616 -69 c-36 -100
-37 -109 -5 -121 14 -5 25 -15 25 -22 0 -9 -3 -9 -12 0 -15 15 -58 16 -58 2 0
-5 -5 -10 -11 -10 -6 0 -9 7 -5 15 4 10 -5 22 -27 35 -33 21 -30 28 4 9 30
-15 42 -1 79 96 18 47 35 84 37 82 2 -3 -10 -41 -27 -86z m-2494 37 c16 -30
15 -31 -14 -61 -28 -28 -32 -29 -47 -14 -23 23 -26 21 -13 -8 10 -23 8 -29
-20 -58 -108 -112 -132 -142 -181 -222 -68 -113 -91 -144 -91 -121 0 9 -9 25
-20 36 l-20 20 20 0 c49 0 79 80 47 124 -12 17 2 34 147 180 89 88 164 160
169 158 4 -2 14 -17 23 -34z m-3586 -27 c0 -8 -83 -42 -99 -41 -9 1 32 24 46
26 6 1 19 7 30 13 22 13 23 13 23 2z m5945 -89 c-3 -3 -11 0 -18 7 -9 10 -8
11 6 5 10 -3 15 -9 12 -12z m-6176 -157 c0 -5 -8 6 -19 25 -11 19 -19 40 -19
45 0 6 8 -6 19 -25 11 -19 19 -39 19 -45z m2834 48 c-7 -2 -21 -2 -30 0 -10 3
-4 5 12 5 17 0 24 -2 18 -5z m-2804 -113 c11 -24 11 -24 -3 -6 -9 11 -16 24
-16 30 0 12 5 7 19 -24z m5560 -475 c-33 -46 -81 -94 -64 -65 11 20 87 110 92
110 2 0 -10 -20 -28 -45z m1026 -124 c-9 -8 -36 -10 -30 -2 2 4 11 8 20 8 8 0
13 -3 10 -6z m-22 -33 c6 -19 -24 -60 -39 -54 -8 3 -11 0 -8 -8 5 -13 -14 -38
-132 -173 -55 -63 -63 -69 -82 -59 -20 10 -14 19 93 140 72 82 121 130 134
131 26 2 41 15 18 15 -9 0 -17 5 -17 10 0 14 28 12 33 -2z m-3733 -363 l0
-245 -350 0 c-192 0 -350 4 -350 8 0 5 13 28 30 50 41 57 100 86 162 80 47 -5
48 -4 48 22 0 35 28 59 82 71 77 17 223 95 285 153 32 30 65 66 72 80 8 14 16
26 18 26 2 0 3 -110 3 -245z m-2780 96 c0 -5 -13 -14 -30 -20 -37 -13 -39 -6
-2 13 33 18 32 18 32 7z m915 -41 c4 -7 -69 -10 -212 -9 -131 0 -210 4 -198 9
29 12 402 12 410 0z m230 0 c4 -6 -15 -10 -49 -10 -30 0 -58 5 -61 10 -4 6 15
10 49 10 30 0 58 -4 61 -10z m3950 0 c-3 -5 -33 -10 -66 -10 -38 0 -58 4 -54
10 3 6 33 10 66 10 38 0 58 -4 54 -10z m230 0 c14 -6 -3 -9 -53 -9 -46 -1 -71
3 -67 9 7 12 92 12 120 0z m-4822 -37 c-13 -2 -35 -2 -50 0 -16 2 -5 4 22 4
28 0 40 -2 28 -4z m4880 0 c-13 -2 -33 -2 -45 0 -13 2 -3 4 22 4 25 0 35 -2
23 -4z m-4733 -157 c8 -2 -124 -4 -295 -4 -170 0 -301 3 -291 7 18 7 553 4
586 -3z m5115 4 c12 -5 -110 -8 -290 -7 l-310 1 245 6 c135 3 265 6 290 7 25
1 54 -2 65 -7z m-4790 -25 c-33 -21 -105 -35 -105 -21 0 15 71 46 105 46 l40
-1 -40 -24z m3880 15 c-3 -5 -12 -7 -20 -3 -21 7 -19 13 6 13 11 0 18 -4 14
-10z m-5440 -35 c-16 -7 -41 -15 -55 -19 -19 -5 -16 -2 10 13 19 11 44 20 55
20 15 -1 13 -4 -10 -14z m1915 -105 c0 -14 -35 -30 -66 -30 -26 0 -27 0 -9 20
18 20 75 28 75 10z m3245 -10 c18 -20 17 -20 -9 -20 -34 0 -69 18 -61 31 10
16 51 10 70 -11z m-115 -314 c14 -2 -68 -4 -182 -5 -114 0 -209 2 -211 7 -5 7
336 5 393 -2z"/>
<path d="M7870 4248 c74 -110 141 -197 230 -297 30 -35 59 -69 63 -77 5 -8 13
-12 18 -9 10 7 -9 36 -56 90 -87 99 -122 143 -207 259 -52 72 -100 132 -107
134 -6 2 20 -43 59 -100z"/>
<path d="M8220 3831 c0 -6 4 -13 10 -16 6 -3 7 1 4 9 -7 18 -14 21 -14 7z"/>
<path d="M10492 9212 c-10 -7 -9 -16 3 -45 19 -46 25 -47 15 -3 -5 22 -3 39 3
45 13 13 -2 14 -21 3z"/>
<path d="M11630 8228 c0 -12 25 -16 138 -21 129 -6 210 -16 276 -33 35 -8 33
10 -6 39 -21 16 -50 19 -216 24 -166 5 -192 4 -192 -9z"/>
<path d="M12239 8181 c-1 -17 -2 -37 -3 -43 -1 -7 9 -14 21 -16 16 -2 22 3 25
20 2 19 9 23 34 21 36 -2 319 -42 352 -50 17 -4 22 -1 22 15 0 14 -8 22 -27
26 -37 8 -282 43 -360 51 l-63 7 -1 -31z"/>
<path d="M10610 8154 c-41 -7 -105 -19 -142 -25 -43 -8 -68 -17 -68 -25 0 -7
3 -15 8 -17 11 -7 323 47 322 56 0 4 0 12 0 17 0 13 -27 12 -120 -6z"/>
<path d="M11622 8059 l3 -44 120 -6 c117 -6 121 -6 170 21 28 15 49 31 48 36
-3 15 -62 24 -206 31 l-138 6 3 -44z m158 27 c0 -3 -4 -8 -10 -11 -5 -3 -10
-1 -10 4 0 6 5 11 10 11 6 0 10 -2 10 -4z"/>
<path d="M11999 8044 c-7 -8 -26 -23 -43 -31 l-31 -17 25 -6 c14 -4 34 -3 45
3 26 12 65 48 65 59 0 14 -47 9 -61 -8z"/>
<path d="M12070 8009 l-35 -36 119 -32 c66 -18 176 -57 245 -87 69 -31 132
-56 140 -57 18 -2 34 63 19 80 -17 21 -76 35 -226 51 l-147 17 3 41 c3 40 3
40 -40 50 -42 10 -44 9 -78 -27z"/>
<path d="M12220 7990 c0 -17 7 -20 44 -20 24 0 59 -2 77 -5 20 -3 5 5 -35 20
-84 30 -86 30 -86 5z"/>
<path d="M10710 7890 c-30 -16 -95 -67 -144 -113 -73 -69 -87 -87 -79 -101 9
-16 17 -11 69 41 32 32 95 91 139 130 44 40 78 72 75 72 -3 0 -30 -13 -60 -29z"/>
<path d="M11620 7885 l0 -35 44 27 c25 15 42 31 40 35 -3 4 -23 8 -45 8 -38 0
-39 -1 -39 -35z"/>
<path d="M10772 7867 c-26 -24 -58 -53 -72 -65 -18 -17 -1 -12 67 19 87 40 91
43 80 65 -5 13 -14 24 -19 24 -5 0 -30 -19 -56 -43z"/>
<path d="M11705 7862 c-65 -43 -68 -47 -43 -50 19 -2 50 10 98 40 38 24 70 46
70 51 0 21 -63 0 -125 -41z"/>
<path d="M11315 7895 c-5 -2 -45 -11 -88 -20 -42 -9 -75 -20 -72 -25 3 -4 -5
-6 -16 -3 -16 4 -20 2 -17 -8 6 -18 53 -22 156 -14 70 6 82 9 82 25 0 41 -14
55 -45 45z"/>
<path d="M11857 7870 c-42 -26 -43 -30 -10 -30 23 0 32 5 36 22 8 28 7 29 -26
8z"/>
<path d="M12595 7809 c-5 -30 -3 -44 6 -50 23 -14 27 -11 34 32 5 30 3 44 -6
50 -23 14 -27 11 -34 -32z"/>
<path d="M12665 7773 c-5 -36 -3 -49 8 -57 8 -6 55 -39 105 -74 49 -34 125
-96 169 -137 l80 -74 32 33 32 33 -68 63 c-76 70 -251 203 -311 237 l-40 22
-7 -46z"/>
<path d="M11255 7788 c-44 -5 -96 -7 -116 -4 -32 3 -36 1 -32 -15 3 -11 8 -21
12 -23 3 -2 47 4 96 15 50 10 100 19 112 19 12 0 25 5 28 10 3 6 0 9 -7 9 -7
-1 -49 -6 -93 -11z"/>
<path d="M11848 7793 c6 -2 18 -2 25 0 6 3 1 5 -13 5 -14 0 -19 -2 -12 -5z"/>
<path d="M10406 7708 c-48 -33 -123 -96 -169 -138 l-82 -78 24 -26 c31 -33 41
-33 72 0 13 14 64 58 112 97 85 69 88 73 85 109 -2 30 4 44 27 68 16 16 26 30
23 30 -3 0 -44 -28 -92 -62z"/>
<path d="M10785 7719 l-30 -20 45 6 c52 8 54 10 45 24 -9 15 -26 13 -60 -10z"/>
<path d="M10753 7659 c-62 -10 -121 -24 -132 -31 -19 -13 -19 -16 -5 -36 14
-20 42 -33 30 -14 -3 5 10 8 29 8 18 -1 33 -3 33 -6 -1 -20 11 -16 85 22 45
24 84 44 85 45 2 1 0 8 -5 15 -7 11 -26 11 -120 -3z"/>
<path d="M12615 7574 c-15 -25 -25 -47 -23 -49 12 -12 254 -83 261 -76 8 8
-75 78 -165 139 l-46 32 -27 -46z"/>
<path d="M14453 7405 c0 -8 6 -15 13 -15 8 0 11 6 8 15 -4 8 -9 15 -13 15 -4
0 -8 -7 -8 -15z"/>
<path d="M14466 7138 c3 -13 9 -48 14 -78 6 -30 23 -131 39 -225 74 -427 77
-784 11 -1246 -6 -42 -15 -91 -20 -108 -5 -17 -5 -31 -1 -31 9 0 64 216 80
315 72 417 43 917 -71 1263 -22 67 -44 125 -49 127 -4 3 -6 -5 -3 -17z"/>
<path d="M11280 6645 c-7 -9 -8 -15 -2 -15 5 0 12 7 16 15 3 8 4 15 2 15 -2 0
-9 -7 -16 -15z"/>
<path d="M10633 6413 c9 -2 23 -2 30 0 6 3 -1 5 -18 5 -16 0 -22 -2 -12 -5z"/>
<path d="M12078 6233 c6 -2 18 -2 25 0 6 3 1 5 -13 5 -14 0 -19 -2 -12 -5z"/>
<path d="M10625 5347 c-13 -10 -15 -16 -6 -21 12 -8 41 10 41 25 0 13 -13 11
-35 -4z"/>
<path d="M10776 5177 c-14 -10 -16 -16 -7 -22 15 -9 35 8 30 24 -3 8 -10 7
-23 -2z"/>
<path d="M10861 5096 c-8 -10 -9 -16 -1 -21 5 -3 13 1 16 10 9 22 -1 29 -15
11z"/>
<path d="M10083 5043 c-21 -14 -42 -29 -47 -34 -9 -8 68 -124 126 -192 l33
-38 44 39 44 38 -81 106 -80 106 -39 -25z"/>
<path d="M13204 5218 c-20 -40 -47 -90 -61 -112 l-25 -39 23 -18 c12 -9 35
-24 50 -33 l28 -16 55 98 c83 149 83 145 30 170 -25 12 -49 22 -54 22 -5 0
-26 -32 -46 -72z"/>
<path d="M9747 11448 c-15 -12 -14 -19 16 -83 19 -38 40 -85 48 -102 11 -26
18 -32 34 -27 11 4 21 8 23 9 2 2 -11 34 -28 72 -18 37 -39 85 -47 106 -17 41
-21 43 -46 25z"/>
<path d="M9618 11398 c-16 -6 -28 -13 -28 -18 0 -5 27 -76 60 -158 33 -83 60
-155 60 -160 0 -5 9 -17 20 -27 12 -11 20 -13 20 -6 0 7 4 10 9 7 16 -10 21
25 7 52 -7 15 -21 52 -31 82 -10 30 -21 60 -25 65 -4 6 -15 35 -25 65 -34 104
-37 108 -67 98z"/>
<path d="M13406 11357 c-11 -8 -17 -19 -15 -24 2 -6 12 0 22 13 20 27 19 30
-7 11z"/>
<path d="M13456 11286 c-3 -35 -16 -92 -27 -126 -13 -41 -17 -66 -11 -72 7 -7
13 -4 20 8 25 50 51 237 34 248 -5 3 -12 -21 -16 -58z"/>
<path d="M9843 11222 c-17 -11 37 -117 60 -117 23 0 22 10 -5 73 -22 51 -32
59 -55 44z"/>
<path d="M12570 11119 c0 -54 4 -99 8 -99 47 0 516 -103 578 -127 11 -4 14 9
14 65 l0 70 -47 20 c-73 30 -314 108 -440 141 l-113 30 0 -100z"/>
<path d="M9923 11052 c-10 -6 -8 -17 7 -47 11 -22 31 -67 44 -100 24 -58 25
-59 26 -25 0 19 -11 66 -25 104 -14 38 -25 71 -25 72 0 6 -14 4 -27 -4z"/>
<path d="M9768 10988 c-14 -12 -13 -20 19 -88 113 -237 115 -242 134 -223 9 9
-113 315 -128 320 -5 2 -16 -2 -25 -9z"/>
<path d="M9660 10970 c-8 -5 -10 -10 -5 -10 6 0 17 5 25 10 8 5 11 10 5 10 -5
0 -17 -5 -25 -10z"/>
<path d="M13440 10955 c0 -2 24 -17 53 -31 96 -49 321 -176 375 -213 29 -20
61 -40 70 -46 26 -15 173 -121 202 -145 42 -36 10 -18 -100 55 -158 104 -312
194 -475 276 l-146 74 -38 -45 -39 -45 127 -46 c152 -56 216 -82 386 -161 137
-64 317 -159 311 -165 -3 -3 -77 27 -151 62 -193 91 -619 257 -624 244 -4 -13
-16 -6 149 -89 292 -147 474 -259 710 -438 133 -101 279 -222 345 -284 43 -41
54 -45 73 -26 9 9 12 5 12 -19 0 -17 7 -36 15 -43 29 -24 107 24 98 61 -4 14
0 19 15 19 11 0 23 7 26 16 8 21 8 20 -10 38 -19 20 -54 21 -54 2 0 -22 -19
-29 -36 -15 -14 11 -11 17 22 44 l37 31 -129 118 c-123 112 -335 286 -349 286
-3 0 -13 7 -22 15 -22 23 -257 176 -369 241 -116 67 -452 234 -471 234 -7 0
-13 -2 -13 -5z m875 -566 c55 -34 125 -81 156 -105 78 -60 218 -214 195 -214
-3 0 -38 30 -78 66 -88 79 -298 250 -353 287 -76 51 -19 27 80 -34z"/>
<path d="M9580 10935 c-14 -8 -20 -14 -15 -14 6 0 21 6 35 14 14 8 21 14 15
14 -5 0 -21 -6 -35 -14z"/>
<path d="M9921 10661 c-15 -10 -16 -21 -3 -30 5 -3 25 -35 43 -71 26 -50 35
-60 37 -43 5 32 -61 154 -77 144z"/>
<path d="M13490 10256 c0 -3 9 -10 20 -16 11 -6 20 -8 20 -6 0 3 -9 10 -20 16
-11 6 -20 8 -20 6z"/>
<path d="M13620 10176 c0 -3 9 -10 20 -16 11 -6 20 -8 20 -6 0 3 -9 10 -20 16
-11 6 -20 8 -20 6z"/>
<path d="M13670 10147 c0 -3 17 -16 38 -28 20 -13 72 -49 115 -82 43 -32 80
-57 83 -54 3 2 -33 31 -78 64 -91 65 -158 107 -158 100z"/>
<path d="M14870 9910 c-11 -11 -20 -24 -20 -29 0 -5 -8 -7 -19 -4 -21 5 -61
-39 -61 -68 0 -21 36 -49 63 -49 16 0 17 -3 8 -14 -9 -11 10 -38 98 -136 111
-123 281 -340 281 -358 0 -6 4 -12 9 -14 23 -8 218 -325 307 -497 33 -63 67
-129 77 -147 10 -20 25 -34 36 -34 30 0 121 42 121 55 0 29 -144 323 -242 494
-90 156 -160 261 -284 426 -162 216 -252 318 -274 312 -14 -4 -20 2 -25 23 -3
16 -17 36 -30 44 -23 15 -26 15 -45 -4z m58 -92 c-6 -18 -25 -20 -31 -3 -5 10
0 15 14 15 12 0 19 -5 17 -12z"/>
<path d="M15713 8556 c-28 -12 -55 -24 -58 -28 -4 -4 0 -22 10 -40 9 -18 18
-41 20 -51 2 -10 22 -62 44 -115 21 -53 56 -151 76 -217 21 -66 48 -145 61
-176 63 -151 135 -528 164 -859 11 -119 15 -601 6 -740 -6 -108 -17 -222 -26
-285 -5 -33 -12 -82 -15 -110 -7 -61 -12 -107 -15 -120 -1 -5 -2 -21 -1 -35 6
-77 93 334 123 580 28 230 31 737 5 955 -38 326 -94 604 -178 879 -52 169
-138 386 -153 385 -6 0 -34 -11 -63 -23z"/>
<path d="M15299 3983 c-13 -16 -12 -17 4 -4 16 13 21 21 13 21 -2 0 -10 -8
-17 -17z"/>
</g>
</svg>
