<svg width="1440" height="888" viewBox="0 0 1440 888" fill="none" xmlns="http://www.w3.org/2000/svg">
<g opacity="0.5">
<g style="mix-blend-mode:screen" opacity="0.44">
<path opacity="0.23" d="M887.982 91.3894H717.57L711.242 2.74469H833.02L887.982 91.3894Z" fill="url(#paint0_linear_1012_2)" stroke="#96D8E4" stroke-width="4.39" stroke-miterlimit="10"/>
<path opacity="0.23" d="M997.081 118.236H850.408L803.502 16.121H905.785L997.081 118.236Z" fill="url(#paint1_linear_1012_2)" stroke="#96D8E4" stroke-width="4.39" stroke-miterlimit="10"/>
<path opacity="0.23" d="M984.757 52.403H894.046L873.188 23.8812H954.368L984.757 52.403Z" fill="url(#paint2_linear_1012_2)" stroke="#96D8E4" stroke-width="4.39" stroke-miterlimit="10"/>
<path opacity="0.23" d="M1182.55 83.3639H1116.38L1025.56 18.0875H1077.45L1182.55 83.3639Z" fill="url(#paint3_linear_1012_2)" stroke="#96D8E4" stroke-width="4.39" stroke-miterlimit="10"/>
<path opacity="0.23" d="M1055.96 53.9887H1026.63L990.633 24.2993H1016.77L1055.96 53.9887Z" fill="url(#paint4_linear_1012_2)" stroke="#96D8E4" stroke-width="4.39" stroke-miterlimit="10"/>
<path opacity="0.23" d="M1065.53 28.4186H982.831L955.055 4.48865H1029.76L1065.53 28.4186Z" fill="url(#paint5_linear_1012_2)" stroke="#96D8E4" stroke-width="4.39" stroke-miterlimit="10"/>
<path opacity="0.23" d="M944.99 12.6976H814.295L810.152 4.61261H936.29L944.99 12.6976Z" fill="url(#paint6_linear_1012_2)" stroke="#96D8E4" stroke-width="4.39" stroke-miterlimit="10"/>
<path opacity="0.23" d="M1147.49 165.554H799.865L771.273 60.2421H1023.74L1147.49 165.554Z" fill="url(#paint7_linear_1012_2)" stroke="#96D8E4" stroke-width="4.39" stroke-miterlimit="10"/>
<path opacity="0.23" d="M1140.51 121.123H1043.08L988.613 67.8041H1070.77L1140.51 121.123Z" fill="url(#paint8_linear_1012_2)" stroke="#96D8E4" stroke-width="4.39" stroke-miterlimit="10"/>
<path opacity="0.23" d="M1215.63 160.385H1106.96L1072.45 128.553H1172L1215.63 160.385Z" fill="url(#paint9_linear_1012_2)" stroke="#96D8E4" stroke-width="4.39" stroke-miterlimit="10"/>
<path opacity="0.23" d="M1234.33 140.381H1142.83L1062.75 76.0312H1137.88L1234.33 140.381Z" fill="url(#paint10_linear_1012_2)" stroke="#96D8E4" stroke-width="4.39" stroke-miterlimit="10"/>
<path opacity="0.23" d="M828.674 157.626H722.294L717.943 96.6462H807.106L828.674 157.626Z" fill="url(#paint11_linear_1012_2)" stroke="#96D8E4" stroke-width="4.39" stroke-miterlimit="10"/>
<path opacity="0.23" d="M1046.5 193.844H1226.05L1827.32 661.859H1444.34L1046.5 193.844Z" fill="url(#paint12_linear_1012_2)" stroke="#96D8E4" stroke-width="4.39" stroke-miterlimit="10"/>
<path opacity="0.23" d="M1094.01 368.108H1290.16L1492.39 567.8H1229.54L1094.01 368.108Z" fill="url(#paint13_linear_1012_2)" stroke="#96D8E4" stroke-width="4.39" stroke-miterlimit="10"/>
<path opacity="0.23" d="M759.836 261.698H864.999L996.778 635.374H809.894L759.836 261.698Z" fill="url(#paint14_linear_1012_2)" stroke="#96D8E4" stroke-width="11.71" stroke-linecap="round" stroke-linejoin="round"/>
<path opacity="0.23" d="M941.465 360.816H1003.73L1111.45 563.449H1027.42L941.465 360.816Z" fill="url(#paint15_linear_1012_2)" stroke="#96D8E4" stroke-width="4.39" stroke-miterlimit="10"/>
<path opacity="0.23" d="M880.604 523.739H1128.74L1333.58 874.933H968.148L880.604 523.739Z" fill="url(#paint16_linear_1012_2)" stroke="#96D8E4" stroke-width="4.39" stroke-miterlimit="10"/>
<path opacity="0.23" d="M1318.19 713.454H1843.84L2039 871.937H1424.03L1318.19 713.454Z" fill="url(#paint17_linear_1012_2)" stroke="#96D8E4" stroke-width="4.39" stroke-miterlimit="10"/>
<path opacity="0.23" d="M899.695 139.802H1224.05L1510.79 334.522H1010.5L899.695 139.802Z" fill="url(#paint18_linear_1012_2)" stroke="#96D8E4" stroke-width="4.39" stroke-miterlimit="10"/>
<path opacity="0.23" d="M873.703 189.602H990.734L1075.57 307.039H924.928L873.703 189.602Z" fill="url(#paint19_linear_1012_2)" stroke="#96D8E4" stroke-width="4.39" stroke-miterlimit="10"/>
<path opacity="0.23" d="M789.625 164.889H887.359L945.617 281.449H818.217L789.625 164.889Z" fill="url(#paint20_linear_1012_2)" stroke="#96D8E4" stroke-width="4.39" stroke-miterlimit="10"/>
<path opacity="0.23" d="M1204.55 146.989H1307.92L1449.41 231.569H1322.15L1204.55 146.989Z" fill="url(#paint21_linear_1012_2)" stroke="#96D8E4" stroke-width="4.39" stroke-miterlimit="10"/>
<path opacity="0.23" d="M502.838 91.3895H673.25L679.577 2.74487H557.8L502.838 91.3895Z" fill="url(#paint22_linear_1012_2)" stroke="#96D8E4" stroke-width="4.39" stroke-miterlimit="10"/>
<path opacity="0.23" d="M393.738 118.236H540.411L587.317 16.1212H485.034L393.738 118.236Z" fill="url(#paint23_linear_1012_2)" stroke="#96D8E4" stroke-width="4.39" stroke-miterlimit="10"/>
<path opacity="0.23" d="M406.062 52.4033H496.773L517.636 23.8815H436.452L406.062 52.4033Z" fill="url(#paint24_linear_1012_2)" stroke="#96D8E4" stroke-width="4.39" stroke-miterlimit="10"/>
<path opacity="0.23" d="M208.27 83.3641H274.435L365.261 18.0876H313.373L208.27 83.3641Z" fill="url(#paint25_linear_1012_2)" stroke="#96D8E4" stroke-width="4.39" stroke-miterlimit="10"/>
<path opacity="0.23" d="M334.855 53.9888H364.185L400.187 24.2994H374.047L334.855 53.9888Z" fill="url(#paint26_linear_1012_2)" stroke="#96D8E4" stroke-width="4.39" stroke-miterlimit="10"/>
<path opacity="0.23" d="M325.291 28.4188H407.988L435.763 4.48883H361.058L325.291 28.4188Z" fill="url(#paint27_linear_1012_2)" stroke="#96D8E4" stroke-width="4.39" stroke-miterlimit="10"/>
<path opacity="0.23" d="M445.828 12.6978H576.523L580.666 4.61279H454.529L445.828 12.6978Z" fill="url(#paint28_linear_1012_2)" stroke="#96D8E4" stroke-width="4.39" stroke-miterlimit="10"/>
<path opacity="0.23" d="M243.328 165.555H590.954L619.546 60.2422H367.078L243.328 165.555Z" fill="url(#paint29_linear_1012_2)" stroke="#96D8E4" stroke-width="4.39" stroke-miterlimit="10"/>
<path opacity="0.23" d="M250.309 121.123H347.734L402.208 67.8043H320.046L250.309 121.123Z" fill="url(#paint30_linear_1012_2)" stroke="#96D8E4" stroke-width="4.39" stroke-miterlimit="10"/>
<path opacity="0.23" d="M175.189 160.385H283.855L318.364 128.553H218.814L175.189 160.385Z" fill="url(#paint31_linear_1012_2)" stroke="#96D8E4" stroke-width="4.39" stroke-miterlimit="10"/>
<path opacity="0.23" d="M156.492 140.382H247.991L328.065 76.0314H252.941L156.492 140.382Z" fill="url(#paint32_linear_1012_2)" stroke="#96D8E4" stroke-width="4.39" stroke-miterlimit="10"/>
<path opacity="0.23" d="M562.145 157.627H668.525L672.875 96.6464H583.713L562.145 157.627Z" fill="url(#paint33_linear_1012_2)" stroke="#96D8E4" stroke-width="4.39" stroke-linecap="round" stroke-linejoin="round"/>
<path opacity="0.23" d="M176.208 242.724H-77.2457L-1208 918.719H-583.628L176.208 242.724Z" fill="url(#paint34_linear_1012_2)" stroke="#96D8E4" stroke-width="4.39" stroke-miterlimit="10"/>
<path opacity="0.23" d="M344.316 193.844H164.775L-436.494 661.86H-53.5157L344.316 193.844Z" fill="url(#paint35_linear_1012_2)" stroke="#96D8E4" stroke-width="4.39" stroke-miterlimit="10"/>
<path opacity="0.23" d="M296.81 368.108H100.659L-101.57 567.8H161.281L296.81 368.108Z" fill="url(#paint36_linear_1012_2)" stroke="#96D8E4" stroke-width="4.39" stroke-miterlimit="10"/>
<path opacity="0.23" d="M630.984 261.699H525.826L394.043 635.374H580.926L630.984 261.699Z" fill="url(#paint37_linear_1012_2)" stroke="#96D8E4" stroke-width="4.39" stroke-miterlimit="10"/>
<path opacity="0.23" d="M449.354 360.816H387.088L279.371 563.449H363.395L449.354 360.816Z" fill="url(#paint38_linear_1012_2)" stroke="#96D8E4" stroke-width="4.39" stroke-miterlimit="10"/>
<path opacity="0.23" d="M510.216 523.739H262.081L57.2383 874.933H422.672L510.216 523.739Z" fill="url(#paint39_linear_1012_2)" stroke="#96D8E4" stroke-width="4.39" stroke-miterlimit="10"/>
<path opacity="0.23" d="M72.6257 713.454H-453.025L-648.181 871.938H-33.2059L72.6257 713.454Z" fill="url(#paint40_linear_1012_2)" stroke="#96D8E4" stroke-width="4.39" stroke-miterlimit="10"/>
<path opacity="0.23" d="M491.122 139.802H166.765L-119.977 334.522H380.318L491.122 139.802Z" fill="url(#paint41_linear_1012_2)" stroke="#96D8E4" stroke-width="4.39" stroke-miterlimit="10"/>
<path opacity="0.23" d="M517.116 189.602H400.086L315.246 307.039H465.896L517.116 189.602Z" fill="url(#paint42_linear_1012_2)" stroke="#96D8E4" stroke-width="4.39" stroke-miterlimit="10"/>
<path opacity="0.23" d="M601.195 164.889H503.46L445.203 281.449H572.603L601.195 164.889Z" fill="url(#paint43_linear_1012_2)" stroke="#96D8E4" stroke-width="4.39" stroke-miterlimit="10"/>
<path opacity="0.23" d="M186.268 146.989H82.8971L-58.582 231.569H68.6658L186.268 146.989Z" fill="url(#paint44_linear_1012_2)" stroke="#96D8E4" stroke-width="4.39" stroke-miterlimit="10"/>
<g style="mix-blend-mode:overlay">
<path d="M803.502 16.1218L823.766 60.2422H868.672L887.982 91.39H838.076L850.408 118.237H990.772" stroke="#96D8E4" stroke-width="5.86" stroke-miterlimit="10"/>
<path d="M938.219 52.4028L945.228 60.2415H1023.74L1095.28 121.123H1118.86L1142.83 140.382H1224.91L1375.62 242.724H1214.61L1690.12 665.767L1743.72 713.454H1843.84L2039 871.937" stroke="#96D8E4" stroke-width="5.86" stroke-miterlimit="10"/>
<path d="M1043.08 121.124H1064.39L1084.65 139.801H899.695L914.351 165.554L994.863 307.04L1010.5 334.522H1163.68L1360.96 567.801" stroke="#96D8E4" stroke-width="11.71" stroke-linecap="round" stroke-linejoin="round"/>
<path d="M955.055 4.4895L982.831 28.4194H995.629L1024.71 52.4035" stroke="#96D8E4" stroke-width="5.86" stroke-miterlimit="10"/>
<path d="M1003.86 118.183C1004.8 119.217 1002.62 120.06 998.97 120.06C995.32 120.06 991.624 119.217 990.721 118.183C989.822 117.153 992.02 116.325 995.629 116.325C999.237 116.325 1002.92 117.153 1003.86 118.183Z" stroke="#96D8E4" stroke-width="11.71" stroke-miterlimit="10"/>
<path d="M942.621 51.1963C943.23 51.8615 941.354 52.3985 938.432 52.3985C935.51 52.3985 932.671 51.8565 932.086 51.1963C931.51 50.5361 933.39 50.004 936.285 50.004C939.179 50.004 942.013 50.5361 942.617 51.1963H942.621Z" stroke="#96D8E4" stroke-width="11.71" stroke-miterlimit="10"/>
<path d="M1031.96 53.9947C1032.79 54.6746 1031.08 55.2264 1028.13 55.2264C1025.17 55.2264 1022.13 54.6746 1021.32 53.9947C1020.51 53.3197 1022.23 52.7778 1025.16 52.7778C1028.09 52.7778 1031.13 53.3197 1031.96 53.9947Z" stroke="#96D8E4" stroke-width="11.71" stroke-miterlimit="10"/>
<path d="M1386.77 579.915C1391.81 585.744 1388.89 590.528 1380.18 590.528C1371.47 590.528 1360.46 585.739 1355.64 579.915C1350.9 574.171 1353.98 569.574 1362.46 569.574C1370.94 569.574 1381.8 574.171 1386.77 579.915H1386.77Z" stroke="#96D8E4" stroke-width="11.71" stroke-miterlimit="10"/>
<path d="M990.573 207.586H951.76L948.234 201.718H986.518L990.573 207.586Z" fill="#96D8E4"/>
<path d="M1000.55 222.003H960.419L956.654 215.736H996.214L1000.55 222.003Z" fill="#96D8E4"/>
<path d="M1011.22 237.428H969.684L965.656 230.718H1006.58L1011.22 237.428Z" fill="#96D8E4"/>
<path d="M1022.66 253.972H979.624L975.297 246.773H1017.68L1022.66 253.972Z" fill="#96D8E4"/>
<path d="M1034.96 271.759H990.307L985.652 264.014H1029.6L1034.96 271.759Z" fill="#96D8E4"/>
<path d="M908.001 88.1925H895.166L879.617 64.2626L893.235 66.8443L908.001 88.1925Z" fill="#96D8E4"/>
<path d="M1341.56 197.027H1324.18L1259.68 154.33H1275.27L1341.56 197.027Z" fill="#96D8E4"/>
<path d="M1350.58 202.838H1332.96L1328.01 199.561H1345.49L1350.58 202.838Z" fill="#96D8E4"/>
<path d="M843.491 133.17H828.78L817.945 104.549L829.702 100.361L843.491 133.17Z" fill="#96D8E4"/>
<path d="M1392.77 526.523H1361.64L1242.71 393.413H1268.29L1392.77 526.523Z" fill="#96D8E4"/>
<path d="M1236.3 289.532L1256.82 281.451L1248.04 273.628L1227.71 281.451L1236.3 289.532Z" fill="#96D8E4"/>
<path d="M1297.38 289.532L1258.72 281.451L1249.92 273.628L1287.82 281.451L1297.38 289.532Z" fill="#96D8E4"/>
<path d="M1254.92 307.04L1275.82 298.403L1266.45 290.042L1245.74 298.403L1254.92 307.04Z" fill="#96D8E4"/>
<path d="M1318.1 307.04L1277.8 298.403L1268.39 290.042L1307.88 298.403L1318.1 307.04Z" fill="#96D8E4"/>
<path d="M1274.87 325.802L1296.16 316.545L1286.13 307.592L1265.02 316.545L1274.87 325.802Z" fill="#96D8E4"/>
<path d="M1340.3 325.802L1298.2 316.545L1288.13 307.592L1329.35 316.545L1340.3 325.802Z" fill="#96D8E4"/>
<path d="M794.524 29.0205L808.064 27.0842L807.193 25.1726L793.75 27.0842L794.524 29.0205Z" fill="#96D8E4"/>
<path d="M824.329 29.0205L809.005 27.0842L808.125 25.1726L823.319 27.0842L824.329 29.0205Z" fill="#96D8E4"/>
<path d="M796.161 33.1194L809.913 31.1142L809.009 29.1434L795.363 31.1142L796.161 33.1194Z" fill="#96D8E4"/>
<path d="M826.452 33.1194L810.861 31.1142L809.953 29.1434L825.41 31.1142L826.452 33.1194Z" fill="#96D8E4"/>
<path d="M797.852 37.3526L811.816 35.2833L810.885 33.2436L797.027 35.2833L797.852 37.3526Z" fill="#96D8E4"/>
<path d="M828.651 37.3526L812.784 35.2833L811.844 33.2436L827.578 35.2833L828.651 37.3526Z" fill="#96D8E4"/>
<path d="M587.318 16.1215L567.054 60.2418H522.148L502.838 91.3896H552.745L540.412 118.236H400.053" stroke="#96D8E4" stroke-width="5.86" stroke-miterlimit="10"/>
<path d="M452.599 52.4025L445.59 60.2412H367.078L295.539 121.123H271.961L247.992 140.382H165.908L15.2028 242.724H176.208L-299.306 665.766L-352.904 713.454H-453.025L-648.181 871.937" stroke="#96D8E4" stroke-width="5.86" stroke-miterlimit="10"/>
<path d="M347.737 121.123H326.427L306.172 139.801H491.124L476.473 165.554L395.957 307.04L380.32 334.522H227.139L29.8594 567.8" stroke="#96D8E4" stroke-width="5.86" stroke-linecap="round" stroke-linejoin="round"/>
<path d="M435.764 4.48914L407.988 28.4191H395.19L366.109 52.4032" stroke="#96D8E4" stroke-width="5.86" stroke-miterlimit="10"/>
<path d="M386.958 118.182C386.014 119.217 388.198 120.059 391.848 120.059C395.498 120.059 399.194 119.217 400.097 118.182C400.996 117.153 398.798 116.325 395.189 116.325C391.581 116.325 387.898 117.153 386.958 118.182Z" stroke="#96D8E4" stroke-width="11.71" stroke-miterlimit="10"/>
<path d="M448.202 51.196C447.594 51.8611 449.47 52.3981 452.392 52.3981C455.314 52.3981 458.152 51.8562 458.733 51.196C459.314 50.5358 457.429 50.0037 454.535 50.0037C451.64 50.0037 448.806 50.5358 448.202 51.196Z" stroke="#96D8E4" stroke-width="11.71" stroke-miterlimit="10"/>
<path d="M358.86 53.9944C358.026 54.6743 359.735 55.2261 362.689 55.2261C365.644 55.2261 368.69 54.6743 369.501 53.9944C370.307 53.3194 368.584 52.7775 365.657 52.7775C362.731 52.7775 359.689 53.3194 358.86 53.9944Z" stroke="#96D8E4" stroke-width="11.71" stroke-miterlimit="10"/>
<path d="M4.05109 579.916C-0.990703 585.744 1.92655 590.528 10.6368 590.528C19.347 590.528 30.3615 585.739 35.1775 579.916C39.9244 574.171 36.8412 569.574 28.3614 569.574C19.8816 569.574 9.02377 574.171 4.05571 579.916H4.05109Z" stroke="#96D8E4" stroke-width="11.71" stroke-miterlimit="10"/>
<path d="M359.793 75.7857H386.624L389.569 72.9725H362.996L359.793 75.7857Z" fill="#96D8E4"/>
<path d="M352.035 82.6009H379.484L382.567 79.6595H355.39L352.035 82.6009Z" fill="#96D8E4"/>
<path d="M343.914 89.7402H372.013L375.243 86.6559H347.426L343.914 89.7402Z" fill="#96D8E4"/>
<path d="M335.398 97.2284H364.179L367.566 93.9914H339.081L335.398 97.2284Z" fill="#96D8E4"/>
<path d="M326.457 105.08H355.952L359.51 101.686H330.324L326.457 105.08Z" fill="#96D8E4"/>
<path d="M482.822 88.1921H495.653L511.202 64.2622L497.584 66.8439L482.822 88.1921Z" fill="#96D8E4"/>
<path d="M49.2598 197.027H66.6387L131.136 154.33H115.545L49.2598 197.027Z" fill="#96D8E4"/>
<path d="M40.2422 202.837H57.8608L62.8104 199.561H45.3301L40.2422 202.837Z" fill="#96D8E4"/>
<path d="M547.328 133.169H562.039L572.874 104.549L561.117 100.361L547.328 133.169Z" fill="#96D8E4"/>
<path d="M-1.94922 526.524H29.1818L148.106 393.414H122.529L-1.94922 526.524Z" fill="#96D8E4"/>
<path d="M154.521 289.531L134.004 281.451L142.779 273.627L163.107 281.451L154.521 289.531Z" fill="#96D8E4"/>
<path d="M93.4395 289.531L132.101 281.451L140.903 273.627L102.998 281.451L93.4395 289.531Z" fill="#96D8E4"/>
<path d="M135.903 307.039L114.998 298.403L124.372 290.042L145.083 298.403L135.903 307.039Z" fill="#96D8E4"/>
<path d="M72.7188 307.039L113.026 298.403L122.432 290.042L82.9407 298.403L72.7188 307.039Z" fill="#96D8E4"/>
<path d="M115.953 325.802L94.6562 316.545L104.694 307.592L125.797 316.545L115.953 325.802Z" fill="#96D8E4"/>
<path d="M50.5195 325.802L92.619 316.545L102.689 307.592L61.4742 316.545L50.5195 325.802Z" fill="#96D8E4"/>
<path d="M500.668 163.391L481.031 158.804L483.571 154.33L503.005 158.804L500.668 163.391Z" fill="#96D8E4"/>
<path d="M454.734 163.391L479.593 158.804L482.146 154.33L457.619 158.804L454.734 163.391Z" fill="#96D8E4"/>
<path d="M495.668 173.21L475.598 168.391L478.266 163.681L498.124 168.391L495.668 173.21Z" fill="#96D8E4"/>
<path d="M448.555 173.21L474.119 168.391L476.805 163.681L451.592 168.391L448.555 173.21Z" fill="#96D8E4"/>
<path d="M490.408 183.551L469.877 178.471L472.684 173.52L492.994 178.471L490.408 183.551Z" fill="#96D8E4"/>
<path d="M442.051 183.551L468.361 178.471L471.191 173.52L445.249 178.471L442.051 183.551Z" fill="#96D8E4"/>
</g>
</g>
</g>
<defs>
<linearGradient id="paint0_linear_1012_2" x1="799.612" y1="2.24707" x2="799.612" y2="84.9598" gradientUnits="userSpaceOnUse">
<stop stop-color="#54CAF5"/>
<stop offset="0.5" stop-color="#54CAF5" stop-opacity="0.2209"/>
<stop offset="0.84" stop-color="#54CAF5" stop-opacity="0.0169"/>
<stop offset="1" stop-color="#54CAF5" stop-opacity="0"/>
</linearGradient>
<linearGradient id="paint1_linear_1012_2" x1="900.292" y1="15.5495" x2="900.292" y2="110.831" gradientUnits="userSpaceOnUse">
<stop stop-color="#54CAF5"/>
<stop offset="0.5" stop-color="#54CAF5" stop-opacity="0.2209"/>
<stop offset="0.84" stop-color="#54CAF5" stop-opacity="0.0169"/>
<stop offset="1" stop-color="#54CAF5" stop-opacity="0"/>
</linearGradient>
<linearGradient id="paint2_linear_1012_2" x1="928.97" y1="23.7235" x2="928.97" y2="50.3337" gradientUnits="userSpaceOnUse">
<stop stop-color="#54CAF5"/>
<stop offset="0.5" stop-color="#54CAF5" stop-opacity="0.2209"/>
<stop offset="0.84" stop-color="#54CAF5" stop-opacity="0.0169"/>
<stop offset="1" stop-color="#54CAF5" stop-opacity="0"/>
</linearGradient>
<linearGradient id="paint3_linear_1012_2" x1="1104.05" y1="17.7229" x2="1104.05" y2="78.6291" gradientUnits="userSpaceOnUse">
<stop stop-color="#54CAF5"/>
<stop offset="0.5" stop-color="#54CAF5" stop-opacity="0.2209"/>
<stop offset="0.84" stop-color="#54CAF5" stop-opacity="0.0169"/>
<stop offset="1" stop-color="#54CAF5" stop-opacity="0"/>
</linearGradient>
<linearGradient id="paint4_linear_1012_2" x1="1023.3" y1="24.1317" x2="1023.3" y2="51.8357" gradientUnits="userSpaceOnUse">
<stop stop-color="#54CAF5"/>
<stop offset="0.5" stop-color="#54CAF5" stop-opacity="0.2209"/>
<stop offset="0.84" stop-color="#54CAF5" stop-opacity="0.0169"/>
<stop offset="1" stop-color="#54CAF5" stop-opacity="0"/>
</linearGradient>
<linearGradient id="paint5_linear_1012_2" x1="1010.29" y1="4.35562" x2="1010.29" y2="26.6794" gradientUnits="userSpaceOnUse">
<stop stop-color="#54CAF5"/>
<stop offset="0.5" stop-color="#54CAF5" stop-opacity="0.2209"/>
<stop offset="0.84" stop-color="#54CAF5" stop-opacity="0.0169"/>
<stop offset="1" stop-color="#54CAF5" stop-opacity="0"/>
</linearGradient>
<linearGradient id="paint6_linear_1012_2" x1="877.571" y1="4.56827" x2="877.571" y2="12.1113" gradientUnits="userSpaceOnUse">
<stop stop-color="#54CAF5"/>
<stop offset="0.5" stop-color="#54CAF5" stop-opacity="0.2209"/>
<stop offset="0.84" stop-color="#54CAF5" stop-opacity="0.0169"/>
<stop offset="1" stop-color="#54CAF5" stop-opacity="0"/>
</linearGradient>
<linearGradient id="paint7_linear_1012_2" x1="959.382" y1="59.6508" x2="959.382" y2="157.918" gradientUnits="userSpaceOnUse">
<stop stop-color="#54CAF5"/>
<stop offset="0.5" stop-color="#54CAF5" stop-opacity="0.2209"/>
<stop offset="0.84" stop-color="#54CAF5" stop-opacity="0.0169"/>
<stop offset="1" stop-color="#54CAF5" stop-opacity="0"/>
</linearGradient>
<linearGradient id="paint8_linear_1012_2" x1="1064.56" y1="67.5085" x2="1064.56" y2="117.255" gradientUnits="userSpaceOnUse">
<stop stop-color="#54CAF5"/>
<stop offset="0.5" stop-color="#54CAF5" stop-opacity="0.2209"/>
<stop offset="0.84" stop-color="#54CAF5" stop-opacity="0.0169"/>
<stop offset="1" stop-color="#54CAF5" stop-opacity="0"/>
</linearGradient>
<linearGradient id="paint9_linear_1012_2" x1="1144.04" y1="128.375" x2="1144.04" y2="158.075" gradientUnits="userSpaceOnUse">
<stop stop-color="#54CAF5"/>
<stop offset="0.5" stop-color="#54CAF5" stop-opacity="0.2209"/>
<stop offset="0.84" stop-color="#54CAF5" stop-opacity="0.0169"/>
<stop offset="1" stop-color="#54CAF5" stop-opacity="0"/>
</linearGradient>
<linearGradient id="paint10_linear_1012_2" x1="1148.54" y1="75.6716" x2="1148.54" y2="135.716" gradientUnits="userSpaceOnUse">
<stop stop-color="#54CAF5"/>
<stop offset="0.5" stop-color="#54CAF5" stop-opacity="0.2209"/>
<stop offset="0.84" stop-color="#54CAF5" stop-opacity="0.0169"/>
<stop offset="1" stop-color="#54CAF5" stop-opacity="0"/>
</linearGradient>
<linearGradient id="paint11_linear_1012_2" x1="773.306" y1="96.3014" x2="773.306" y2="153.207" gradientUnits="userSpaceOnUse">
<stop stop-color="#54CAF5"/>
<stop offset="0.5" stop-color="#54CAF5" stop-opacity="0.2209"/>
<stop offset="0.84" stop-color="#54CAF5" stop-opacity="0.0169"/>
<stop offset="1" stop-color="#54CAF5" stop-opacity="0"/>
</linearGradient>
<linearGradient id="paint12_linear_1012_2" x1="1436.91" y1="664.48" x2="1436.91" y2="227.78" gradientUnits="userSpaceOnUse">
<stop stop-color="#54CAF5"/>
<stop offset="0.5" stop-color="#54CAF5" stop-opacity="0.2209"/>
<stop offset="0.84" stop-color="#54CAF5" stop-opacity="0.0169"/>
<stop offset="1" stop-color="#54CAF5" stop-opacity="0"/>
</linearGradient>
<linearGradient id="paint13_linear_1012_2" x1="1293.2" y1="568.918" x2="1293.2" y2="382.588" gradientUnits="userSpaceOnUse">
<stop stop-color="#54CAF5"/>
<stop offset="0.5" stop-color="#54CAF5" stop-opacity="0.2209"/>
<stop offset="0.84" stop-color="#54CAF5" stop-opacity="0.0169"/>
<stop offset="1" stop-color="#54CAF5" stop-opacity="0"/>
</linearGradient>
<linearGradient id="paint14_linear_1012_2" x1="878.309" y1="637.468" x2="878.309" y2="288.791" gradientUnits="userSpaceOnUse">
<stop stop-color="#54CAF5"/>
<stop offset="0.5" stop-color="#54CAF5" stop-opacity="0.2209"/>
<stop offset="0.84" stop-color="#54CAF5" stop-opacity="0.0169"/>
<stop offset="1" stop-color="#54CAF5" stop-opacity="0"/>
</linearGradient>
<linearGradient id="paint15_linear_1012_2" x1="1026.46" y1="564.582" x2="1026.46" y2="375.513" gradientUnits="userSpaceOnUse">
<stop stop-color="#54CAF5"/>
<stop offset="0.5" stop-color="#54CAF5" stop-opacity="0.2209"/>
<stop offset="0.84" stop-color="#54CAF5" stop-opacity="0.0169"/>
<stop offset="1" stop-color="#54CAF5" stop-opacity="0"/>
</linearGradient>
<linearGradient id="paint16_linear_1012_2" x1="1107.1" y1="876.899" x2="1107.1" y2="549.206" gradientUnits="userSpaceOnUse">
<stop stop-color="#54CAF5"/>
<stop offset="0.5" stop-color="#54CAF5" stop-opacity="0.2209"/>
<stop offset="0.84" stop-color="#54CAF5" stop-opacity="0.0169"/>
<stop offset="1" stop-color="#54CAF5" stop-opacity="0"/>
</linearGradient>
<linearGradient id="paint17_linear_1012_2" x1="1678.6" y1="872.824" x2="1678.6" y2="724.943" gradientUnits="userSpaceOnUse">
<stop stop-color="#54CAF5"/>
<stop offset="0.5" stop-color="#54CAF5" stop-opacity="0.2209"/>
<stop offset="0.84" stop-color="#54CAF5" stop-opacity="0.0169"/>
<stop offset="1" stop-color="#54CAF5" stop-opacity="0"/>
</linearGradient>
<linearGradient id="paint18_linear_1012_2" x1="1205.24" y1="335.611" x2="1205.24" y2="153.922" gradientUnits="userSpaceOnUse">
<stop stop-color="#54CAF5"/>
<stop offset="0.5" stop-color="#54CAF5" stop-opacity="0.2209"/>
<stop offset="0.84" stop-color="#54CAF5" stop-opacity="0.0169"/>
<stop offset="1" stop-color="#54CAF5" stop-opacity="0"/>
</linearGradient>
<linearGradient id="paint19_linear_1012_2" x1="974.641" y1="307.694" x2="974.641" y2="198.12" gradientUnits="userSpaceOnUse">
<stop stop-color="#54CAF5"/>
<stop offset="0.5" stop-color="#54CAF5" stop-opacity="0.2209"/>
<stop offset="0.84" stop-color="#54CAF5" stop-opacity="0.0169"/>
<stop offset="1" stop-color="#54CAF5" stop-opacity="0"/>
</linearGradient>
<linearGradient id="paint20_linear_1012_2" x1="867.621" y1="282.105" x2="867.621" y2="173.339" gradientUnits="userSpaceOnUse">
<stop stop-color="#54CAF5"/>
<stop offset="0.5" stop-color="#54CAF5" stop-opacity="0.2209"/>
<stop offset="0.84" stop-color="#54CAF5" stop-opacity="0.0169"/>
<stop offset="1" stop-color="#54CAF5" stop-opacity="0"/>
</linearGradient>
<linearGradient id="paint21_linear_1012_2" x1="1326.98" y1="232.042" x2="1326.98" y2="153.123" gradientUnits="userSpaceOnUse">
<stop stop-color="#54CAF5"/>
<stop offset="0.5" stop-color="#54CAF5" stop-opacity="0.2209"/>
<stop offset="0.84" stop-color="#54CAF5" stop-opacity="0.0169"/>
<stop offset="1" stop-color="#54CAF5" stop-opacity="0"/>
</linearGradient>
<linearGradient id="paint22_linear_1012_2" x1="591.208" y1="1.66096" x2="591.208" y2="1.66096" gradientUnits="userSpaceOnUse">
<stop stop-color="#54CAF5"/>
<stop offset="0.5" stop-color="#54CAF5" stop-opacity="0.2209"/>
<stop offset="0.84" stop-color="#54CAF5" stop-opacity="0.0169"/>
<stop offset="1" stop-color="#54CAF5" stop-opacity="0"/>
</linearGradient>
<linearGradient id="paint23_linear_1012_2" x1="490.532" y1="15.5496" x2="490.532" y2="110.831" gradientUnits="userSpaceOnUse">
<stop stop-color="#54CAF5"/>
<stop offset="0.5" stop-color="#54CAF5" stop-opacity="0.2209"/>
<stop offset="0.84" stop-color="#54CAF5" stop-opacity="0.0169"/>
<stop offset="1" stop-color="#54CAF5" stop-opacity="0"/>
</linearGradient>
<linearGradient id="paint24_linear_1012_2" x1="461.849" y1="23.7238" x2="461.849" y2="50.334" gradientUnits="userSpaceOnUse">
<stop stop-color="#54CAF5"/>
<stop offset="0.5" stop-color="#54CAF5" stop-opacity="0.2209"/>
<stop offset="0.84" stop-color="#54CAF5" stop-opacity="0.0169"/>
<stop offset="1" stop-color="#54CAF5" stop-opacity="0"/>
</linearGradient>
<linearGradient id="paint25_linear_1012_2" x1="286.768" y1="17.7231" x2="286.768" y2="78.6293" gradientUnits="userSpaceOnUse">
<stop stop-color="#54CAF5"/>
<stop offset="0.5" stop-color="#54CAF5" stop-opacity="0.2209"/>
<stop offset="0.84" stop-color="#54CAF5" stop-opacity="0.0169"/>
<stop offset="1" stop-color="#54CAF5" stop-opacity="0"/>
</linearGradient>
<linearGradient id="paint26_linear_1012_2" x1="367.521" y1="24.1319" x2="367.521" y2="51.8358" gradientUnits="userSpaceOnUse">
<stop stop-color="#54CAF5"/>
<stop offset="0.5" stop-color="#54CAF5" stop-opacity="0.2209"/>
<stop offset="0.84" stop-color="#54CAF5" stop-opacity="0.0169"/>
<stop offset="1" stop-color="#54CAF5" stop-opacity="0"/>
</linearGradient>
<linearGradient id="paint27_linear_1012_2" x1="380.53" y1="4.3558" x2="380.53" y2="26.6796" gradientUnits="userSpaceOnUse">
<stop stop-color="#54CAF5"/>
<stop offset="0.5" stop-color="#54CAF5" stop-opacity="0.2209"/>
<stop offset="0.84" stop-color="#54CAF5" stop-opacity="0.0169"/>
<stop offset="1" stop-color="#54CAF5" stop-opacity="0"/>
</linearGradient>
<linearGradient id="paint28_linear_1012_2" x1="513.252" y1="4.56845" x2="513.252" y2="12.1115" gradientUnits="userSpaceOnUse">
<stop stop-color="#54CAF5"/>
<stop offset="0.5" stop-color="#54CAF5" stop-opacity="0.2209"/>
<stop offset="0.84" stop-color="#54CAF5" stop-opacity="0.0169"/>
<stop offset="1" stop-color="#54CAF5" stop-opacity="0"/>
</linearGradient>
<linearGradient id="paint29_linear_1012_2" x1="431.441" y1="59.651" x2="431.441" y2="157.918" gradientUnits="userSpaceOnUse">
<stop stop-color="#54CAF5"/>
<stop offset="0.5" stop-color="#54CAF5" stop-opacity="0.2209"/>
<stop offset="0.84" stop-color="#54CAF5" stop-opacity="0.0169"/>
<stop offset="1" stop-color="#54CAF5" stop-opacity="0"/>
</linearGradient>
<linearGradient id="paint30_linear_1012_2" x1="326.258" y1="67.5086" x2="326.258" y2="117.255" gradientUnits="userSpaceOnUse">
<stop stop-color="#54CAF5"/>
<stop offset="0.5" stop-color="#54CAF5" stop-opacity="0.2209"/>
<stop offset="0.84" stop-color="#54CAF5" stop-opacity="0.0169"/>
<stop offset="1" stop-color="#54CAF5" stop-opacity="0"/>
</linearGradient>
<linearGradient id="paint31_linear_1012_2" x1="246.779" y1="128.375" x2="246.779" y2="158.075" gradientUnits="userSpaceOnUse">
<stop stop-color="#54CAF5"/>
<stop offset="0.5" stop-color="#54CAF5" stop-opacity="0.2209"/>
<stop offset="0.84" stop-color="#54CAF5" stop-opacity="0.0169"/>
<stop offset="1" stop-color="#54CAF5" stop-opacity="0"/>
</linearGradient>
<linearGradient id="paint32_linear_1012_2" x1="242.281" y1="75.6718" x2="242.281" y2="135.716" gradientUnits="userSpaceOnUse">
<stop stop-color="#54CAF5"/>
<stop offset="0.5" stop-color="#54CAF5" stop-opacity="0.2209"/>
<stop offset="0.84" stop-color="#54CAF5" stop-opacity="0.0169"/>
<stop offset="1" stop-color="#54CAF5" stop-opacity="0"/>
</linearGradient>
<linearGradient id="paint33_linear_1012_2" x1="617.512" y1="96.3015" x2="617.512" y2="153.207" gradientUnits="userSpaceOnUse">
<stop stop-color="#54CAF5"/>
<stop offset="0.5" stop-color="#54CAF5" stop-opacity="0.2209"/>
<stop offset="0.84" stop-color="#54CAF5" stop-opacity="0.0169"/>
<stop offset="1" stop-color="#54CAF5" stop-opacity="0"/>
</linearGradient>
<linearGradient id="paint34_linear_1012_2" x1="-515.896" y1="922.503" x2="-515.896" y2="291.742" gradientUnits="userSpaceOnUse">
<stop stop-color="#54CAF5"/>
<stop offset="0.5" stop-color="#54CAF5" stop-opacity="0.2209"/>
<stop offset="0.84" stop-color="#54CAF5" stop-opacity="0.0169"/>
<stop offset="1" stop-color="#54CAF5" stop-opacity="0"/>
</linearGradient>
<linearGradient id="paint35_linear_1012_2" x1="-46.0913" y1="664.481" x2="-46.0913" y2="227.78" gradientUnits="userSpaceOnUse">
<stop stop-color="#54CAF5"/>
<stop offset="0.5" stop-color="#54CAF5" stop-opacity="0.2209"/>
<stop offset="0.84" stop-color="#54CAF5" stop-opacity="0.0169"/>
<stop offset="1" stop-color="#54CAF5" stop-opacity="0"/>
</linearGradient>
<linearGradient id="paint36_linear_1012_2" x1="97.6221" y1="568.918" x2="97.6221" y2="382.588" gradientUnits="userSpaceOnUse">
<stop stop-color="#54CAF5"/>
<stop offset="0.5" stop-color="#54CAF5" stop-opacity="0.2209"/>
<stop offset="0.84" stop-color="#54CAF5" stop-opacity="0.0169"/>
<stop offset="1" stop-color="#54CAF5" stop-opacity="0"/>
</linearGradient>
<linearGradient id="paint37_linear_1012_2" x1="512.516" y1="637.468" x2="512.516" y2="288.792" gradientUnits="userSpaceOnUse">
<stop stop-color="#54CAF5"/>
<stop offset="0.5" stop-color="#54CAF5" stop-opacity="0.2209"/>
<stop offset="0.84" stop-color="#54CAF5" stop-opacity="0.0169"/>
<stop offset="1" stop-color="#54CAF5" stop-opacity="0"/>
</linearGradient>
<linearGradient id="paint38_linear_1012_2" x1="364.363" y1="564.582" x2="364.363" y2="375.513" gradientUnits="userSpaceOnUse">
<stop stop-color="#54CAF5"/>
<stop offset="0.5" stop-color="#54CAF5" stop-opacity="0.2209"/>
<stop offset="0.84" stop-color="#54CAF5" stop-opacity="0.0169"/>
<stop offset="1" stop-color="#54CAF5" stop-opacity="0"/>
</linearGradient>
<linearGradient id="paint39_linear_1012_2" x1="283.727" y1="876.899" x2="283.727" y2="549.206" gradientUnits="userSpaceOnUse">
<stop stop-color="#54CAF5"/>
<stop offset="0.5" stop-color="#54CAF5" stop-opacity="0.2209"/>
<stop offset="0.84" stop-color="#54CAF5" stop-opacity="0.0169"/>
<stop offset="1" stop-color="#54CAF5" stop-opacity="0"/>
</linearGradient>
<linearGradient id="paint40_linear_1012_2" x1="-287.775" y1="872.824" x2="-287.775" y2="724.944" gradientUnits="userSpaceOnUse">
<stop stop-color="#54CAF5"/>
<stop offset="0.5" stop-color="#54CAF5" stop-opacity="0.2209"/>
<stop offset="0.84" stop-color="#54CAF5" stop-opacity="0.0169"/>
<stop offset="1" stop-color="#54CAF5" stop-opacity="0"/>
</linearGradient>
<linearGradient id="paint41_linear_1012_2" x1="185.573" y1="335.611" x2="185.573" y2="153.922" gradientUnits="userSpaceOnUse">
<stop stop-color="#54CAF5"/>
<stop offset="0.5" stop-color="#54CAF5" stop-opacity="0.2209"/>
<stop offset="0.84" stop-color="#54CAF5" stop-opacity="0.0169"/>
<stop offset="1" stop-color="#54CAF5" stop-opacity="0"/>
</linearGradient>
<linearGradient id="paint42_linear_1012_2" x1="416.179" y1="307.694" x2="416.179" y2="198.12" gradientUnits="userSpaceOnUse">
<stop stop-color="#54CAF5"/>
<stop offset="0.5" stop-color="#54CAF5" stop-opacity="0.2209"/>
<stop offset="0.84" stop-color="#54CAF5" stop-opacity="0.0169"/>
<stop offset="1" stop-color="#54CAF5" stop-opacity="0"/>
</linearGradient>
<linearGradient id="paint43_linear_1012_2" x1="523.199" y1="282.105" x2="523.199" y2="173.339" gradientUnits="userSpaceOnUse">
<stop stop-color="#54CAF5"/>
<stop offset="0.5" stop-color="#54CAF5" stop-opacity="0.2209"/>
<stop offset="0.84" stop-color="#54CAF5" stop-opacity="0.0169"/>
<stop offset="1" stop-color="#54CAF5" stop-opacity="0"/>
</linearGradient>
<linearGradient id="paint44_linear_1012_2" x1="63.8405" y1="232.042" x2="63.8405" y2="153.123" gradientUnits="userSpaceOnUse">
<stop stop-color="#54CAF5"/>
<stop offset="0.5" stop-color="#54CAF5" stop-opacity="0.2209"/>
<stop offset="0.84" stop-color="#54CAF5" stop-opacity="0.0169"/>
<stop offset="1" stop-color="#54CAF5" stop-opacity="0"/>
</linearGradient>
</defs>
</svg>
